<?xml version="1.0" standalone="no"?>
<!DOCTYPE svg PUBLIC "-//W3C//DTD SVG 1.1//EN" "http://www.w3.org/Graphics/SVG/1.1/DTD/svg11.dtd" >
<svg xmlns="http://www.w3.org/2000/svg" xmlns:xlink="http://www.w3.org/1999/xlink" version="1.1">
<metadata>
Created by FontForge 20170731 at Mon Dec 26 21:41:06 2011
 By Aleksey,,,
Copyright (c) 2005, Alejandro Paul, Buenos Aires, Argentina. All rights reserved. Designed by Alejandro Paul based on a Glenmoy Stephenson Blake specimen from 1932.
</metadata>
<defs>
<font id="MousseScriptW00-Regular" horiz-adv-x="875" >
  <font-face 
    font-family="MousseScriptW00-Regular"
    font-weight="400"
    font-stretch="normal"
    units-per-em="1000"
    panose-1="2 0 5 5 4 0 0 2 0 4"
    ascent="816"
    descent="-184"
    x-height="456"
    cap-height="865"
    bbox="-2400 -394 2400 1271"
    underline-thickness="50"
    underline-position="-200"
    unicode-range="U+000D-FB02"
  />
<missing-glyph horiz-adv-x="250" 
 />
    <glyph glyph-name=".notdef" horiz-adv-x="250" 
 />
    <glyph glyph-name=".null" horiz-adv-x="0" 
 />
    <glyph glyph-name="uni000D" unicode="&#xd;" horiz-adv-x="0" 
 />
    <glyph glyph-name="space" unicode=" " horiz-adv-x="250" 
 />
    <glyph glyph-name="exclam" unicode="!" horiz-adv-x="386" 
d="M292 789q0 -21 -5 -59.5t-12 -87t-15.5 -103.5t-15.5 -108.5t-12 -102t-5 -83.5q0 -3 -4 -8.5t-11 -11t-15 -9t-16 -3.5q-9 0 -16 6.5t-9 22.5q0 1 -3.5 30t-9 73.5t-12 99.5t-12 109t-9 100.5t-3.5 73.5q0 9 3 18q2 8 7.5 15.5t15.5 13.5q28 13 48 21.5t34 13.5t24 7
t18 2q14 0 24.5 -8t10.5 -22zM283 59q0 -18 -7 -34t-19 -27.5t-28 -18t-34 -6.5q-38 0 -63 24.5t-25 61.5q0 17 6.5 32.5t18.5 27t28 18.5t35 7q18 0 34 -7t28 -18.5t19 -27t7 -32.5z" />
    <glyph glyph-name="quotedbl" unicode="&#x22;" horiz-adv-x="455" 
d="M371 755q0 -3 -3 -23t-8 -48t-10.5 -60.5t-10.5 -61t-8 -48t-3 -22.5q0 -5 -10 -13t-21 -8q-13 0 -16 19q0 1 -5 26.5t-11 60.5t-11 73.5t-5 65.5q0 6 2 11t5 10t10 9q37 17 53.5 23t27.5 6q10 0 17 -5.5t7 -14.5zM202 755q0 -3 -3 -23t-8 -48t-10.5 -60.5t-10.5 -61
t-8 -48t-3 -22.5q0 -5 -10 -13t-21 -8q-13 0 -16 19q0 1 -5 26.5t-11 60.5t-11 73.5t-5 65.5q0 6 2 11t5 10t10 9q37 17 53.5 23t27.5 6q10 0 17 -5.5t7 -14.5z" />
    <glyph glyph-name="numbersign" unicode="#" horiz-adv-x="571" 
d="M532 270q0 -20 -9 -36t-22 -16h-102v-112q0 -13 -16 -22t-36 -9q-11 0 -12 15v128h-101v-112q0 -13 -16 -22t-36 -9q-11 0 -12 15v128h-125q-15 1 -15 12q0 20 9 36t22 16h109v91h-125q-15 1 -15 12q0 20 9 36t22 16h109v104q0 13 16 22t36 9q11 0 11 -15v-121h102v105
q0 13 16 22t36 9q11 0 11 -15v-121h119q15 0 15 -11q0 -20 -9 -36t-22 -16h-103v-92h119q15 0 15 -11zM335 373h-102v-92h102v92z" />
    <glyph glyph-name="dollar" unicode="$" horiz-adv-x="612" 
d="M565 656q0 -10 -8 -21t-20.5 -20t-27.5 -15t-29 -6q-13 0 -23 7t-14 23q-6 39 -23 72q-14 29 -40 55.5t-70 35.5v-298q42 -27 86 -56.5t80 -65.5t59 -80t23 -100q0 -41 -16.5 -77.5t-48.5 -65t-78 -48t-105 -26.5v-75q0 -13 -10 -22t-24 -9q-8 0 -8 15v87h-19
q-56 0 -107 11q-44 9 -88.5 28.5t-71.5 55.5q-3 3 -5 7q-5 7 -5 19q0 16 10.5 31t25.5 26.5t33 18.5t33 7l5 -0.5t12.5 -3.5t16.5 -9t18 -18q14 -23 34 -41q17 -17 44 -32t64 -21v299q-41 27 -82.5 56t-75.5 62.5t-55 72.5t-21 86q0 50 19.5 89t52 67.5t74.5 46.5t88 25v81
q0 13 10 22t24 9q8 0 8 -15v-93q5 1 9.5 1h9.5q47 0 90 -13.5t75.5 -39t51.5 -62t19 -83.5zM268 791q-21 -1 -39.5 -9t-32.5 -24t-22 -41t-8 -60q0 -42 29 -75t73 -64v273zM424 135q0 54 -33 96.5t-81 80.5v-270q57 1 85.5 27t28.5 66z" />
    <glyph glyph-name="percent" unicode="%" horiz-adv-x="850" 
d="M775 236q0 -45 -11.5 -90t-33 -80.5t-52.5 -58t-70 -22.5q-41 0 -70.5 16.5t-49 44t-28.5 63t-9 73.5q0 45 12 90t34.5 80.5t55.5 58t74 22.5q38 0 66 -16.5t46 -44t27 -63t9 -73.5zM655 758q0 -5 -5 -15l-449 -766q-4 -7 -8 -11q-9 -11 -17 -11q-11 0 -23.5 12t-12.5 24
q0 6 5 16l449 765q4 6 8 11t7.5 8.5t8.5 3.5q11 0 24 -12.5t13 -24.5zM358 593q0 -45 -11.5 -90t-33 -80.5t-52.5 -58t-70 -22.5q-41 0 -70.5 16.5t-49 44t-28.5 63t-9 73.5q0 45 12 90t34.5 80.5t55.5 58t74 22.5q38 0 66 -16.5t46 -44t27 -63t9 -73.5zM687 192q0 33 -5 65
t-15 58t-23.5 42t-29.5 16q-21 0 -35.5 -12.5t-24 -33t-14 -47.5t-4.5 -55q0 -32 5.5 -64t16 -57t25 -40.5t33.5 -15.5t32.5 12t22 32t12.5 46t4 54zM270 549q0 33 -5 65t-15 58t-23.5 42t-29.5 16q-21 0 -35.5 -12.5t-24 -33t-14 -47.5t-4.5 -55q0 -32 5.5 -64t16 -57
t25 -40.5t33.5 -15.5t32.5 12t22 32t12.5 46t4 54z" />
    <glyph glyph-name="ampersand" unicode="&#x26;" horiz-adv-x="614" 
d="M613 412q0 -72 -23.5 -132t-61.5 -109q29 -40 47.5 -82.5t18.5 -88.5q0 -40 -17 -74t-43 -58.5t-56.5 -38.5t-57.5 -14q-23 0 -33 9.5t-10 18.5q0 21 12 33t26 24t26 28t12 46q0 15 -11.5 39t-31.5 54q-50 -30 -103 -46t-104 -16q-42 0 -79 12t-64.5 36.5t-43.5 62.5
t-16 91q0 11 5.5 30.5t24 45t54.5 55t97 61.5q-17 29 -26 52t-9 40q0 45 16.5 76.5t43 51.5t60.5 29.5t70 9.5q35 0 68 -8.5t59 -23.5t42 -36t16 -47q0 -21 -19.5 -39.5t-46 -32t-53 -21.5t-40.5 -8q-15 0 -22 6.5t-7 16.5q0 12 9 25.5t26 21.5q19 9 19 32q0 16 -12.5 29.5
t-39.5 13.5q-22 0 -39 -12t-17 -34q0 -38 17 -74.5t44 -72.5t60 -72.5t66 -73.5q22 34 35 74.5t14 86.5q0 9 2 18t7.5 16t16 11.5t27.5 5.5q28 1 36.5 -14t8.5 -34zM358 144q-33 47 -69.5 96.5t-68.5 95.5q-4 -1 -16 -6.5t-24.5 -17t-22.5 -29t-10 -42.5q0 -67 31 -97
t77 -30q50 0 103 30z" />
    <glyph glyph-name="quotesingle" unicode="'" horiz-adv-x="286" 
d="M202 755q0 -3 -3 -23t-8 -48t-10.5 -60.5t-10.5 -61t-8 -48t-3 -22.5q0 -5 -10 -13t-21 -8q-13 0 -16 19q0 1 -5 26.5t-11 60.5t-11 73.5t-5 65.5q0 6 2 11t5 10t10 9q37 17 53.5 23t27.5 6q10 0 17 -5.5t7 -14.5z" />
    <glyph glyph-name="parenleft" unicode="(" horiz-adv-x="401" 
d="M518 979q0 -1 -1.5 -5t-11.5 -25q0 -1 -1 -2t-3 -1q-80 -19 -140.5 -70t-101 -122t-61 -157t-20.5 -175q0 -90 21 -176.5t62.5 -158.5t104.5 -123.5t147 -70.5q2 0 2 -2l-20 -31q-2 -3 -3 -3h-2q-117 18 -202 67t-140.5 119.5t-82 156.5t-26.5 176q0 101 32 201t93 183
t149.5 142t202.5 79h1q1 -1 1 -2z" />
    <glyph glyph-name="parenright" unicode=")" horiz-adv-x="417" 
d="M361 462q0 -101 -32 -201t-93 -183t-149.5 -142t-202.5 -79h-1q-1 0 -1 2q0 1 1.5 5t11.5 25l1 1q2 2 3 2q80 19 140.5 70t101 122t61 157t20.5 175q0 90 -21 176.5t-62.5 158.5t-104.5 123.5t-147 70.5q-2 0 -2 2l20 31q0 3 3 3h2q117 -18 202 -67t140.5 -119.5
t82 -156.5t26.5 -176z" />
    <glyph glyph-name="asterisk" unicode="*" horiz-adv-x="500" 
d="M470 619q0 -16 -11.5 -28.5t-29.5 -22t-39.5 -15.5t-41 -10t-34 -5.5t-18.5 -1.5l-7 16q1 3 8.5 11.5t19.5 20t27 23.5t30.5 22.5t30 17t25.5 6.5q19 0 29.5 -10t10.5 -24zM313 683q0 -18 -5.5 -40.5t-12.5 -42.5q-8 -24 -17 -48h-16q-10 24 -18 48q-7 20 -12 42.5
t-5 40.5q0 32 13.5 48.5t29.5 16.5q17 0 30 -16.5t13 -48.5zM470 445q0 -15 -10.5 -25t-29.5 -10q-17 0 -40.5 14t-45.5 32t-38 34.5t-17 20.5l7 16q4 0 18.5 -1.5t34 -5.5t41 -10t39.5 -15t29.5 -21.5t11.5 -28.5zM244 536q-4 0 -18.5 1.5t-33.5 5.5t-41 10t-40 15
t-30 21.5t-12 28.5q0 14 11 24t31 10q17 0 40.5 -14t45.5 -31.5t37.5 -34t16.5 -20.5zM313 380q0 -32 -13 -48t-30 -16q-16 0 -29.5 16t-13.5 48q0 17 5 40t12 43q8 24 18 48h16q9 -24 17 -48q7 -20 12.5 -43t5.5 -40zM251 511q-2 -5 -17.5 -21t-37.5 -33.5t-45.5 -31.5
t-40.5 -14q-19 0 -30 10t-11 24q0 16 12 28.5t30 21.5t40 15t41 10t33.5 5.5t18.5 1.5z" />
    <glyph glyph-name="plus" unicode="+" horiz-adv-x="461" 
d="M422 291q0 -20 -9 -36t-22 -16h-133v-133q0 -13 -16 -22t-36 -9q-11 0 -12 15v149h-149q-15 1 -15 12q0 20 9 36t22 16l133 -1v134q0 13 16 22t36 9q11 0 11 -15v-150h150q15 0 15 -11z" />
    <glyph glyph-name="comma" unicode="," horiz-adv-x="393" 
d="M286 48q0 -30 -10.5 -62.5t-29 -60t-44 -46.5t-54.5 -23q-9 0 -14.5 7.5t-5.5 16.5q0 13 12 19q23 10 33 34.5t12 51.5q-5 -1 -15 -1q-32 0 -47.5 21.5t-15.5 49.5q0 44 27.5 66t60.5 22q17 0 33.5 -6t29 -17.5t20.5 -29.5t8 -42z" />
    <glyph glyph-name="hyphen" unicode="-" horiz-adv-x="498" 
d="M398 211q0 -20 -3.5 -36t-8.5 -16h-280q-6 1 -6 12q0 20 3.5 36t8.5 16l280 -1q6 0 6 -11z" />
    <glyph glyph-name="period" unicode="." horiz-adv-x="386" 
d="M283 59q0 -18 -7 -34t-19 -27.5t-28 -18t-34 -6.5q-38 0 -63 24.5t-25 61.5q0 17 6.5 32.5t18.5 27t28 18.5t35 7q18 0 34 -7t28 -18.5t19 -27t7 -32.5z" />
    <glyph glyph-name="slash" unicode="/" horiz-adv-x="488" 
d="M688 933q0 -5 -5 -15l-584 -991q-4 -7 -8 -11q-9 -11 -17 -11q-11 0 -23.5 12t-12.5 24q0 6 5 16l584 990q4 6 8 11t7.5 8.5t8.5 3.5q11 0 24 -12.5t13 -24.5z" />
    <glyph glyph-name="zero" unicode="0" horiz-adv-x="675" 
d="M638 462q0 -89 -22.5 -177.5t-64.5 -159t-102.5 -114.5t-137.5 -44q-81 0 -139.5 32.5t-97 86.5t-56.5 124t-18 146q0 89 24 177.5t68.5 159.5t108.5 115t145 44q76 0 131 -32.5t91 -86.5t53 -124.5t17 -146.5zM490 386q0 70 -11 138.5t-33 123t-53.5 88t-71.5 33.5
q-45 0 -78.5 -28.5t-55.5 -75.5t-33 -107.5t-11 -124.5q0 -69 12 -136.5t35.5 -120.5t58 -86t79.5 -33q42 0 72.5 27.5t50.5 73.5t29.5 105.5t9.5 122.5z" />
    <glyph glyph-name="one" unicode="1" horiz-adv-x="427" 
d="M321 4q1 -7 -2.5 -16.5t-14.5 -9.5q-31 0 -57 1q-22 0 -41.5 0.5t-24.5 0.5q-4 0 -10.5 3.5t-6.5 19.5v698q-2 8 -8 8q-12 0 -47.5 -26.5t-77.5 -82.5q-2 -3 -6 -6q-8 -6 -15 -6q-5 0 -10 5t-9 11.5t-6.5 13t-2.5 10.5q0 9 5 15q9 11 25.5 30t39.5 41.5t50.5 45.5
t59 41.5t65.5 30.5t69 12q5 0 10.5 -2.5t5.5 -13.5q-1 -46 -2 -101q-1 -47 -1 -108v-130q0 -65 0.5 -134t2 -133.5t4 -121t5.5 -96.5z" />
    <glyph glyph-name="two" unicode="2" horiz-adv-x="593" 
d="M568 165q0 -9 -2 -12q-35 -52 -64 -86t-54 -54t-46.5 -28t-41.5 -8q-23 0 -46 7.5t-48.5 17.5t-55 19t-66.5 12q-34 -29 -63 -45t-51 -16q-39 0 -57 12.5t-18 30.5q0 16 13.5 35t38 36.5t60 32t80.5 21.5q38 51 72.5 115.5t60 133t40.5 136t15 123.5q0 40 -10 68
t-26.5 45.5t-38 25.5t-44.5 8q-25 0 -49 -8.5t-43 -23.5t-30.5 -36t-11.5 -46q0 -42 13.5 -56t33.5 -14q12 0 25 3.5l26 7t25.5 7t22.5 3.5q11 0 21 -5t15 -19q1 -6 2 -13q1 -6 2 -13.5t1 -15.5q0 -21 -9.5 -33.5t-24.5 -20t-32.5 -10t-33.5 -2.5q-39 0 -68.5 12.5t-49.5 34
t-30 49.5t-10 58q0 48 23.5 85t61.5 62.5t85.5 39t96.5 13.5q43 0 84 -11t72 -34t50 -58.5t19 -84.5q0 -59 -21 -126.5t-56 -136.5t-80 -136t-92 -123q45 -5 85 -16t77 -11q34 0 66.5 18t64.5 68q2 2 5 2q7 0 11.5 -14t4.5 -26z" />
    <glyph glyph-name="three" unicode="3" horiz-adv-x="507" 
d="M474 333q0 -60 -27.5 -124t-75.5 -117t-113 -87t-140 -34q-32 0 -59.5 7.5t-47.5 23.5t-32 40t-12 57q0 12 3.5 27.5t10.5 28.5t18 22t25 9q10 0 21 -7.5t28 -25.5q32 -35 67.5 -52.5t67.5 -17.5q28 0 51.5 14t40.5 37.5t27 53t10 59.5q0 28 -9.5 54.5t-30 47.5
t-52.5 33.5t-78 12.5q-14 0 -27 -1t-22 -1q-7 0 -11 2q-10 4 -10 16q0 2 0.5 4t1.5 5q3 11 18.5 36t38 56t47.5 64.5t47 62.5t37.5 50t18.5 26q-54 -18 -97 -26t-78 -8q-39 0 -66 9t-44.5 23.5t-25.5 33t-8 37.5t7 37.5t20 32.5t31.5 23t40.5 9q11 0 22.5 -4.5t21.5 -12
t16 -18t6 -23.5q0 -12 -6 -25q1 -10 23 -13.5t54 -3.5q23 0 48.5 1t49.5 2.5t44.5 3t34.5 1.5q8 0 19 -4t11 -21q0 -6 -14 -25t-34 -44.5t-44 -54t-44 -53.5t-33.5 -43t-13.5 -22q0 -5 5 -8q59 0 101 -15t69 -40.5t39.5 -59t12.5 -71.5z" />
    <glyph glyph-name="four" unicode="4" horiz-adv-x="565" 
d="M519 222q0 -8 -5 -11.5t-10 -6.5q-17 -6 -39 -12v-64q0 -36 1 -67.5t3 -56.5q0 -7 -3 -16t-14 -10q-31 -2 -57 -4q-22 -2 -41.5 -3t-24.5 -1q-4 0 -10.5 3.5t-6.5 19.5v182q-15 -1 -29.5 -1h-29.5q-52 0 -101 4t-87.5 12t-62 20.5t-23.5 30.5t18 57t45.5 89t60 107.5
t62 113t51.5 106t28 86.5q-53 23 -75 57.5t-22 67.5q0 37 23 64t59 27q31 0 44.5 -18.5t13.5 -43.5q0 -21 -9 -42t-25 -33q32 -32 69.5 -41t74.5 -9q18 0 39.5 0.5t29.5 0.5q12 0 18.5 -2t6.5 -11q0 -14 -3.5 -34.5t-7 -57t-7 -93t-3.5 -141.5q0 -56 -1 -115t-3 -117
q7 1 13 2t12 3q1 0 2 1q1 0 2.5 0.5t3.5 0.5q14 0 17 -14t3 -30zM338 771l-24 4q-9 2 -16.5 3.5t-9.5 3.5q-37 -108 -72 -189.5t-62.5 -138.5t-44.5 -89.5t-17 -41.5q0 -8 19 -16.5t50 -17t70.5 -15.5t80.5 -11q0 96 3 180.5t8 148.5q4 75 11 137q0 10 0.5 18t1.5 13
q1 6 2 11z" />
    <glyph glyph-name="five" unicode="5" horiz-adv-x="528" 
d="M487 278q0 -57 -23 -112t-65.5 -98.5t-104 -70t-139.5 -26.5q-32 0 -59.5 7.5t-47.5 23.5t-32 40t-12 57q0 12 3.5 27.5t10.5 28.5t18 22t25 9q10 0 21 -7.5t28 -25.5q32 -35 67.5 -52.5t67.5 -17.5q28 0 50 11t37.5 29.5t23.5 43t8 51.5q0 37 -16 76t-50 71t-87.5 52.5
t-127.5 20.5q-14 0 -27 -1t-22 -1q-7 0 -11 2q-10 4 -10 16q0 2 0.5 4t1.5 5l48 265q-14 14 -21.5 31.5t-7.5 39.5q0 14 1.5 29.5t8.5 28t21.5 21t41.5 8.5q30 0 42.5 -26t14.5 -64q39 -9 84 -9q31 0 62 5.5t58.5 18t50.5 33.5t37 52q1 3 4 3q9 0 17.5 -10.5t8.5 -22.5
q0 -3 -1 -5q-21 -47 -54 -81t-71 -55.5t-79 -32t-80 -10.5q-22 0 -41 3q-4 -41 -8 -75.5t-4 -50.5q0 -5 5 -8q87 -3 150.5 -26.5t104 -61.5t60 -86t19.5 -99z" />
    <glyph glyph-name="six" unicode="6" horiz-adv-x="625" 
d="M583 287q0 -73 -26.5 -131.5t-70 -99t-98 -62t-109.5 -21.5q-50 0 -97 18.5t-83.5 58t-58.5 101t-22 146.5q0 104 18.5 186t50 143.5t72.5 104.5t86.5 70.5t92 39.5t87.5 12q33 0 61.5 -7t49 -19.5t32.5 -30.5t12 -39q0 -7 -3 -17t-17 -18l-150 -94q-1 -1 -3 -2t-8 -1
q-13 0 -19.5 12.5t-6.5 23.5t6 17l66 47q-15 31 -35 45.5t-43 14.5q-32 0 -64.5 -27.5t-59.5 -78t-45 -121.5t-19 -159q17 19 42 42.5t54 44.5t61 35.5t64 14.5q42 0 76 -21t58 -55.5t36.5 -79.5t12.5 -93zM426 209q0 39 -8 78t-21.5 70.5t-30.5 51.5t-35 20
q-20 0 -41.5 -11t-41.5 -29t-37.5 -39.5t-28.5 -42.5q6 -67 22 -116t37 -81.5t45 -48t47 -15.5q38 0 65.5 41t27.5 122z" />
    <glyph glyph-name="seven" unicode="7" horiz-adv-x="454" 
d="M470 769q0 -6 -14.5 -29t-37 -65t-51.5 -103t-58 -143t-56.5 -186.5t-46.5 -231.5q-2 -12 -7.5 -17.5t-10.5 -8t-9 -2.5t-3 -1q-7 0 -25.5 -0.5t-38.5 -0.5t-37.5 -0.5t-21.5 -0.5q-7 0 -11 2q-10 4 -10 16q0 2 0.5 4t1.5 5q11 42 30 93.5t42.5 108t50 114.5t52.5 113
t49.5 104t42.5 86.5t31 61t14 27.5q-62 -20 -111.5 -29t-88.5 -9q-44 0 -75.5 9.5t-51.5 25t-29 35.5t-9 40q0 19 7.5 36.5t21 31.5t33 22.5t43.5 8.5q11 0 22.5 -4.5t21.5 -12t16 -18t6 -23.5q0 -12 -6 -25q1 -10 27.5 -13.5t64.5 -3.5q27 0 57 1t57.5 2.5t50.5 3t37 1.5
q8 0 19 -4t11 -21z" />
    <glyph glyph-name="eight" unicode="8" horiz-adv-x="593" 
d="M549 201q0 -58 -27 -101.5t-70.5 -73t-99 -44t-111.5 -14.5q-50 0 -97 12t-83.5 36t-58.5 60.5t-22 85.5q0 25 16.5 55.5t43.5 63t61.5 67t71.5 68.5q-26 23 -49 48t-40 52.5t-27 57t-10 62.5q0 57 22 98.5t58 68.5t82.5 39.5t96.5 12.5q43 0 83 -10t70.5 -29.5
t48.5 -48.5t18 -68q0 -7 -4 -20.5t-9 -18.5l-154 -142q-1 -1 -3 -2q-4 -2 -7 -3q-15 0 -23.5 13t-8.5 25q0 6 3 11l80 81q0 33 -9 62t-25 50.5t-38 34.5t-48 13q-21 0 -41.5 -6.5t-36.5 -21.5t-26 -40.5t-10 -62.5q0 -33 28.5 -67.5t71 -71.5t92 -76.5t92 -81t71 -85
t28.5 -89.5zM406 171q0 25 -16.5 50t-43.5 50.5t-61 52t-69 55.5q-41 -45 -67 -83.5t-26 -65.5q0 -47 15 -83t39 -60.5t53.5 -37t58.5 -12.5q23 0 44.5 8t37.5 24.5t25.5 42t9.5 59.5z" />
    <glyph glyph-name="nine" unicode="9" horiz-adv-x="596" 
d="M543 523q0 -62 -10 -127t-30 -126t-49.5 -114.5t-68 -94t-87 -64t-105.5 -23.5q-33 0 -61.5 8.5t-49.5 24.5t-33.5 39.5t-12.5 54.5q0 12 3.5 27.5t10.5 28.5t18 22t25 9q10 0 21 -7.5t28 -25.5q16 -17 35 -31t37 -23.5t32.5 -15t20.5 -5.5q25 0 45.5 37t34.5 95.5
t22 131t8 143.5q0 59 -6 113.5t-18 96t-31 66.5t-45 25q-37 0 -62.5 -14.5t-41 -38t-22.5 -54t-7 -62.5t6 -62.5t17 -54.5t25 -38.5t31 -14.5q29 0 56 19t52 49q8 -1 19.5 -11.5t11.5 -25.5q0 -12 -10 -22q-18 -19 -40.5 -39.5t-48 -37.5t-53.5 -28t-56 -11
q-40 0 -71.5 17.5t-53.5 46.5t-33.5 68t-11.5 81q0 66 27.5 121t71.5 95t99.5 62.5t111.5 22.5q48 0 93 -18.5t79.5 -58.5t55.5 -103t21 -153z" />
    <glyph glyph-name="colon" unicode=":" horiz-adv-x="386" 
d="M283 389q0 -18 -7 -34t-19 -27.5t-28 -18t-34 -6.5q-38 0 -63 24.5t-25 61.5q0 17 6.5 32.5t18.5 27t28 18.5t35 7q18 0 34 -7t28 -18.5t19 -27t7 -32.5zM283 59q0 -18 -7 -34t-19 -27.5t-28 -18t-34 -6.5q-38 0 -63 24.5t-25 61.5q0 17 6.5 32.5t18.5 27t28 18.5t35 7
q18 0 34 -7t28 -18.5t19 -27t7 -32.5z" />
    <glyph glyph-name="semicolon" unicode=";" horiz-adv-x="393" 
d="M283 389q0 -18 -7 -34t-19 -27.5t-28 -18t-34 -6.5q-38 0 -63 24.5t-25 61.5q0 17 6.5 32.5t18.5 27t28 18.5t35 7q18 0 34 -7t28 -18.5t19 -27t7 -32.5zM286 48q0 -30 -10.5 -62.5t-29 -60t-44 -46.5t-54.5 -23q-9 0 -14.5 7.5t-5.5 16.5q0 13 12 19q23 10 33 34.5
t12 51.5q-5 -1 -15 -1q-32 0 -47.5 21.5t-15.5 49.5q0 44 27.5 66t60.5 22q17 0 33.5 -6t29 -17.5t20.5 -29.5t8 -42z" />
    <glyph glyph-name="equal" unicode="=" horiz-adv-x="500" 
d="M461 355q0 -20 -9 -36t-22 -16h-346q-15 1 -15 12q0 20 9 36t22 16l346 -1q15 0 15 -11zM461 232q0 -20 -9 -36t-22 -16h-346q-15 1 -15 12q0 20 9 36t22 16l346 -1q15 0 15 -11z" />
    <glyph glyph-name="question" unicode="?" horiz-adv-x="602" 
d="M547 661q0 -46 -18.5 -85t-46.5 -73.5t-60.5 -65.5t-60.5 -62t-46.5 -63t-18.5 -67q0 -3 -4 -8.5t-11 -11t-15 -9t-16 -3.5q-9 0 -16 6.5t-9 22.5q0 47 14 82.5t34.5 65t44.5 55.5t44.5 54t34 60t13.5 74q0 60 -31.5 87t-73.5 27q-27 0 -55.5 -10.5t-51.5 -30
t-37.5 -47.5t-15.5 -62q0 -5 4 -9l3 -3l67 -36q7 -5 10 -21q0 -15 -9 -24t-15 -10q-3 0 -7 2q-2 1 -3 2l-154 75q-12 6 -16.5 13t-4.5 13q0 43 33.5 84.5t84.5 73.5t113 51.5t119 19.5q36 0 68.5 -9t56.5 -29t38 -52t14 -77zM342 59q0 -18 -7 -34t-19 -27.5t-28 -18
t-34 -6.5q-38 0 -63 24.5t-25 61.5q0 17 6.5 32.5t18.5 27t28 18.5t35 7q18 0 34 -7t28 -18.5t19 -27t7 -32.5z" />
    <glyph glyph-name="at" unicode="@" horiz-adv-x="890" 
d="M894 372q0 -63 -29 -128.5t-76 -119.5t-106 -88.5t-118 -34.5q-30 0 -47 28.5t-24 66.5q-2 -3 -19 -19t-40.5 -34.5t-50 -33t-45.5 -14.5q-26 0 -48 13.5t-38 36.5t-25 53t-9 64q0 48 20 97.5t65.5 90t119.5 66.5t181 26q2 -1 5 -3q6 -4 6 -14v-274q0 -15 4 -32t22 -17
q24 0 45 18t36.5 47t25 67t9.5 77t-11 77t-35 67.5t-63 47.5t-96 18q-104 0 -185 -33t-136.5 -85.5t-84.5 -117.5t-29 -130q0 -53 19.5 -101.5t60 -86t103 -59.5t147.5 -22q14 0 14 -18q0 -11 -5.5 -25t-14.5 -27t-21 -21.5t-26 -8.5q-74 0 -145.5 21t-128 62.5t-91.5 104
t-35 145.5q0 91 47 175t128 148.5t189 103t231 38.5q84 0 142 -17t94 -46t52 -67.5t16 -81.5zM490 380q-39 -8 -66.5 -27t-44 -43.5t-24 -52.5t-7.5 -55q0 -22 4.5 -41.5t12.5 -34.5t18.5 -24t23.5 -9q11 0 24.5 9t25.5 20q14 12 29 29q3 3 3.5 6.5t0.5 5.5v217z" />
    <glyph glyph-name="A" unicode="A" 
d="M912 189q0 -9 -2 -12q-22 -32 -50.5 -67.5t-60 -65.5t-64.5 -49.5t-63 -19.5t-55 14.5t-44 36t-32.5 46.5t-20.5 46q0 1 -1 2l-3 3q-3 0 -7 -4q-61 -67 -111.5 -107.5t-88.5 -40.5q-79 0 -137 25.5t-95.5 69.5t-56 102.5t-18.5 124.5q0 65 17.5 134t52 134.5t84.5 123.5
t115.5 101t145.5 68.5t173 25.5q15 0 41.5 -3.5t57 -10.5t62 -17.5t57 -25t42 -33t16.5 -40.5q0 -13 -10.5 -31t-25 -35t-29 -29t-23.5 -12q-17 0 -23 21q-10 36 -23 63.5t-34 46t-53.5 28.5t-81.5 10q-63 0 -116.5 -19.5t-97 -53.5t-77.5 -79t-56.5 -96t-34.5 -104.5
t-12 -103.5t12 -94t36 -77t61 -52.5t88 -19.5q18 0 38 10.5t38 24.5t31.5 28t18.5 20l3 6q4 8 4 18q0 48 -1 114.5t-2 136t-2 134.5t-2 110q0 4 4 15t22 12q59 3 85.5 5.5t36.5 2.5q14 0 18.5 -9.5t4.5 -23.5q0 -9 -0.5 -30t-1 -47t-1 -53t-0.5 -47v-28t0.5 -40.5t1 -48
t0.5 -50.5q1 -59 2 -128q0 -8 3 -30t11 -45.5t23 -42t39 -18.5t46.5 12t42 30t35.5 38.5t27 37.5q2 2 5 2q7 0 11.5 -14t4.5 -26z" />
    <glyph glyph-name="B" unicode="B" horiz-adv-x="773" 
d="M739 233q0 -62 -22 -109t-58 -79t-83.5 -48t-98.5 -16q-30 0 -64.5 12.5t-63.5 32t-48 42.5t-19 44q0 12 9.5 24t23 21.5t27 15.5t22.5 6q15 -2 24 -12t14 -21q1 -1 1 -2q3 -7 11 -21.5t20 -29.5t26.5 -26.5t31.5 -11.5q14 0 28 11.5t25.5 32.5t18.5 51t7 68
q0 55 -16.5 107t-53.5 84q-25 -16 -51 -24.5t-55 -8.5q-42 0 -67.5 21t-25.5 47q0 25 29 45t95 20q28 0 60 -6q20 32 29 61.5t9 55.5q0 53 -30 85t-74 32q-22 0 -68 -24.5t-106 -62.5v-124q0 -60 0.5 -118.5t1.5 -121t2 -132t1 -151.5q0 -7 -2 -12q-4 -11 -12 -11h-81
q-22 0 -43 1q-4 -1 -8 2q-3 2 -6 6t-4 12q1 44 1 98.5v100.5v350l-101 -70q-3 -2 -7 -4q-8 -4 -15 -4q-9 0 -15.5 9t-6.5 23q0 7 3 15t13 15q29 20 61 43t67 46v204q0 14 22 20q6 1 22.5 3t35.5 4t35.5 3t21.5 1q19 0 19 -17q-1 -32 -2.5 -62t-1.5 -59q48 30 93 55.5
t82 44.5t63.5 30t37.5 11q37 0 63 -12t42.5 -32.5t24.5 -48.5t8 -59q0 -58 -23 -121t-65 -114q33 -16 63.5 -39t53 -53t36 -67.5t13.5 -81.5z" />
    <glyph glyph-name="C" unicode="C" horiz-adv-x="719" 
d="M755 189q0 -9 -2 -12q-43 -59 -98 -105q-24 -20 -52.5 -39t-61.5 -33.5t-70.5 -23.5t-79.5 -9q-95 0 -168 38.5t-122 101.5t-74 144t-25 165q0 120 37.5 206t96.5 141t132 81t144 26q52 0 99.5 -13.5t83.5 -39t57.5 -62t21.5 -83.5q0 -7 -3 -17t-17 -18l-206 -129
q-1 -1 -3 -2t-8 -1q-13 0 -19.5 12.5t-6.5 23.5t6 17l122 82q-10 45 -28 81q-16 31 -43 56.5t-69 25.5q-58 0 -102 -28t-74 -74.5t-45 -106t-15 -123.5q0 -71 18.5 -140.5t56.5 -124.5t95.5 -89t135.5 -34q60 0 120 24t117 81q8 8 14.5 18t13.5 21q2 2 5 2q7 0 11.5 -14
t4.5 -26z" />
    <glyph glyph-name="D" unicode="D" horiz-adv-x="922" 
d="M895 366q0 -75 -24 -144.5t-73.5 -123t-125.5 -85.5t-179 -32q-18 0 -34 1t-33.5 4t-37.5 9t-47 16q-9 4 -18 4t-25.5 -6.5t-40 -15t-53 -15t-64.5 -6.5q-63 0 -93 20.5t-30 47.5q0 17 11.5 34t33 31t53.5 23t73 9q14 0 29.5 -2.5t31.5 -6.5q24 37 33 92.5t10 119.5
l-336 171q-31 15 -31 59q0 38 27.5 87t85 93t147.5 74.5t215 30.5q120 0 212 -43.5t155 -113t95.5 -157t32.5 -175.5zM726 378q0 74 -24.5 149.5t-73 136t-121.5 99t-169 38.5q-55 0 -104.5 -26.5t-87 -64.5t-59.5 -79t-22 -70q0 -25 19 -35l206 -114q-3 44 -7.5 87.5
t-9.5 83t-9 72.5t-5 57q-1 11 7 18.5t19.5 12t24 6.5t20.5 2q52 0 69 -21t17 -71q0 -18 1 -46t2 -63.5t2 -76t1 -82.5q0 -43 -1.5 -85.5t-5 -82t-9.5 -74t-16 -60.5q40 -9 88 -9q62 0 108.5 24.5t77.5 65.5t46.5 95t15.5 113z" />
    <glyph glyph-name="E" unicode="E" horiz-adv-x="707" 
d="M686 110q0 -68 -28 -125t-77.5 -99t-117.5 -65.5t-148 -23.5q-68 0 -125.5 23.5t-99.5 63t-66 92t-24 110.5q0 79 39 145.5t102 111.5q-54 48 -81 114.5t-27 136.5q0 74 28 127.5t73 88t101.5 51t114.5 16.5q51 0 99 -12.5t84.5 -35.5t59 -56.5t22.5 -76.5
q0 -13 -9 -26.5t-29 -22.5l-240 -111q-3 -2 -6 -3q-8 -2 -13 -2q-8 0 -14 6.5t-10 14t-5.5 14.5t-1.5 8q0 4 3.5 10t14.5 11q9 4 34 17.5t51 28.5q31 18 67 38q3 1 7 5q2 2 4.5 6t2.5 9q0 23 -11.5 44t-31 37t-44.5 25.5t-51 9.5q-27 0 -53.5 -12t-47.5 -39t-34 -71
t-13 -108q0 -49 17.5 -97t56.5 -86q26 8 52 12t53 4q63 0 93 -21.5t30 -48.5q0 -15 -9 -29t-26 -25.5t-43.5 -18.5t-60.5 -7q-29 0 -55 4t-49 12q-32 -36 -53 -77.5t-21 -92.5q0 -39 17.5 -81t44.5 -76.5t60 -56.5t65 -22q40 0 74 24.5t58 62t37.5 83.5t13.5 90q0 22 13 38
t42 16q17 0 33 -5.5t28.5 -14t20 -19.5t8.5 -23q0 -4 0.5 -9t0.5 -11z" />
    <glyph glyph-name="F" unicode="F" horiz-adv-x="723" 
d="M763 846q0 -5 -5 -17q-7 -14 -16.5 -34.5t-19.5 -40.5q-11 -23 -23 -48q-1 -4 -5 -8q-7 -7 -26 -7q-12 0 -27 3t-37.5 6t-55.5 6t-81 3q-100 0 -175 -24t-125 -59t-75 -74.5t-25 -70.5q0 -24 15 -39t44 -15q15 0 33 3.5t34.5 7.5t30 7.5t18.5 3.5q11 0 21 -5t15 -19
q1 -6 2 -13q1 -6 2 -13.5t1 -15.5q0 -21 -9.5 -33.5t-24.5 -20t-32.5 -10t-33.5 -2.5q-44 0 -77 15t-55.5 40.5t-34 59.5t-11.5 73q0 59 27.5 122t85.5 114.5t147 85.5t211 34h173q47 0 93 1q4 0 12.5 -2.5t8.5 -13.5zM736 400q0 -17 -15 -34t-39 -17q-18 0 -50 -8.5
t-70 -22.5q1 -59 1.5 -94t1 -56t1 -31.5t0.5 -20.5q0 -70 -16.5 -125.5t-52 -94.5t-91.5 -60t-135 -21q-40 0 -75.5 5t-61.5 17t-41.5 31t-15.5 47q0 13 5.5 27t14 25t20 18.5t23.5 7.5q18 0 40 -16t46.5 -35.5t50.5 -35.5t53 -16q26 0 41.5 21t24 52.5t10.5 68t2 66.5
q-1 19 -1 44q0 20 -0.5 48.5t-0.5 60.5q-27 -14 -49.5 -26t-38.5 -22q-13 0 -23 8t-10 21q0 8 5 17t18 20q18 14 43 30t54 31q0 42 -0.5 83t-1 76.5t-0.5 61.5v38q0 8 2 18t7 19.5t15 16.5t26 10q27 5 47.5 6.5t34.5 1.5q19 0 27.5 -3.5t10.5 -22.5q-1 -4 -2 -20.5t-2 -39
t-2 -49t-2 -51.5t-2 -45.5t-1 -31.5q41 14 78 22.5t63 8.5q17 0 25 -8.5t8 -20.5z" />
    <glyph glyph-name="G" unicode="G" horiz-adv-x="827" 
d="M863 189q0 -9 -2 -12q-18 -26 -40 -51q-19 -21 -44.5 -42.5t-54.5 -34.5v-27q0 -65 -16 -110t-43 -73.5t-61.5 -41.5t-71.5 -13q-41 0 -80 14t-70.5 38.5t-50.5 57.5t-19 71q0 11 5.5 17t20.5 11q10 3 38 10t64 16.5t74 20t67 20.5h2q-1 23 -2.5 52t-2.5 58.5t-1.5 56
t-0.5 43.5q-31 -32 -66 -58q-30 -22 -69.5 -40t-84.5 -18q-75 0 -133.5 36t-96.5 94q-41 -22 -68.5 -37.5t-36.5 -20.5q-13 -6 -17.5 -7.5t-7.5 -1.5q-11 0 -17.5 13t-6.5 25q0 10 3.5 14.5t11.5 9.5l110 61q-33 76 -33 164q0 95 35.5 166t92.5 117.5t127.5 69.5t139.5 23
q55 0 105 -14t88 -42t60.5 -70t22.5 -97q0 -8 -2 -16.5t-8 -16.5q-5 -6 -26.5 -20t-56 -34t-78 -45t-92.5 -52t-100 -55t-100 -55q27 -35 69 -55.5t101 -20.5q5 0 17.5 1.5t30 7.5t38.5 18t44 33v4q0 2 0.5 5.5t0.5 8.5q0 4 -0.5 14t-1 20.5t-0.5 19v9.5q0 3 1.5 5.5
t7.5 2.5q10 -1 28 -2t37.5 -1.5t37 -1t27.5 -0.5q4 0 8 -2q8 -4 8 -14q-1 -8 -1.5 -41.5t-0.5 -78.5v-94.5v-88.5q52 28 77.5 58.5t42.5 56.5q2 2 5 2q7 0 11.5 -14t4.5 -26zM573 654q0 42 -10.5 73t-28 51t-41 29.5t-49.5 9.5q-38 0 -78.5 -19.5t-73.5 -56.5t-54 -90
t-21 -120q0 -29 4.5 -57t15.5 -54l316 177q15 8 17.5 26t2.5 31zM583 5q-46 -14 -73 -22t-40.5 -13t-17 -8.5t-3.5 -7.5q0 -5 1 -7q20 -55 39 -79t36 -24q25 0 40.5 44.5t17.5 116.5z" />
    <glyph glyph-name="H" unicode="H" horiz-adv-x="960" 
d="M996 189q0 -9 -2 -12q-26 -39 -55 -71.5t-59 -56t-60 -37t-57 -13.5q-28 0 -52 15.5t-41.5 49t-27.5 87.5t-10 131v120q-40 -10 -79.5 -20t-77.5 -21v-47q0 -70 -7 -134t-30 -113t-67 -78t-118 -29q-57 0 -103.5 8.5t-79.5 23.5t-51 35t-18 43q0 12 3.5 27t10.5 27.5
t17.5 21.5t24.5 9q10 0 21 -7.5t27 -24.5q15 -17 34 -30.5t36.5 -23.5t31.5 -15t20 -5t18.5 3t26 13.5t24.5 30t13 52.5q2 26 2.5 67t0.5 90v11q-10 -3 -18.5 -5.5t-16.5 -4.5q-17 -7 -34 -12q-14 -5 -29.5 -8.5t-26.5 -3.5q-11 1 -19 9q-8 7 -13.5 20t-5.5 39q0 3 1.5 9
t7 12t17 10.5t31.5 4.5q14 0 41 4t64 11q0 55 -1 108t-1.5 94.5t-1.5 67l-1 25.5q-1 1 -3 2q-4 2 -8 2q-17 0 -38 -15.5t-43 -34t-42 -34.5t-34 -16q-9 2 -15 6q-5 4 -9.5 12t-4.5 23q0 7 4.5 17.5t20.5 22.5q11 9 31 23.5t44.5 31.5t52.5 34t54.5 31t50.5 23t41 9
q29 0 45.5 -11t16.5 -34q0 -56 0.5 -102.5t1 -88.5t1.5 -81t1 -80q38 9 77.5 18t80.5 18q2 108 4.5 177.5t9.5 106.5q1 10 6 20q5 8 14 16t26 13q20 5 39.5 8.5t33.5 3.5q21 0 29.5 -13t8.5 -30q0 -6 -2 -29.5t-5 -59t-6.5 -81t-5.5 -96.5q16 4 31.5 7.5t30.5 6.5q14 4 27 8
q11 3 24 5.5t24 2.5q13 0 20 -6t10.5 -15.5t4.5 -21.5t1 -23t-5.5 -21t-31.5 -10q-9 0 -20 2t-22 2q-36 0 -97 -11v-42q0 -51 4 -99.5t14 -87t25 -61.5t38 -23q21 0 49.5 24.5t63.5 81.5q2 2 5 2q7 0 11.5 -14t4.5 -26z" />
    <glyph glyph-name="I" unicode="I" horiz-adv-x="613" 
d="M688 480q0 -8 -5 -11.5t-10 -6.5q-11 -5 -48 -18t-87 -24v-160q0 -55 -14.5 -108.5t-49.5 -96t-93 -68.5t-145 -26q-3 0 -22 1.5t-45 6t-56 11.5t-55 18.5t-41.5 27.5t-16.5 38q0 8 3.5 22t12 27t21 22.5t30.5 9.5q10 0 26.5 -8t35 -20.5t39.5 -27t40.5 -27t37 -20.5
t29.5 -8q26 0 47 18.5t36 47t23.5 63.5t8.5 67q0 40 -1 84.5t-3 91.5q-52 2 -107 10t-100.5 24t-75 41t-29.5 61q0 45 24 86.5t63 77.5t88.5 65t101 50t99.5 32.5t85 11.5q7 0 15 -3t7 -20q-3 -53 -6 -97.5t-5.5 -87.5t-4 -86.5t-2.5 -94.5q24 8 53.5 18.5t67.5 27.5
q1 0 2 1q1 0 2.5 0.5t3.5 0.5q14 0 17 -14t3 -30zM393 729q0 5 -3 5q-1 0 -1.5 -0.5t-1.5 -0.5q-1 -1 -2 -1q-15 -8 -39.5 -26t-48 -43.5t-40.5 -57.5t-17 -68q0 -25 34.5 -47t110.5 -28q-1 28 -1 55v53q0 49 2 90t7 69z" />
    <glyph glyph-name="J" unicode="J" horiz-adv-x="657" 
d="M693 189q0 -9 -2 -12q-33 -54 -82.5 -87.5t-104.5 -56.5v-55q0 -45 -22.5 -83.5t-56.5 -66t-73 -43.5t-72 -16q-39 0 -79.5 21t-73.5 52.5t-54 68t-21 68.5q0 7 4 14.5t21 7.5q2 0 24 2t58.5 7.5t85 14t103.5 21.5q0 20 2 36.5t2 39.5q0 36 -0.5 85.5t-0.5 104.5
q-54 2 -115 13.5t-113.5 32t-87 49t-34.5 65.5q0 45 26 92t68 90.5t95 81.5t107 66.5t104.5 45.5t86.5 17q7 0 14.5 -3t7.5 -20q0 -31 -0.5 -80t-1 -109.5t-1 -128.5t-1.5 -138q22 7 48.5 17.5t60.5 24.5q1 0 2 1q1 0 2.5 0.5t3.5 0.5q14 0 17 -14t3 -30q0 -8 -5 -11.5
t-10 -6.5q-10 -5 -43.5 -16.5t-78.5 -22.5q-1 -65 -1 -125.5t-1 -113.5q40 15 67.5 32.5t46.5 35.5t31.5 35.5t22.5 33.5q2 2 5 2q7 0 11.5 -14t4.5 -26zM346 729q0 5 -3 5q-1 0 -1.5 -0.5t-1.5 -0.5q-1 -1 -2 -1q-15 -8 -43.5 -37t-57 -67.5t-49.5 -81.5t-21 -79
q0 -13 12.5 -28.5t36.5 -30t58 -25.5t76 -15zM345 -13q-29 -7 -53 -12t-41 -11q-26 -8 -40.5 -16.5t-14.5 -19.5q0 -9 9 -26t23.5 -34t32.5 -29.5t36 -13.5q27 2 35 42.5t13 119.5z" />
    <glyph glyph-name="K" unicode="K" horiz-adv-x="1016" 
d="M1052 189q0 -9 -2 -12q-23 -38 -57 -87t-74 -92.5t-81.5 -73.5t-77.5 -30q-33 0 -55.5 28t-40.5 72t-33 99t-32.5 109t-39 101.5t-52.5 76.5l-6 8q-5 8 -5 17q0 7 6 12q51 31 96 79.5t80 101t57.5 104t28.5 88.5q1 9 7.5 19t16.5 19t23.5 15.5t30.5 7.5q11 1 23 1.5
t23 0.5q29 0 51 -6t22 -26q0 -13 -22.5 -51t-62.5 -89.5t-94.5 -109t-118.5 -109.5q-1 -1 -2 -4t-1 -10q0 -3 7.5 -16t19.5 -33t26 -45.5t27 -54.5q18 -40 30.5 -81.5t24.5 -75t25.5 -55t32.5 -21.5t45 19t52 45t48 53t33 44q2 2 5 2q7 0 11.5 -14t4.5 -26zM475 314
q0 -70 -7 -134t-30 -113t-67 -78t-118 -29q-57 0 -103.5 8.5t-79.5 23.5t-51 35t-18 43q0 12 3.5 27t10.5 27.5t17.5 21.5t24.5 9q10 0 21 -7.5t27 -24.5q15 -17 34 -30.5t36.5 -23.5t31.5 -15t20 -5t18.5 3t26 13.5t24.5 30t13 52.5q2 26 2.5 67t0.5 90q0 42 -0.5 87.5
t-1 89t-1 82.5t-1.5 68t-1.5 46.5l-0.5 17.5q-1 1 -3 2q-4 2 -8 2q-17 0 -38 -15.5t-43 -34t-42 -34.5t-34 -16q-9 2 -15 6q-5 4 -9.5 12t-4.5 23q0 7 4.5 17.5t20.5 22.5q11 9 31 23.5t44.5 31.5t52.5 34t54.5 31t50.5 23t41 9q29 0 45.5 -11t16.5 -34q0 -75 1 -134.5
t1.5 -113.5t1.5 -108t1 -118z" />
    <glyph glyph-name="L" unicode="L" horiz-adv-x="832" 
d="M868 189q0 -9 -2 -12q-22 -32 -49 -67.5t-61 -65.5t-75.5 -50t-93.5 -20q-21 0 -47.5 9t-58.5 23t-69 30t-79 31q-31 -41 -82 -66.5t-131 -25.5q-64 0 -93 17t-29 43q0 19 15.5 41t45 42.5t71.5 37t95 25.5q12 44 15.5 92.5t4 99t1.5 100.5t7 97q6 50 31 101t61.5 91.5
t81.5 66t91 25.5q36 0 81 -19.5t84.5 -51t67 -71.5t27.5 -82q0 -6 -5.5 -15t-30.5 -27t-76.5 -48.5t-142.5 -80.5q-3 -2 -6 -3q-8 -2 -13 -2q-8 0 -14 6.5t-10 14t-5.5 14.5t-1.5 8q0 4 3.5 10t14.5 11q9 4 30 18t43 29q26 18 56 38q3 1 7 5q2 2 4.5 6t2.5 9q0 10 -10.5 37
t-28 56t-41 51.5t-49.5 22.5q-25 0 -42 -25.5t-28 -67t-17 -93t-8.5 -103.5t-3 -99.5t-1.5 -79.5q-1 -29 -5.5 -63.5t-13.5 -71.5q54 -5 100.5 -16t86.5 -22.5t74 -21t64 -9.5q22 0 41.5 10.5t37 26.5t32 35t25.5 37q2 2 5 2q7 0 11.5 -14t4.5 -26z" />
    <glyph glyph-name="M" unicode="M" horiz-adv-x="1002" 
d="M1038 189q0 -9 -2 -12q-22 -32 -48.5 -65.5t-54 -60.5t-54 -44.5t-49.5 -17.5q-60 0 -93 47.5t-49 131.5t-20 199.5t-7 252.5q-6 -14 -21 -61.5t-36.5 -110t-46.5 -131.5t-50 -127t-48 -95.5t-39 -37.5q-11 0 -21 23t-20.5 61t-20 87t-18.5 99.5t-17 99t-14.5 87t-12 62
t-9.5 23.5q-9 -61 -21.5 -144.5t-31.5 -173t-45.5 -176.5t-63 -156.5t-84 -112t-108.5 -42.5q-44 0 -65 23.5t-21 52.5t21 52t63 25q43 3 78 32.5t63.5 77.5t50 110.5t38.5 130t29 136t21.5 129.5t16 109.5t12.5 76.5q1 19 20 38.5t44 35t50.5 25t40.5 9.5q11 0 18 -5t7 -17
q1 -33 3.5 -82t7 -102.5t10.5 -106.5t14 -95.5t17.5 -69t20.5 -26.5q4 0 13 18q2 6 10 29.5t18 57.5t22 74.5t23 80t20 75t13 58.5q7 38 31 59.5t50.5 31.5t48.5 12t26 2q11 0 24 -6t13 -28q-1 -32 -1 -64.5v-67.5q0 -64 1.5 -128.5t5.5 -124.5t11 -112t18.5 -91t27 -61
t37.5 -22q42 0 66 23.5t46 57.5q2 2 5 2q7 0 11.5 -14t4.5 -26z" />
    <glyph glyph-name="N" unicode="N" horiz-adv-x="822" 
d="M858 189q0 -9 -2 -12q-22 -32 -49 -65.5t-55.5 -61t-56 -45t-50.5 -17.5q-39 0 -67.5 33.5t-49 88.5t-34.5 125.5t-22 144.5t-12 145.5t-6 127.5q0 4 -1 7.5t-5 4.5h-1q-1 0 -2 0.5t-2 0.5q-11 0 -28 -12.5t-36.5 -32.5t-39.5 -45t-37.5 -51t-30.5 -49.5t-18 -40.5
q-2 -5 -3 -12q-1 -6 -1.5 -15.5t-0.5 -21.5q0 -2 0.5 -28.5t1.5 -65t2 -84t2.5 -86t2.5 -70.5t2 -38q0 -7 -3 -16.5t-14 -9.5q-31 0 -57 1q-22 0 -41.5 0.5t-24.5 0.5q-4 0 -10.5 3.5t-6.5 19.5q-1 44 -1.5 120t-0.5 164v117.5t0.5 113.5t0.5 98.5v74.5q0 8 -7 8
q-12 0 -47.5 -26.5t-77.5 -82.5q-2 -3 -6 -6q-8 -6 -15 -6q-5 0 -10 5t-9 11.5t-6.5 13t-2.5 10.5q0 9 5 15q9 11 26.5 30t41.5 41.5t54 45.5t62.5 41.5t67.5 30.5t70 12q5 0 10.5 -2.5t5.5 -13.5q-1 -6 -2.5 -21.5t-3 -36.5t-3 -46t-2.5 -50q-4 -59 -7 -129q0 -1 1 -2
q2 -2 3 -2q2 0 3 2q7 10 26.5 35t47 56.5t60.5 66t67 62.5t66 46.5t58 18.5q8 0 15 -3t9 -11q2 -40 3 -106.5t4 -142t9.5 -153t19.5 -139.5t34.5 -101.5t54.5 -39.5q19 0 34.5 8.5t29 22t25 30.5t22.5 34q2 2 5 2q7 0 11.5 -14t4.5 -26z" />
    <glyph glyph-name="O" unicode="O" horiz-adv-x="959" 
d="M994 189q0 -9 -2 -12q-53 -75 -117.5 -108t-132.5 -33h-15q-65 -86 -156 -130t-186 -44q-74 0 -143 27.5t-122 83.5t-85.5 142t-32.5 202q0 100 32.5 198t98.5 176t165 126t232 48q25 0 37 -14.5t12 -31.5q0 -13 -7.5 -23t-23.5 -10q-8 0 -13.5 1.5t-26.5 1.5
q-83 0 -147.5 -38t-108 -99t-66 -138t-22.5 -155q0 -71 19 -138t58 -118.5t98.5 -82.5t140.5 -31q50 0 89.5 17.5t69.5 47.5q-52 19 -98.5 55t-81 86.5t-54.5 113.5t-20 135q0 69 15.5 118.5t41 82t59 48t69.5 15.5q46 0 92 -23t83.5 -67t61 -107t23.5 -143
q0 -81 -17 -148.5t-47 -123.5h3q54 0 107.5 30.5t98.5 100.5q2 2 5 2q7 0 10.5 -14t3.5 -26zM741 330q0 61 -13.5 107t-35 77t-48 46.5t-52.5 15.5q-21 0 -40.5 -10t-34 -30t-23.5 -50.5t-9 -70.5q0 -50 15.5 -97t42.5 -87t63.5 -71t77.5 -47q29 48 43 104.5t14 112.5z" />
    <glyph glyph-name="P" unicode="P" horiz-adv-x="757" 
d="M860 526q0 -26 -7 -44.5t-21 -26.5q-77 -46 -130.5 -78t-89 -53t-55.5 -33.5t-29.5 -20t-12 -12.5t-1.5 -10q4 -57 6.5 -89.5t4 -50t2 -24t0.5 -12.5q0 -48 -16 -98.5t-46 -92.5t-72.5 -69t-94.5 -27q-31 0 -68 15.5t-69.5 41t-54 58.5t-21.5 68q0 18 13 31.5t31 21.5
t37 12t30 4t17 -4q6 -5 10.5 -20t9 -34.5t10.5 -41t15.5 -39.5t23.5 -29.5t35 -11.5q17 0 28 21.5t17 52.5t8.5 64.5t2.5 57.5q0 75 -6.5 147.5t-14 143.5t-13.5 140t-6 136q0 12 4.5 26.5t28.5 19.5q13 3 30.5 6.5t33 7.5t27 6.5t12.5 2.5q5 0 15 -4.5t11 -24.5
q0 -8 1.5 -34t2.5 -60.5t3 -73t3 -72.5t2 -58.5t2 -30.5q0 -1 1 -2t4 -1l4 2q2 1 20 12t44 27.5t56.5 35.5t59.5 37q2 2 4 6q2 3 3.5 7t1.5 11q0 59 -22 113.5t-61 96t-93.5 66t-118.5 24.5q-74 0 -133 -25.5t-99.5 -67.5t-62 -96.5t-21.5 -112.5q0 -39 10.5 -78t31.5 -75
t53.5 -68t77.5 -57q5 -3 8 -9.5t3 -14.5q0 -9 -3 -16q-2 -6 -7 -10.5t-14 -4.5q-64 20 -111.5 56.5t-79.5 83.5t-48 102t-16 112q0 75 27.5 148t83 130t138.5 92.5t193 35.5q71 0 130 -18t105.5 -48t80.5 -68.5t56.5 -79t33.5 -80t11 -71.5z" />
    <glyph glyph-name="Q" unicode="Q" horiz-adv-x="794" 
d="M830 189q0 -9 -2 -12q-29 -44 -57.5 -66t-55.5 -27q0 -26 -0.5 -53.5t-1.5 -55.5q6 2 10.5 3t8.5 2t7 2q2 0 4 1q2 0 3.5 0.5t3.5 0.5q5 0 8.5 -2.5t3.5 -10.5t-0.5 -17t-1.5 -17q-1 -10 -2 -18q0 -3 -3 -7q-2 -3 -7 -7t-13 -6l-9 -3t-14 -4q-1 -31 -1.5 -59.5
t-1.5 -53.5q0 -7 -2 -12q-4 -11 -12 -11h-76q-19 0 -38 1q-4 -1 -8 2q-3 2 -6 6t-4 12q2 9 4 21q3 21 9 57q-11 -3 -20 -5.5t-16 -4.5q-8 -3 -14 -4q-5 0 -5 9v14t1 18q0 11 1 23q1 1 1.5 5.5t9.5 8.5q3 2 18 6.5t38 11.5q5 28 8.5 57.5t8.5 59.5q-43 -40 -99.5 -63.5
t-127.5 -23.5q-93 0 -165.5 39t-122 103t-75 145.5t-25.5 166.5q0 112 40.5 195.5t105 138.5t144 82.5t156.5 27.5q58 0 110.5 -15t92.5 -45t64 -74.5t25 -103.5q0 -7 -3 -17t-17 -18l-223 -134q-1 -1 -3 -2t-8 -1q-13 0 -19.5 12.5t-6.5 23.5t6 17l122 82q-2 54 -17.5 94.5
t-40 66.5t-56 39t-65.5 13q-45 0 -90.5 -22t-82 -64.5t-59.5 -105t-23 -143.5q0 -71 19.5 -141.5t56 -126t90 -90t122.5 -34.5q44 0 84.5 20t69.5 54q-24 35 -38 77.5t-14 80.5q0 39 17 65t55 26q33 0 54.5 -11t34.5 -30.5t18 -47.5t5 -61v-33t-2 -71q23 5 46.5 24.5
t46.5 57.5q2 2 5 2q7 0 11.5 -14t4.5 -26zM632 273q0 23 -8.5 39.5t-17.5 16.5q-6 0 -10.5 -9.5t-4.5 -30.5q0 -52 25 -93q11 24 14 46q1 9 1.5 16.5t0.5 14.5z" />
    <glyph glyph-name="R" unicode="R" horiz-adv-x="797" 
d="M833 189q0 -9 -2 -12q-22 -32 -50 -66.5t-57.5 -63.5t-57.5 -48t-51 -19q-39 0 -68 17t-52 45.5t-42.5 67t-38.5 81.5t-40.5 88t-48.5 87q-2 2 -3 4q-2 4 -2 9t4 11t17 11q53 28 89 57t58 56.5t31.5 54t9.5 50.5q0 26 -9.5 47.5t-25 37.5t-35 24.5t-39.5 8.5
q-22 0 -68 -24.5t-106 -62.5v-124q0 -60 0.5 -118.5t1.5 -121t2 -132t1 -151.5q0 -7 -2 -12q-4 -11 -12 -11h-81q-22 0 -43 1q-4 -1 -8 2q-3 2 -6 6t-4 12q1 45 1 90.5v92.5v366l-101 -70q-3 -2 -7 -4q-8 -4 -15 -4q-9 0 -15.5 9t-6.5 23q0 7 3 15t13 15q29 20 61 43t67 46
v204q0 14 22 20q6 1 22.5 3t35.5 4t35.5 3t21.5 1q19 0 19 -17q-1 -32 -2.5 -62t-1.5 -59q48 30 93 55.5t82 44.5t63.5 30t37.5 11q69 -1 103.5 -41.5t34.5 -103.5q0 -33 -10 -71t-30 -77.5t-50.5 -79.5t-71.5 -77q-12 -11 -12 -15q16 -18 29 -44t26.5 -55.5t27.5 -59
t32.5 -53t42.5 -38t56 -14.5q19 0 34.5 8.5t29 22t25 30.5t22.5 34q2 2 5 2q7 0 11.5 -14t4.5 -26z" />
    <glyph glyph-name="S" unicode="S" horiz-adv-x="723" 
d="M678 695q0 -6 -3.5 -13.5t-15.5 -15.5l-230 -137q-2 -2 -5 -3q-5 -3 -11 -3t-19.5 9.5t-13.5 27.5q0 8 7 15q9 8 17.5 13.5t22.5 13.5t36 21t57 35q1 0 3 2q1 2 2 3.5t1 4.5q0 28 -17.5 54t-45 45.5t-61.5 31t-68 11.5q-27 0 -52 -8.5t-44 -27.5t-30.5 -50t-11.5 -75
q0 -52 35 -92t87.5 -77t114 -74.5t114 -83t87.5 -103.5t35 -136q0 -14 -3 -39.5t-14.5 -57t-34 -65t-62.5 -62t-100 -48t-146 -23.5q-65 1 -122 12q-25 4 -50.5 11.5t-49 17.5t-43.5 24t-33 32q-3 3 -5 7q-5 7 -5 19q0 16 10.5 31t25.5 26.5t33 18.5t33 7q1 0 18.5 -6.5
t33.5 -24.5q24 -27 55 -48q26 -18 61.5 -33t78.5 -15q14 0 39.5 5.5t50.5 22t43.5 47.5t18.5 82q0 56 -35 103.5t-88 91t-114.5 86.5t-114.5 90t-88 100t-35 118q0 71 29.5 122t77.5 84t109 48.5t124 15.5q59 0 115 -13t99.5 -37t70 -59t26.5 -79z" />
    <glyph glyph-name="T" unicode="T" horiz-adv-x="633" 
d="M715 770q0 -15 -9 -32t-25.5 -31.5t-40.5 -25t-54 -13.5q-6 0 -17 -2t-15 -11q-2 -19 -4 -41q-2 -19 -3 -44.5t-1 -55.5q0 -7 1 -17.5t3 -35.5t4 -71t5 -124q2 -54 -14 -108.5t-52.5 -98t-96.5 -71t-147 -27.5q-3 0 -22 1.5t-45 6t-56 11.5t-55 18.5t-41.5 27.5t-16.5 38
q0 8 3.5 22t12 27t21 22.5t30.5 9.5q10 0 26.5 -8t35 -20.5t39.5 -27t40.5 -27t36.5 -20.5t30 -8q26 0 47 18.5t36 47t23.5 63.5t8.5 67q0 33 -1.5 72.5t-3 74t-3 58t-1.5 25.5q0 54 5.5 92.5t13.5 64.5q8 30 19 50q0 6 -10 6q-99 0 -167 -15.5t-110 -39.5t-61 -52t-19 -53
q0 -29 20.5 -48t55.5 -19q29 0 51 -1t37 -7t22.5 -19t7.5 -36q0 -9 -2.5 -20t-10 -21t-20.5 -16.5t-34 -6.5q-48 0 -84 16.5t-60.5 44t-37 64t-12.5 75.5q0 49 20 99.5t61 91t103 66t146 25.5q14 0 40 -1.5t56.5 -4.5t61 -8.5t54.5 -14.5q13 12 30 23q14 8 34 15.5t45 7.5
q35 0 50.5 -14t15.5 -34z" />
    <glyph glyph-name="U" unicode="U" horiz-adv-x="855" 
d="M891 189q0 -9 -2 -12q-26 -39 -53.5 -71.5t-55.5 -56t-55 -37t-52 -13.5q-23 0 -43 13t-35 41.5t-24.5 73t-12.5 108.5q-24 -39 -53.5 -84t-64 -83t-73.5 -63.5t-82 -25.5q-40 0 -68 15t-47 39.5t-30 56.5t-17 65.5t-7.5 66.5t-1.5 60q0 31 1.5 84t3 113t3.5 118t4 99
q-1 1 -3 2q-4 2 -8 2q-17 0 -38 -15.5t-43 -34t-42 -34.5t-34 -16q-9 2 -15 6q-5 4 -9.5 12t-4.5 23q0 7 4.5 17.5t20.5 22.5q11 9 31 23.5t44.5 31.5t52.5 34t54.5 31t50.5 23t41 9q29 0 45.5 -11t16.5 -34q0 -7 -1 -40t-2 -80.5t-2.5 -102.5t-2.5 -107.5t-2 -95.5t-1 -65
q0 -49 5.5 -83t15 -55t22.5 -30.5t29 -9.5q23 0 49.5 16.5t54 43.5t54 61t48.5 69q0 180 2.5 288.5t11.5 158.5q1 10 6 20q5 8 14 16t26 13q20 5 39.5 8.5t33.5 3.5q21 0 29.5 -13t8.5 -30q0 -8 -3.5 -43.5t-7.5 -88t-7.5 -118t-3.5 -132.5q0 -51 2 -99.5t8.5 -87t18 -61.5
t30.5 -23q18 0 44 24.5t61 81.5q2 2 5 2q7 0 11.5 -14t4.5 -26z" />
    <glyph glyph-name="V" unicode="V" horiz-adv-x="943" 
d="M978 187q0 -6 -2 -10q-31 -42 -63.5 -60t-66.5 -18q-38 0 -79 22q-19 -48 -46.5 -89t-64 -71t-82 -47.5t-100.5 -17.5q-60 0 -106 19.5t-80 54t-57 81t-37 100.5t-20 112.5t-6 116.5q0 52 4 102t10.5 94t15 81t17.5 63q-1 1 -2 1q-3 0 -14 -8.5t-26 -21.5t-32 -28
t-31.5 -28t-25.5 -21.5t-14 -8.5q-5 0 -14.5 13t-9.5 26q0 12 19 34.5t48 49t64.5 53.5t68.5 49t60 36t40 14q8 0 14 -2q5 -2 10 -5.5t5 -10.5q0 -2 -1 -5.5t-2 -6.5q-9 -25 -18.5 -66.5t-17 -94t-12.5 -113t-5 -121.5q0 -78 9.5 -153t33 -133.5t62 -94t97.5 -35.5
q60 0 104 39t70 97q-40 39 -75 90t-60.5 104t-40 102.5t-14.5 84.5q0 31 7 57.5t21.5 46t37.5 30.5t55 11q45 0 80 -27.5t58.5 -73.5t36 -106.5t12.5 -126.5q0 -45 -6 -90t-18 -89q19 -13 37.5 -20.5t37.5 -7.5q25 0 48.5 15.5t45.5 51.5l5 2q6 0 10.5 -15t4.5 -27zM734 358
q0 33 -5.5 61.5t-16 49.5t-27 33.5t-38.5 12.5q-14 0 -20 -11t-6 -29q0 -17 7.5 -42.5t21 -55t32 -61.5t40.5 -60q12 51 12 102z" />
    <glyph glyph-name="W" unicode="W" horiz-adv-x="1001" 
d="M1116 614q0 -4 -10 -18t-31 -30.5t-54 -31.5t-79 -19q3 -36 3 -74q0 -84 -15 -166.5t-46.5 -148t-80.5 -106t-117 -40.5q-71 0 -124.5 38.5t-91.5 99.5q-38 -61 -87 -99t-106 -38q-72 0 -120 38t-77 98.5t-41.5 136.5t-12.5 153q0 78 10.5 147.5t26.5 116.5q-1 1 -2 1
q-3 0 -14 -8.5t-26 -21.5t-32 -28t-31.5 -28t-25.5 -21.5t-14 -8.5q-5 0 -14.5 13t-9.5 26q0 12 18.5 34.5t48 49t65 53.5t68.5 49t60.5 36t39.5 14q8 0 14 -2q5 -2 10 -5.5t5 -10.5q0 -2 -1 -5.5t-2 -6.5q-10 -26 -19 -64t-16 -83.5t-11.5 -96t-4.5 -100.5q0 -62 8 -119
t26.5 -101.5t49.5 -71t77 -26.5q42 0 63 21t34 46q-22 57 -32.5 118.5t-10.5 118.5q0 45 7 84.5t20.5 69t34 46.5t47.5 17h1q22 0 38.5 -12t27 -34t15.5 -51.5t5 -64.5q0 -56 -12 -120t-35 -127q14 -22 31 -42.5t37 -36t42.5 -24.5t47.5 -9q46 0 79.5 31.5t55 81t31.5 109.5
t10 118v20.5t-1 19.5q-41 9 -75 33t-59 55.5t-38.5 66t-13.5 65.5q0 38 23.5 64t76.5 26q30 0 55 -19.5t44.5 -53t33.5 -79.5t22 -99q25 0 44.5 7.5t34.5 18t26.5 22t20.5 19.5q6 6 8.5 7.5t6.5 1.5q3 0 10 -3t13.5 -8.5t11.5 -13t5 -15.5zM857 592q-9 48 -26.5 78.5
t-40.5 30.5t-23 -19t24 -46t66 -44z" />
    <glyph glyph-name="X" unicode="X" horiz-adv-x="643" 
d="M818 735q0 -11 -4 -20t-16 -9q-13 0 -25 6.5t-27 15t-34.5 15t-46.5 6.5q-34 0 -66.5 -23t-64 -62t-61.5 -91t-60 -110q19 -62 38.5 -119.5t39 -102.5t39 -72t39.5 -27q27 0 47.5 25.5t42.5 59.5q2 2 5 2q7 0 11.5 -14t4.5 -26q0 -9 -2 -12q-22 -32 -48.5 -67t-53.5 -64
t-53.5 -48t-49.5 -19q-20 0 -39 24.5t-38 65.5t-38 94.5t-38 112.5q-30 -60 -59.5 -114t-59 -95.5t-59.5 -65.5t-60 -24q-35 0 -65.5 8.5t-53 23t-35 34.5t-12.5 43q0 12 3.5 27t10.5 27.5t17.5 21.5t24.5 9q10 0 22 -6.5t26 -25.5q42 -54 81 -54q26 0 50.5 21t48 57.5
t47.5 85t48 103.5q-21 64 -43 124t-45 107t-48 75.5t-52 28.5q-17 0 -37.5 -14t-41 -30.5t-40 -31t-33.5 -14.5q-9 2 -15 6q-5 4 -9.5 12t-4.5 23q0 7 4.5 17.5t20.5 22.5q11 9 31 23.5t44.5 31.5t52.5 34t54.5 31t50.5 23t41 9q22 0 42.5 -23t40.5 -61.5t39.5 -89.5
t37.5 -106q31 65 65.5 125t74 105.5t84.5 73t97 27.5q27 0 48 -11.5t35.5 -31.5t21.5 -46.5t7 -56.5z" />
    <glyph glyph-name="Y" unicode="Y" horiz-adv-x="828" 
d="M864 189q0 -9 -2 -12q-30 -48 -71 -80.5t-86 -54.5v-64q0 -45 -22.5 -83.5t-56.5 -66t-73 -43.5t-72 -16q-39 0 -79.5 21t-73.5 52.5t-54 68t-21 68.5q0 7 4 14.5t21 7.5q2 0 23.5 2.5t57.5 8.5t84.5 16t105.5 25q1 17 2 33.5t2 35.5q1 47 0.5 94.5t0.5 95.5
q-24 -35 -53 -72.5t-63.5 -69t-72.5 -52t-80 -20.5q-40 0 -67.5 15t-45 39.5t-27.5 56.5t-14.5 65.5t-5.5 66.5t-1 60q0 62 4.5 137.5t7.5 157.5q-1 1 -3 2q-4 2 -8 2q-17 0 -38 -15.5t-43 -34t-42 -34.5t-34 -16q-9 2 -15 6q-5 4 -9.5 12t-4.5 23q0 7 4.5 17.5t20.5 22.5
q11 9 31 23.5t44.5 31.5t52.5 34t54.5 31t50.5 23t41 9q29 0 45.5 -11t16.5 -34q0 -7 -1 -31.5t-2 -58t-2.5 -74t-2.5 -79t-2 -73t-1 -56.5q0 -105 22 -148t57 -43q21 0 45 13.5t49 36t48.5 51.5t44.5 60q1 64 2.5 124t3.5 109t4.5 84.5t5.5 52.5q1 10 6 20q5 8 14 16t26 13
q20 5 39.5 8.5t33.5 3.5q21 0 29.5 -13t8.5 -30q0 -8 -3.5 -50t-7 -102.5t-7 -132.5t-3.5 -139q0 -66 -0.5 -129t-1.5 -117q31 14 53 30t38 31.5t27 31.5t20 30q2 2 5 2q7 0 11.5 -14t4.5 -26zM546 -12q-29 -7 -53 -12.5t-41 -11.5q-26 -8 -40.5 -16.5t-14.5 -19.5
q0 -9 9 -26t23.5 -34t32.5 -29.5t36 -13.5q27 2 35 43t13 120z" />
    <glyph glyph-name="Z" unicode="Z" horiz-adv-x="799" 
d="M835 189q0 -9 -2 -12q-37 -51 -68 -88t-60.5 -60.5t-57.5 -34.5t-59 -11q-51 0 -114.5 28t-153.5 77q-21 -21 -48 -41t-57 -36t-62.5 -26t-65.5 -10q-60 0 -88.5 16t-28.5 39q0 22 22.5 47t64.5 47.5t102.5 39.5t135.5 22q33 22 59 61t49 89q-11 -2 -19.5 -2t-14.5 -1
q-7 -1 -13 -1q-5 0 -5 9v12.5t1 15.5l2 18q1 1 1.5 5.5t9.5 8.5q3 2 23 4.5t48 7.5q26 66 53 135t60 127q-27 5 -57.5 8.5t-67.5 3.5q-58 0 -101.5 -9t-72 -23t-43 -30t-14.5 -29t12.5 -21t37.5 -8q29 0 51 -1t37 -7t22.5 -19t7.5 -36q0 -9 -2.5 -20t-10 -21t-20.5 -16.5
t-34 -6.5q-48 0 -85 12.5t-62 34t-37.5 49t-12.5 57.5q0 37 19.5 74t59.5 67t101 48.5t144 18.5q13 0 38 -1.5t54 -4.5t59 -8t54 -13q25 20 53.5 32t62.5 12q35 0 53.5 -21t18.5 -48q0 -17 -7.5 -33.5t-24 -29.5t-41.5 -21.5t-60 -8.5h-12q-35 -40 -62.5 -99.5t-59.5 -128.5
l45 7q5 0 8.5 -2.5t3.5 -10.5t-1 -15.5t-2 -13.5l-2 -14q0 -3 -3 -7q-2 -3 -7 -7t-13 -6q-7 -2 -26 -5t-44 -6q-23 -42 -50.5 -84t-62.5 -82q46 -7 86.5 -17.5t75.5 -21t65.5 -18t57.5 -7.5q22 0 41.5 10.5t37 26.5t32 35t25.5 37q2 2 5 2q7 0 11.5 -14t4.5 -26z" />
    <glyph glyph-name="bracketleft" unicode="[" horiz-adv-x="500" 
d="M406 -55q0 -20 -9 -36t-22 -16h-196q-2 0 -3.5 0.5t-3.5 0.5q-8 1 -10 15v1034q0 13 16 22t36 9l2 -1h175q15 0 15 -11q0 -20 -9 -36t-22 -16h-129v-954h145q15 0 15 -11z" />
    <glyph glyph-name="backslash" unicode="\" horiz-adv-x="707" 
d="M662 -59q0 -12 -12.5 -24t-23.5 -12q-8 0 -17 11q-4 4 -8 11l-584 991q-5 10 -5 15q0 12 13 24.5t24 12.5q4 0 8 -3.5t8 -8.5t8 -11l584 -990q5 -10 5 -16z" />
    <glyph glyph-name="bracketright" unicode="]" horiz-adv-x="423" 
d="M311 -75q0 -13 -16 -22t-36 -9l-2 1h-175q-15 0 -15 11q0 20 9 36t22 16h129v954h-145q-15 0 -15 11q0 20 9 36t22 16h196q2 0 3.5 -0.5t3.5 -0.5q8 -1 10 -15v-1034z" />
    <glyph glyph-name="underscore" unicode="_" horiz-adv-x="601" 
d="M529 -40q0 -20 -5.5 -36t-12.5 -16h-449q-9 1 -9 12q0 20 5.5 36t12.5 16l449 -1q9 0 9 -11z" />
    <glyph glyph-name="grave" unicode="`" horiz-adv-x="500" 
d="M286 535q0 -7 -3.5 -9t-8.5 -2q-2 0 -22 16t-50 41t-65 55t-64.5 57t-50 48t-21.5 28q0 14 12.5 17t33.5 3q35 0 55.5 -0.5t32.5 -2t17.5 -4.5t10.5 -9q34 -61 61 -111q12 -21 23 -42t19.5 -38.5t14 -30t5.5 -16.5z" />
    <glyph glyph-name="a" unicode="a" horiz-adv-x="567" 
d="M603 189q0 -9 -2 -12q-41 -53 -80 -94q-17 -18 -34.5 -34.5t-34 -30t-32 -21.5t-27.5 -8q-34 0 -52.5 31.5t-26.5 74.5q-2 -3 -20.5 -21t-45 -38.5t-55.5 -36.5t-51 -16q-29 0 -53.5 15t-42.5 40t-28 58.5t-10 71.5q0 53 22.5 108t73 100t132.5 74t201 29q3 -1 6 -3
q2 -2 4.5 -5.5t2.5 -10.5v-275q0 -8 0.5 -17.5t3.5 -18t8.5 -14t15.5 -5.5q17 -1 36 14.5t34 33.5q9 11 17.5 23.5t16.5 25.5q2 2 5 2q7 0 11.5 -14t4.5 -26zM310 410q-44 -9 -74 -30t-49 -48t-27 -58t-8 -61q0 -24 5 -46t13.5 -38.5t20.5 -26.5t26 -10q12 0 27 10t29 22
q16 14 32 32q3 4 3.5 7.5t0.5 5.5v136q0 48 1 105z" />
    <glyph glyph-name="b" unicode="b" horiz-adv-x="439" 
d="M475 189q0 -9 -2 -12q-23 -35 -48 -51t-48 -16h-10.5t-10.5 2q-12 -32 -30.5 -56.5t-40.5 -41t-47 -25.5t-50 -9q-33 0 -64 15.5t-55 48t-39 83t-15 120.5q0 75 3 173t3 239q0 20 11.5 43.5t30.5 46t41.5 43.5t45.5 37.5t42.5 26t31.5 9.5q21 0 37 -13t27 -32.5
t16.5 -42.5t5.5 -42q0 -48 -16.5 -107.5t-41 -118.5t-52 -111.5t-49.5 -86.5l-4 -10t-3 -11t-1 -13q0 -21 1.5 -55t10 -67t27 -57t51.5 -24q13 0 25.5 7.5t23 18.5t18.5 22t11 19q-26 27 -42 71.5t-16 95.5q0 79 38 79q23 0 39 -16t26 -41t14.5 -54t4.5 -56q0 -34 -6 -62h8
q12 0 26 8t26 24q7 9 13.5 18t11.5 19q2 2 5 2q7 0 11.5 -14t4.5 -26zM224 677q0 31 -11 55t-25 24t-22.5 -19t-12.5 -49t-5.5 -67t-1.5 -74.5v-71t-2 -55.5q2 0 5 3l2 2q12 19 25 52t23.5 70t17.5 72t7 58z" />
    <glyph glyph-name="c" unicode="c" horiz-adv-x="435" 
d="M471 189q0 -9 -2 -12q-30 -47 -65 -82t-71.5 -58.5t-74 -35.5t-71.5 -12q-36 0 -67.5 13t-54.5 40t-36.5 67.5t-13.5 94.5q0 53 15 106.5t43.5 96t70 69.5t94.5 27q41 0 69.5 -8.5t46.5 -21.5t26 -29t8 -32q0 -24 -15.5 -42.5t-41.5 -18.5q-27 0 -41 13t-23 28t-18 28
t-25 13q-15 0 -28 -13.5t-22 -36t-14 -51t-5 -58.5q0 -45 9.5 -76.5t25 -52t37 -29.5t45.5 -9t49 8.5t49 24.5t44.5 38t35.5 49q2 2 5 2q7 0 11.5 -14t4.5 -26z" />
    <glyph glyph-name="d" unicode="d" horiz-adv-x="575" 
d="M611 189q0 -9 -2 -12q-38 -52 -74 -92q-15 -17 -31.5 -33.5t-32.5 -29.5t-31 -21t-27 -8q-20 0 -34 10.5t-24.5 28t-16.5 40.5t-9 49q-4 -3 -24 -25t-47 -47.5t-56 -46.5t-50 -21q-35 0 -61.5 16.5t-44 44t-26.5 63.5t-9 76q0 52 15.5 106t46.5 98t77.5 71.5t108.5 27.5
h6t9.5 -0.5t17 -1.5t27.5 -3q-1 48 -2 95q-1 40 -1 83.5v75.5q0 3 2 9.5t9.5 12.5t22 11t38.5 5h29q26 0 39 -2.5t12 -13.5q-7 -100 -10 -200t-3 -185q0 -60 0.5 -107t2.5 -79q1 -17 8 -32t27 -16q13 0 26 7.5t25 20.5t23.5 29.5t22.5 33.5q2 2 5 2q7 0 11.5 -14t4.5 -26z
M319 406q-8 6 -21.5 9.5t-17.5 3.5q-32 0 -55.5 -17.5t-39 -45.5t-23 -61.5t-7.5 -66.5q0 -46 14.5 -79.5t42.5 -33.5q11 0 26.5 10t30 22.5t27 24.5t17.5 17q1 2 3 5q1 2 2 6t1 10v196z" />
    <glyph glyph-name="e" unicode="e" horiz-adv-x="411" 
d="M447 189q0 -9 -2 -12q-20 -32 -48 -66t-60.5 -61.5t-67.5 -45t-68 -17.5q-41 0 -75.5 20t-59.5 54t-38.5 77.5t-13.5 91.5q0 57 15.5 114.5t47 103.5t79 74.5t111.5 28.5q44 0 69.5 -26.5t25.5 -71.5q0 -24 -15 -52t-42 -57t-64.5 -59t-83.5 -58q14 -46 42 -77.5
t73 -31.5q34 0 60.5 14.5t45.5 33t31 36.5t17 25q2 2 5 2q7 0 11.5 -14t4.5 -26zM265 441q0 23 -10.5 28t-14.5 5q-23 0 -40.5 -13.5t-29.5 -36t-18 -52t-6 -60.5v-15t1 -14q16 9 36.5 28t38.5 42t30.5 46.5t12.5 41.5z" />
    <glyph glyph-name="f" unicode="f" horiz-adv-x="338" 
d="M376 197q0 -6 -1 -8q-6 -20 -26 -43t-46.5 -42.5t-56.5 -32t-55 -12.5q-23 0 -38 11q-2 0 -3.5 -2t-1.5 -11q0 -2 2 -19.5t4.5 -43.5t5.5 -57t5.5 -60t4 -51t1.5 -30q0 -14 -4 -17.5t-11 -4.5q-28 0 -51 1q-20 0 -37 0.5t-22 0.5t-13.5 5t-8.5 22q-2 124 -6 295.5
t-4 378.5v97.5t1 100.5q0 20 12 43.5t30.5 46t41.5 43.5t45.5 37.5t42 26t31.5 9.5q21 0 38 -16.5t29 -42.5t18.5 -57.5t6.5 -62.5q0 -50 -10 -107t-29 -115t-48 -114t-66 -102l-6 -10q-2 -5 -4 -9.5t-2 -8.5q1 -19 4 -36.5t12 -31t24.5 -21.5t41.5 -8q15 0 34 8t37 20.5
t33 28t23 31.5q2 2 5 2q6 0 11.5 -10.5t5.5 -21.5zM238 657q0 52 -12 85t-34 33q-17 0 -27.5 -15.5t-16.5 -40.5t-8.5 -55t-3 -59.5t-0.5 -54.5v-39q0 -17 0.5 -44.5t1.5 -53.5t2 -45l1 -19q2 -2 3 -2q2 0 4 3q1 1 1 3q23 35 39.5 74.5t27.5 79.5t16.5 78.5t5.5 71.5z" />
    <glyph glyph-name="g" unicode="g" horiz-adv-x="548" 
d="M584 189q0 -9 -2 -12l-36 -46q-16 -20 -36.5 -43.5t-41.5 -43.5q1 -7 2 -17t1 -24q0 -45 -12.5 -90t-38.5 -81t-66.5 -58.5t-95.5 -22.5q-21 0 -44 12.5t-42.5 31.5t-32.5 41t-13 41q0 8 3.5 16t14.5 15q9 6 31.5 19.5l50 30t55.5 32.5l49 28q-1 15 -1.5 28t-0.5 23
q-1 11 -1 22q-3 -2 -21.5 -18.5t-44.5 -35.5t-56 -34t-55 -15q-35 0 -61 17t-43.5 45.5t-26.5 65.5t-9 77q0 50 14 100t42.5 90.5t71 65.5t100.5 25q38 0 88 -12t124 -36q3 -2 6 -6q2 -4 4.5 -9.5t2.5 -14.5v-21.5t0.5 -40.5t0.5 -53.5t0.5 -59.5t1 -59t0.5 -52q29 28 56 62
t41 55q2 2 5 2q7 0 11.5 -14t4.5 -26zM315 382q-2 9 -8 14.5t-12.5 8t-13.5 3t-11 0.5q-31 0 -52.5 -14t-35 -37t-19.5 -52.5t-6 -59.5t5 -58t13.5 -49.5t20 -35t25.5 -13.5q18 0 35.5 8.5t31.5 22t23 28.5t11 29zM334 -117q0 8 -0.5 30t-1.5 48q-6 -3 -17.5 -10t-24 -14.5
t-23 -15t-13.5 -11.5q-1 -1 -2 -4q-2 -6 -2 -13q0 -5 4 -18t11.5 -26.5t17 -24.5t21.5 -11t21 18t9 52z" />
    <glyph glyph-name="h" unicode="h" horiz-adv-x="539" 
d="M575 189q0 -9 -2 -12q-22 -32 -48.5 -65.5t-54 -60.5t-54 -44.5t-49.5 -17.5q-16 0 -29.5 10t-23.5 33t-15.5 60t-5.5 91q0 25 -1 54.5t-3.5 55.5t-7.5 43.5t-13 17.5q-17 0 -36.5 -18t-36 -43.5t-27 -52.5t-10.5 -45q0 -6 0.5 -15t1 -28.5t2.5 -53.5t5 -89q0 -7 -2 -12
q-4 -11 -12 -11h-76q-19 0 -38 1q-5 -1 -9 2q-3 2 -6 6t-3 12q-2 32 -4 69q-2 31 -2.5 71t-0.5 82q0 22 0.5 75t1 119.5t1.5 138t1.5 131.5t1 99.5t1.5 41.5q2 6 6 11.5t16 8.5q6 1 20 3.5t29.5 5.5t29.5 4.5t19 1.5q19 0 19 -17q0 -4 -0.5 -27t-1 -58t-1 -78.5t-1 -89.5
t-1 -90t-1 -80t-0.5 -61v-31q0 -12 1 -15q10 21 35 48.5t56.5 52t66 42t62.5 17.5t45.5 -21.5t17.5 -72.5q0 -13 -0.5 -44t-0.5 -63q-1 -38 -1 -81q0 -17 7 -32t27 -16q27 -1 44.5 20t39.5 55q2 2 5 2q7 0 11.5 -14t4.5 -26z" />
    <glyph glyph-name="i" unicode="i" horiz-adv-x="262" 
d="M185 668q0 -33 -23.5 -56t-55.5 -23q-33 0 -56 23t-23 56q0 32 23 55.5t56 23.5q32 0 55.5 -23.5t23.5 -55.5zM298 189q0 -9 -2 -12q-38 -52 -74 -92q-15 -17 -31.5 -33.5t-32.5 -29.5t-31 -21t-27 -8q-26 0 -42.5 16t-26 42.5t-13.5 61t-4 70.5q0 30 0.5 66t1 69.5t1 61
t0.5 40.5q0 11 2.5 18t5.5 11q4 4 8 6q11 5 27.5 9t32 7t28 4.5t15.5 1.5q11 0 15 -6t4 -14v-28.5t-0.5 -48t-1 -78t-0.5 -117.5q0 -17 3.5 -32.5t23.5 -16.5q13 0 26 7.5t25 20.5t23.5 29.5t22.5 33.5q2 2 5 2q7 0 11.5 -14t4.5 -26z" />
    <glyph glyph-name="j" unicode="j" horiz-adv-x="226" 
d="M164 668q0 -33 -23.5 -56t-55.5 -23q-33 0 -56 23t-23 56q0 32 23 55.5t56 23.5q32 0 55.5 -23.5t23.5 -55.5zM262 189q0 -9 -2 -12q-17 -22 -35 -45q-16 -20 -36 -43.5t-41 -43.5q-1 -26 -1 -47.5v-37.5q0 -18 -1 -33q0 -23 -18.5 -51.5t-46 -54t-59.5 -42.5t-59 -17
q-25 0 -51 12.5t-47.5 30t-35 37t-13.5 34.5q0 8 8 17.5t32 20.5q14 7 34 17.5t41.5 23.5t43.5 26t40 24q0 48 -0.5 104.5t-1.5 114t-1.5 113.5t-1.5 103q1 8 5 15q4 6 10.5 11t20.5 5t31 -1t31 -3q17 -2 34 -3q3 0 6 -3q2 -2 4 -6.5t2 -13.5q0 -11 -0.5 -44t-1.5 -79
t-1.5 -99t-1.5 -104q28 28 53.5 60t38.5 52q2 2 5 2q7 0 11.5 -14t4.5 -26zM18 -155q-1 4 -1 31t-1 70q-21 -14 -38 -25q-14 -11 -25.5 -21t-11.5 -18q0 -11 5.5 -23.5t14 -22.5t17 -16.5t14.5 -6.5q13 0 18 10t8 22z" />
    <glyph glyph-name="k" unicode="k" horiz-adv-x="474" 
d="M510 189q0 -9 -2 -12q-22 -32 -47 -65t-50.5 -60t-51 -44t-48.5 -17q-21 0 -32.5 19t-19 48t-14 62.5t-16.5 62.5t-26 48t-43 19q-4 0 -8 -0.5t-9 -1.5q-2 -45 -2.5 -103.5t-0.5 -121.5q0 -7 -2 -12q-4 -11 -12 -11h-66q-15 0 -28 1q-4 -1 -8 2q-3 2 -6 6t-4 12
q1 44 1 88.5v90.5v189.5t-0.5 175.5t-0.5 146.5v101.5q0 14 22 20q6 1 20 3.5t29.5 5.5t29.5 4.5t19 1.5q19 0 19 -17q0 -6 -0.5 -42t-1.5 -88t-1.5 -112.5t-1 -113.5t-1 -91.5t-0.5 -46.5q-1 -1 -1 -2v-2q18 5 40 5q45 0 75 -12q6 7 14 18t15.5 25t13 30.5t5.5 34.5
q0 24 -1.5 40.5t-1.5 27.5q0 28 20 44t43 16t41.5 -17.5t18.5 -58.5q0 -24 -13 -53t-31.5 -57t-39 -50.5t-35.5 -33.5q18 -22 26 -48t14 -48.5t16 -38t33 -15.5q27 0 47.5 25.5t42.5 59.5q2 2 5 2q7 0 11.5 -14t4.5 -26z" />
    <glyph glyph-name="l" unicode="l" horiz-adv-x="305" 
d="M341 189q0 -9 -2 -12q-38 -52 -74 -92q-15 -17 -31.5 -33.5t-32.5 -29.5t-31 -21t-27 -8q-27 0 -50 13.5t-40 37.5t-27 57.5t-11 74.5v29.5t-0.5 49t-0.5 64v74.5v78.5t0.5 76.5t1 69.5t0.5 57.5q1 30 26 66t59 67t68 52t52 21q21 0 35.5 -18t24 -43.5t14 -53t4.5 -46.5
q0 -30 -3.5 -70.5t-17.5 -92t-43.5 -114.5t-81.5 -138q0 -58 3 -95.5t9 -59t15 -30t21 -8.5q13 0 29.5 11.5t32.5 29t31 37.5t26 37q2 2 5 2q7 0 11.5 -14t4.5 -26zM218 676q0 49 -14.5 75.5t-28.5 26.5t-21 -14.5t-11 -32.5t-4.5 -34t-0.5 -19v-162q0 -55 1 -118q0 -3 1 -4
q0 -1 1 -1t3 2q1 1 2 3q12 15 24.5 51.5t23 79t17.5 83.5t7 64z" />
    <glyph glyph-name="m" unicode="m" horiz-adv-x="819" 
d="M855 189q0 -9 -2 -12q-22 -32 -48.5 -65.5t-54 -60.5t-54 -44.5t-49.5 -17.5q-16 0 -29.5 10t-23.5 33t-15.5 60t-5.5 91q0 25 -0.5 56t-3 58.5t-7 46.5t-12.5 19q-17 0 -37 -19.5t-36.5 -46.5t-27.5 -55.5t-11 -46.5v-16.5t0.5 -31.5t1 -54t1.5 -84q0 -7 -2 -12
q-4 -11 -12 -11h-73q-18 0 -35 1q-5 -1 -9 2q-3 2 -6 6t-3 12q-2 32 -4 69q-2 31 -2.5 71t-0.5 82q0 25 -1 47.5t-4 39.5t-8 27.5t-13 10.5q-17 0 -36.5 -18t-36 -43.5t-27 -52.5t-10.5 -45q0 -6 0.5 -15t1 -28.5t2.5 -53.5t5 -89q0 -7 -2 -12q-4 -11 -12 -11h-76
q-19 0 -38 1q-5 -1 -9 2q-3 2 -6 6t-3 12q-2 32 -4 69q-2 31 -2.5 71t-0.5 82q0 33 1 69t2 66t2 51t2 24q2 6 7.5 12t17.5 9q6 1 20 3.5t29.5 5.5t29.5 4.5t19 1.5q19 0 19 -17q0 -8 -2.5 -23t-4.5 -32l-4 -34t-2 -30q0 -12 1 -15q47 78 97.5 117.5t92.5 39.5q41 0 67.5 -39
t26.5 -120q15 33 39 64t51.5 55t56.5 38.5t54 14.5q30 0 51 -25t23 -84q3 -78 5.5 -124t7 -70t11 -31.5t16.5 -7.5q27 -1 44.5 20t39.5 55q2 2 5 2q7 0 11.5 -14t4.5 -26z" />
    <glyph glyph-name="n" unicode="n" horiz-adv-x="539" 
d="M575 189q0 -9 -2 -12q-22 -32 -48.5 -65.5t-54 -60.5t-54 -44.5t-49.5 -17.5q-16 0 -29.5 10t-23.5 33t-15.5 60t-5.5 91q0 25 -1 54.5t-3.5 55.5t-7.5 43.5t-13 17.5q-17 0 -36.5 -18t-36 -43.5t-27 -52.5t-10.5 -45q0 -6 0.5 -15t1 -28.5t2.5 -53.5t5 -89q0 -7 -2 -12
q-4 -11 -12 -11h-76q-19 0 -38 1q-5 -1 -9 2q-3 2 -6 6t-3 12q-2 32 -4 69q-2 31 -2.5 71t-0.5 82q0 33 1 68.5t2 65.5t2 50.5t2 23.5q2 6 6 11.5t16 8.5q6 1 20 3.5t29.5 5.5t29.5 4.5t19 1.5q19 0 19 -17q0 -8 -1 -23t-2 -31.5t-2 -33.5t-1 -30q0 -12 1 -15q10 21 35 48.5
t56.5 52t66 42t62.5 17.5t45.5 -21.5t17.5 -72.5q0 -6 -0.5 -36t-0.5 -64q-1 -40 -1 -88q0 -17 7 -32t27 -16q27 -1 44.5 20t39.5 55q2 2 5 2q7 0 11.5 -14t4.5 -26z" />
    <glyph glyph-name="o" unicode="o" horiz-adv-x="538" 
d="M574 189q0 -9 -2 -12q-29 -43 -59.5 -61t-60.5 -18q-16 0 -31 3q-29 -48 -77 -80t-117 -32q-54 0 -94 20t-66 53t-38.5 75t-12.5 87q0 48 14 94t40.5 82t65.5 58.5t90 22.5q34 0 48.5 -14t14.5 -28q0 -11 -6.5 -18.5t-18.5 -7.5q-27 0 -47.5 -12.5t-34.5 -32.5t-21 -46
t-7 -54q0 -30 8.5 -59t25.5 -52.5t42.5 -37.5t60.5 -14q20 0 36.5 7t28.5 19q-23 17 -41.5 40t-31 49.5t-19 53.5t-6.5 51q0 38 17.5 64t55.5 26q33 0 57.5 -13.5t41 -36t24.5 -53t8 -63.5q0 -51 -19 -103h8q20 0 39.5 10.5t37.5 33.5q7 9 13.5 18t11.5 19q2 2 5 2
q7 0 11.5 -14t4.5 -26zM393 236q0 20 -4 39t-12 33.5t-19 23.5t-26 9q-23 0 -23 -28q0 -36 20.5 -75t52.5 -65q11 31 11 63z" />
    <glyph glyph-name="p" unicode="p" horiz-adv-x="539" 
d="M575 189q0 -9 -2 -12q-22 -32 -48.5 -65.5t-54 -60.5t-54 -44.5t-49.5 -17.5q-16 0 -29.5 10t-23.5 33t-15.5 60t-5.5 91q0 25 -1 54.5t-3.5 55.5t-7.5 43.5t-13 17.5q-17 0 -36.5 -18t-36 -43.5t-27 -52.5t-10.5 -45v-46.5t-0.5 -99t-1.5 -125.5t-2 -125q0 -7 -2 -12
q-4 -11 -12 -11h-76q-19 0 -38 1q-4 -1 -8 2q-3 2 -6 6t-4 12q4 20 6 54t3.5 71.5t2 73.5t0.5 61q-1 96 -1 165.5v120.5v83.5t0.5 55t1.5 34.5t2 23q1 6 5.5 11.5t16.5 8.5q6 1 19.5 2t29 1.5t29 0.5h18.5q9 0 15.5 -7t6.5 -16q0 -8 -1.5 -36t-3 -61t-3 -63t-1.5 -43
q0 -12 1 -15q10 21 35 48.5t56.5 52t66 42t62.5 17.5t45.5 -21.5t17.5 -72.5q0 -17 -0.5 -48.5t-0.5 -62.5q-1 -36 -1 -77q0 -17 7 -32t27 -16q27 -1 44.5 20t39.5 55q2 2 5 2q7 0 11.5 -14t4.5 -26z" />
    <glyph glyph-name="q" unicode="q" horiz-adv-x="517" 
d="M553 189q0 -9 -2 -12q-29 -44 -57.5 -66t-55.5 -27q0 -25 -0.5 -51.5t-1.5 -52.5q4 2 6 2h3q2 0 4 1q2 0 3.5 0.5t3.5 0.5q5 0 8.5 -2.5t3.5 -10.5t-0.5 -17t-1.5 -17q-1 -10 -2 -18q0 -3 -3 -7q-6 -8 -20 -13l-6 -2q-1 -32 -1.5 -62t-1.5 -56q0 -7 -2 -12
q-4 -11 -12 -11h-76q-19 0 -38 1q-4 -1 -8 2q-3 2 -6 6t-4 12l3 21q2 10 4.5 24.5t5.5 31.5l-21 -7q-5 0 -5 9v14t1 18q0 11 1 23q1 1 1.5 5.5t9.5 8.5q2 1 9 3.5t17 6.5q4 21 7 43t7 44q-25 -16 -55 -24.5t-65 -8.5q-49 0 -85 18.5t-59 49.5t-34.5 71.5t-11.5 83.5
q0 49 14 97t41 86t66.5 62t90.5 24q34 0 48.5 -14t14.5 -28q0 -11 -6.5 -18.5t-18.5 -7.5q-31 0 -53.5 -12.5t-37.5 -33t-22 -47t-7 -54.5q0 -30 8 -58.5t23.5 -51.5t39 -37t53.5 -14q35 0 59 21q-17 18 -30 40t-22.5 46t-14.5 48.5t-5 47.5q0 39 17 65t55 26q33 0 54.5 -11
t34.5 -30.5t18 -47.5t5 -61v-20.5t-0.5 -21t-1 -26.5t-0.5 -36q32 9 68 45q8 8 14 17.5t11 19.5q2 2 5 2q7 0 11.5 -14t4.5 -26zM355 273q0 23 -8.5 39.5t-17.5 16.5q-6 0 -10.5 -9.5t-4.5 -30.5q0 -25 8.5 -54t25.5 -52q3 29 5 52t2 38z" />
    <glyph glyph-name="r" unicode="r" horiz-adv-x="421" 
d="M457 189q0 -9 -2 -12q-38 -52 -74 -92q-15 -17 -31.5 -33.5t-32.5 -29.5t-31 -21t-27 -8q-26 0 -42.5 16t-26 42.5t-13.5 61t-4 70.5q0 30 2 60t4.5 56.5t5.5 48t5 34.5q2 18 3 26q1 5 1 9q-11 1 -20 3q-8 2 -14.5 3t-7.5 3q-23 -59 -46 -111q-10 -22 -20.5 -44.5
t-21.5 -43t-21.5 -37t-19.5 -26.5q0 -1 -1 -1h-4q-5 0 -7 3q-2 2 -3.5 8t-3.5 13q-2 8 -4 17q13 18 30.5 50t34.5 66.5t30.5 67t19.5 53.5q-44 20 -62.5 48t-18.5 56q0 31 19.5 53.5t49.5 22.5q26 0 37 -16t11 -36q0 -18 -7.5 -35t-20.5 -27q26 -27 57.5 -34.5t62.5 -7.5
q15 0 33 0.5t24 0.5q11 0 16 -1.5t5 -9.5q0 -11 -2.5 -28.5t-5.5 -48t-6 -77.5t-3 -117q0 -17 7.5 -32t27.5 -16q13 0 26 7.5t25 20.5t23.5 29.5t22.5 33.5q2 2 5 2q7 0 11.5 -14t4.5 -26z" />
    <glyph glyph-name="s" unicode="s" horiz-adv-x="407" 
d="M443 189q0 -9 -2 -12q-44 -57 -87.5 -95.5t-84 -62t-77 -33t-67.5 -9.5q-28 0 -51 6.5t-39 17t-25 23.5t-9 26q0 15 7.5 28.5t18 24t21.5 16.5t19 6q5 0 9 -1.5t7 -3.5q4 -2 6 -4q9 -7 20 -17.5t24 -20t27 -16.5t29 -7q16 0 28 6t12 36q-9 30 -24.5 55.5t-34 48.5
t-38.5 44.5t-38 43.5q-17 -38 -36 -73t-35 -52q0 -1 -1 -1h-4q-5 0 -7 3q-2 2 -3.5 8t-3.5 13q-2 8 -4 17q14 19 32 52t35 69q-17 25 -27 53t-10 62q0 41 15 70.5t38.5 48.5t51 28t52.5 9q35 0 53 -17t18 -40q0 -29 -29 -56t-88 -31q3 -14 9 -26h2q-1 -1 -1 -2
q17 -31 48 -56t61.5 -54t53 -67t22.5 -95v-12t-1 -7q29 15 49.5 41t37.5 53q2 2 5 2q7 0 11.5 -14t4.5 -26z" />
    <glyph glyph-name="t" unicode="t" horiz-adv-x="312" 
d="M348 189q0 -9 -2 -12q-23 -34 -52 -68t-61 -61t-64 -43.5t-60 -16.5q-20 0 -37.5 10t-30.5 33.5t-20 60.5t-7 91q0 28 0.5 80.5t2.5 114.5q-3 -2 -5 -2t-4 -1t-3 -1q-5 0 -5 9v14t1 18q0 11 1 23q1 1 1.5 5.5t9.5 8.5q2 0 8 3q2 47 5 92t6.5 80.5t8.5 58.5t11 28
q11 5 27.5 11t32 11.5t28 9t15.5 3.5q11 0 15 -6t4 -14q0 -1 -1 -19.5t-3 -49t-4.5 -70.5t-4.5 -85q24 8 46.5 16t39.5 14q20 7 39 14q2 0 4 1q2 0 3.5 0.5t3.5 0.5q5 0 8.5 -2.5t3.5 -10.5t-0.5 -17t-1.5 -17q-1 -10 -2 -18q0 -3 -3 -7q-2 -3 -7 -7t-13 -6l-125 -41
q-3 -65 -4.5 -126.5t-1.5 -108.5q0 -31 14 -46.5t37 -15.5q28 0 62 24t63 75q1 2 3 2q8 0 13 -14t5 -26z" />
    <glyph glyph-name="u" unicode="u" horiz-adv-x="541" 
d="M577 189q0 -9 -2 -12q-38 -52 -74 -92q-15 -17 -31.5 -33.5t-32.5 -29.5t-31 -21t-27 -8q-37 0 -55 31t-25 78q-3 -5 -18.5 -25t-38 -42.5t-48.5 -40t-51 -17.5q-35 0 -60 21t-41 55.5t-22.5 78.5t-4.5 91q1 50 3 92q2 36 3 70t3 47q2 15 9 19.5t13 4.5q2 0 18 -2t35 -5
t36.5 -6t22.5 -6q11 -4 10 -21q0 -13 -2.5 -33t-4.5 -43.5t-4 -49.5t-2 -51q0 -26 2.5 -49.5t9 -41.5t17 -28.5t26.5 -10.5q9 0 23 8.5t27.5 20.5t23 25.5t9.5 23.5v16.5t0.5 30t0.5 39v42.5v112q1 8 5 15q4 6 10.5 11t20.5 5t31 -1t31 -3q17 -2 34 -3q3 0 6 -3q2 -2 4 -6.5
t2 -13.5q0 -3 -0.5 -14t-1.5 -27.5t-1.5 -37t-1.5 -41.5q-2 -49 -4 -111q0 -9 1 -19.5t4.5 -19.5t9.5 -15.5t15 -6.5q13 0 26 7.5t25 20.5t23.5 29.5t22.5 33.5q2 2 5 2q7 0 11.5 -14t4.5 -26z" />
    <glyph glyph-name="v" unicode="v" horiz-adv-x="485" 
d="M521 189q0 -9 -2 -12q-23 -35 -48 -51t-48 -16q-27 0 -55 18q-13 -28 -30.5 -52t-39 -42t-46.5 -29t-53 -12q-29 -1 -61 9t-58.5 30t-44 50.5t-17.5 70.5q-1 80 -2 146q0 28 -0.5 55.5t-1 50t-0.5 38.5v21q0 7 3 12q2 5 7.5 8.5t16.5 3.5q9 0 27 -1t37 -4.5t33 -12
t14 -23.5q0 -19 -1.5 -47t-1.5 -79q0 -45 1.5 -84t10 -68.5t26.5 -46t51 -16.5q26 0 47.5 21.5t34.5 42.5q-32 38 -55 102.5t-23 158.5q0 30 5 48t12.5 27.5t15 13t13.5 3.5q18 0 38 -18t37.5 -50t28.5 -75t11 -92q0 -55 -15 -106q10 -9 20.5 -14.5t21.5 -5.5q24 0 45 28
q7 9 13.5 18t11.5 19q2 2 5 2q7 0 11.5 -14t4.5 -26z" />
    <glyph glyph-name="w" unicode="w" horiz-adv-x="699" 
d="M736 189q0 -9 -2 -12q-22 -33 -45.5 -48t-47.5 -15q-22 0 -45 13q-21 -57 -57 -93.5t-87 -36.5q-38 0 -61.5 15.5t-39 33.5t-25 33.5t-17.5 15.5q-6 0 -8 -5q-3 -5 -15 -20.5t-31.5 -32.5t-44.5 -30t-54 -13q-50 0 -78 27t-42.5 66t-18 82.5t-3.5 77.5q0 66 5 114.5
t6 70.5q-1 9 3 16q2 6 8 11t17 5q21 0 37.5 0.5t29.5 0.5q20 0 30 -3.5t10 -15.5q0 -9 -1.5 -29t-3 -46t-3 -55t-1.5 -57q0 -71 15 -101t40 -30q8 0 20 5t23.5 12.5t21 16.5t13.5 18q-5 13 -9 30q-4 14 -6.5 33.5t-1.5 44.5q1 22 4.5 42.5t11 36.5t19 26t26.5 10
q14 0 25.5 -9t19.5 -23.5t12.5 -32t4.5 -33.5t-2.5 -35.5t-6.5 -37t-7.5 -30t-6.5 -15.5q23 -34 44 -47.5t41 -13.5q25 0 46.5 16.5t37.5 39.5q-34 47 -55 115t-21 143q0 33 12.5 54.5t42.5 21.5q27 0 48 -18t34.5 -48t20.5 -69t7 -82q0 -29 -3 -58t-9 -57q9 -8 18.5 -13.5
t19.5 -5.5q21 0 39 25q7 9 13.5 18t11.5 19q2 2 5 2q7 0 11.5 -14t4.5 -26z" />
    <glyph glyph-name="x" unicode="x" horiz-adv-x="528" 
d="M564 189q0 -9 -2 -12q-22 -32 -47 -65t-50.5 -60t-51 -44t-48.5 -17q-12 0 -24 11.5t-24 31.5t-24 46.5t-24 56.5q-16 -31 -33 -58t-36 -47t-40.5 -31.5t-45.5 -11.5q-34 0 -59 12t-41 32t-24 45.5t-8 52.5q0 28 8 54.5t24 47.5t38.5 34t52.5 13q42 0 58.5 -16.5
t16.5 -36.5q0 -12 -4.5 -24t-12.5 -21t-18.5 -15t-22.5 -6q-10 0 -20.5 5t-20.5 17q-18 -14 -18 -37q0 -13 5 -26t14 -23.5t21 -17.5t26 -7q38 0 66.5 33.5t52.5 84.5q-15 38 -31 74.5t-32 65.5t-32.5 46.5t-34.5 17.5q-16 -19 -31.5 -27t-29.5 -8q-25 0 -41.5 20.5
t-16.5 46.5q0 15 6.5 29t20.5 25.5t36.5 18.5t54.5 7t59.5 -13.5t51.5 -36.5t45 -52.5t39 -60.5q4 10 8 19.5t8 18.5q12 27 25.5 51t29.5 41t34 27t40 10q38 0 52.5 -13t14.5 -30q0 -19 -14 -35.5t-31 -16.5q-9 0 -17.5 5.5t-15.5 19.5q-21 0 -38.5 -19.5t-34.5 -51.5
q-9 -17 -17 -35.5t-18 -38.5q16 -30 31 -58t29 -49t27.5 -33.5t27.5 -12.5q27 0 47.5 25.5t42.5 59.5q2 2 5 2q7 0 11.5 -14t4.5 -26z" />
    <glyph glyph-name="y" unicode="y" horiz-adv-x="497" 
d="M533 189q0 -9 -2 -12q-17 -22 -35 -45q-16 -20 -36 -43.5t-41 -43.5q-1 -26 -1 -47v-37q0 -18 -1 -34q0 -23 -18.5 -51.5t-46 -54t-59.5 -42.5t-59 -17q-25 0 -51 12.5t-47.5 30t-35 37t-13.5 34.5q0 8 8 17.5t32 20.5q14 7 33.5 17.5t41.5 23t43.5 25.5t40.5 25v91
q-11 -12 -31 -31.5t-44 -38t-49 -32t-46 -13.5q-35 0 -55.5 19t-30.5 47t-12.5 59.5t-2.5 57.5q-1 66 0 121q0 23 0.5 46.5t1 43t1 34.5t1.5 21q2 15 9 19.5t13 4.5q1 0 8.5 0.5t18 0.5t22.5 0.5t24 0.5q14 0 24.5 -0.5t14.5 -2.5q11 -4 10 -21q0 -13 -2.5 -46.5t-5.5 -74
t-5.5 -80.5t-2.5 -67q0 -39 10.5 -55.5t25.5 -16.5q12 0 26 8.5t27.5 22.5t26 30.5t21.5 33.5q-1 58 -1.5 115t-1.5 108q1 8 5 15q4 6 10.5 11t20.5 5t31 -1t31 -3q17 -2 34 -3q3 0 6 -3q2 -2 4 -6.5t2 -13.5q0 -10 -0.5 -40t-1.5 -71.5t-1.5 -90t-1.5 -94.5q28 28 53.5 60
t38.5 52q2 2 5 2q7 0 11.5 -14t4.5 -26zM289 -155q-1 4 -1 31t-1 70q-13 -8 -23 -15.5t-18 -12.5q-9 -6 -17 -12q-5 -1 -9 -5q-3 -3 -5.5 -7.5t-2.5 -11.5q0 -11 5.5 -23.5t14 -22.5t17 -16.5t14.5 -6.5q13 0 18 10t8 22z" />
    <glyph glyph-name="z" unicode="z" horiz-adv-x="457" 
d="M493 189q0 -9 -2 -12q-10 -13 -21 -28q-21 -27 -50 -61q1 -8 1.5 -16t0.5 -16q0 -50 -17.5 -102.5t-49 -95t-74 -70t-91.5 -27.5q-21 0 -45 11t-44.5 30.5t-34 46.5t-13.5 58q0 8 4 17.5t18 17.5q6 3 17.5 9.5t26.5 14.5t32.5 18t34.5 19q40 22 88 49q0 15 -8 23.5
t-20 13.5t-27 6.5t-29 1.5q-12 0 -22.5 -0.5t-18.5 -0.5q-5 0 -9 2q-3 2 -5.5 4.5t-2.5 8.5q0 4 1 7q3 9 9.5 21.5t15 26t16 26t11.5 21.5t14 33t20.5 50t19 47t8.5 24q0 2 0.5 3t0.5 2q0 3 -8 3h-16.5t-27 0.5t-28 1t-18.5 2.5q-10 2 -15 4q-10 -24 -23.5 -56t-29 -63.5
t-31 -58.5t-28.5 -41q0 -1 -1 -1h-4q-5 0 -7 3q-2 2 -3.5 8t-3.5 13q-2 8 -4 17q11 15 24.5 38.5t27.5 51t27 56t22 52.5q-24 19 -38.5 47t-13.5 54q0 14 6.5 24t15.5 16.5t18.5 9.5t16.5 3q9 0 19 -6t18.5 -15.5t14 -22.5t5.5 -28q0 -12 -4 -23q0 -4 1 -7.5t5.5 -6.5t13 -5
t24.5 -2q15 0 38 0.5t47 1.5t45.5 2t35.5 2q7 1 16 -3t9 -18q0 -8 -20 -31.5t-44 -53t-43.5 -59.5t-19.5 -49q0 -5 4 -6q51 -3 83 -25t49 -56q19 11 36 34t33 48q2 2 5 2q7 0 11.5 -14t4.5 -26zM294 -29q0 6 -1 13t-4 10q-1 1 -3 1q-4 0 -17 -7.5t-29.5 -18t-34 -22
t-30.5 -19.5q-7 -4 -9 -11.5t-2 -15.5q0 -12 6 -26.5t13.5 -27t15.5 -20.5t12 -8q14 1 29 19t27 42.5t19.5 50t7.5 40.5z" />
    <glyph glyph-name="braceleft" unicode="{" horiz-adv-x="400" 
d="M379 -101q0 -8 -2.5 -16.5t-10 -15.5t-20.5 -11.5t-34 -4.5q-65 0 -107.5 13t-67.5 36t-34.5 54t-9.5 67q0 39 8.5 82.5t18.5 87t18.5 84t8.5 75.5q0 12 -12.5 20.5t-27.5 13.5q-18 6 -40 11q-6 0 -12.5 12t-6.5 23q0 19 19 19q22 4 40 10q15 5 27.5 14t12.5 21
q0 34 -8.5 75t-18.5 84.5t-18.5 87t-8.5 82.5q0 36 9.5 67t34.5 54t67.5 36t107.5 13q21 0 34 -4.5t20.5 -11.5t10 -15.5t2.5 -16.5q0 -21 -7.5 -32.5t-22.5 -17t-37 -6.5t-51 -1q-43 0 -60 -22.5t-17 -58.5q0 -35 11.5 -79t26 -87.5t26 -82.5t11.5 -64q0 -17 -17 -30.5
t-37 -22.5q-24 -11 -54 -19q30 -9 54 -20q20 -10 37 -22.5t17 -29.5q0 -26 -11.5 -64.5t-26 -82t-26 -87.5t-11.5 -79q0 -36 17 -58.5t60 -22.5q29 0 51 -1t37 -6.5t22.5 -17t7.5 -32.5z" />
    <glyph glyph-name="bar" unicode="|" horiz-adv-x="461" 
d="M258 -144q0 -13 -16 -22t-36 -9q-11 0 -12 15v1088q0 13 16 22t36 9q11 0 11 -15z" />
    <glyph glyph-name="braceright" unicode="}" horiz-adv-x="325" 
d="M338 414q0 -19 -19 -19q-22 -5 -40 -11q-15 -5 -27.5 -13.5t-12.5 -20.5q0 -35 8.5 -75.5t18.5 -84t18.5 -87t8.5 -82.5q0 -36 -10 -67t-34.5 -54t-67 -36t-107.5 -13q-21 0 -34 4.5t-20.5 11.5t-10 15.5t-2.5 16.5q0 21 7.5 32.5t22.5 17t37 6.5t51 1q43 0 60 22.5
t17 58.5q0 35 -11.5 79t-26 87.5t-26 82t-11.5 64.5q0 17 17 29.5t37 22.5q24 11 54 20q-30 8 -54 19q-20 9 -37 22.5t-17 30.5q0 25 11.5 64t26 82.5t26 87.5t11.5 79q0 36 -17 58.5t-60 22.5q-29 0 -51 1t-37 6.5t-22.5 17t-7.5 32.5q0 8 2.5 16.5t10 15.5t20.5 11.5
t34 4.5q65 0 107.5 -13t67 -36t34.5 -54t10 -67q0 -39 -8.5 -82.5t-18.5 -87t-18.5 -84.5t-8.5 -75q0 -12 12.5 -21t27.5 -14q18 -6 40 -10q6 0 12.5 -12t6.5 -23z" />
    <glyph glyph-name="uni00A0" unicode="&#xa0;" horiz-adv-x="250" 
 />
    <glyph glyph-name="exclamdown" unicode="&#xa1;" horiz-adv-x="386" 
d="M293 370q0 -17 -6.5 -32.5t-18.5 -27t-28 -18.5t-35 -7q-18 0 -34 7t-28 18.5t-19 27t-7 32.5q0 18 7 34t19 27.5t28 18t34 6.5q38 0 63 -24.5t25 -61.5zM293 -299q0 -9 -3 -18q-2 -8 -7.5 -16t-15.5 -13q-28 -13 -48 -21.5t-34.5 -13.5t-24 -7t-17.5 -2q-14 0 -24.5 8
t-10.5 22q0 21 5 59.5t12 87t15.5 103.5t15.5 108.5t12 102t5 83.5q0 3 4 8.5t11 11t15 9t16 3.5q9 0 16 -6.5t9 -22.5q0 -1 3.5 -29.5t9 -73.5t12 -100t12 -109t9 -100.5t3.5 -73.5z" />
    <glyph glyph-name="cent" unicode="&#xa2;" horiz-adv-x="500" 
d="M469 717q0 -4 -4 -12l-57 -94q11 -13 17 -28.5t6 -33.5q0 -6 -6.5 -13t-15.5 -12.5t-19.5 -9.5t-18.5 -4q-12 0 -18 9l-150 -247q17 -31 40 -49.5t51 -18.5q17 0 32.5 5.5t27.5 19.5t19 37.5t7 59.5q0 13 8 22t25 9q20 0 34.5 -15t14.5 -29q0 -43 -16.5 -76.5t-43.5 -57
t-61 -35.5t-68 -12q-40 0 -72 10.5t-58 29.5l-50 -82q-2 -5 -6 -9q-7 -9 -13 -9q-9 0 -19.5 9.5t-10.5 20.5q0 4 4 12l57 95q-29 36 -43.5 82.5t-14.5 97.5t15 100.5t44.5 88t73.5 62.5t102 24q48 0 87 -21l51 85q2 5 6 9q3 4 6 7t7 3q8 0 19 -10t11 -20zM327 575
q-9 14 -23 24t-34 10q-29 0 -49 -13.5t-33.5 -36.5t-19.5 -52.5t-6 -62.5q0 -58 17 -114z" />
    <glyph glyph-name="sterling" unicode="&#xa3;" horiz-adv-x="832" 
d="M775 189q0 -9 -2 -12q-22 -32 -49 -67.5t-61 -65.5t-75.5 -50t-93.5 -20q-22 0 -47 10.5t-55 25.5t-65.5 33t-78.5 33q-33 -47 -86.5 -74t-134.5 -27q-36 0 -53 12.5t-17 32.5q0 18 13.5 38.5t39 39t63 33.5t85.5 21q5 17 7 35t4 38l-114 -19q-11 0 -14.5 4t-3.5 15
q0 19 7 33t16 14l114 19v30.5t1 31.5l-120 -20q-11 0 -14.5 4t-3.5 15q0 19 7 33t16 14l116 19q1 80 8.5 157.5t35 139t82 99.5t149.5 38q47 0 92.5 -13t81 -38.5t57 -62t21.5 -83.5q0 -10 -8 -21t-20.5 -20t-27.5 -15t-29 -6q-13 0 -23 7t-14 23q-8 46 -28 83
q-9 16 -21.5 31t-30 27t-39.5 19t-50 7q-37 0 -55 -28.5t-25 -76.5t-7 -111t-1 -131l197 33q5 0 7 -6.5t2 -14.5q0 -21 -6.5 -33t-17.5 -14l-183 -31l-4 -62l202 34q5 0 7 -6.5t2 -14.5q0 -21 -6.5 -33t-17.5 -14l-195 -33q-5 -26 -10.5 -50t-13.5 -47q48 -7 87.5 -19.5
t73 -25t62.5 -22t58 -9.5q22 0 49.5 17t54 41t49 50t33.5 44q2 2 5 2q7 0 11.5 -14t4.5 -26z" />
    <glyph glyph-name="currency" unicode="&#xa4;" horiz-adv-x="506" 
d="M19 168l69 71q-38 55 -38 126t38 124l-69 71l45 43l67 -69q24 18 54.5 29t67.5 11q36 0 67 -11t55 -29l67 69l45 -43l-69 -71q37 -54 37 -124q0 -35 -10 -67t-28 -58l70 -72l-45 -43l-68 69q-49 -37 -121 -37t-121 37l-68 -69zM253 222q57 0 88 40.5t31 102.5
q0 30 -8 56.5t-23 46t-37.5 30.5t-50.5 11q-29 0 -51 -11t-37.5 -30.5t-23.5 -46t-8 -56.5q0 -31 8 -57t23.5 -45t37.5 -30t51 -11z" />
    <glyph glyph-name="yen" unicode="&#xa5;" horiz-adv-x="871" 
d="M851 735q0 -11 -4 -20t-16 -9q-13 0 -25 6.5t-27 15t-34.5 15t-46.5 6.5t-61 -22.5t-66 -65.5t-60 -104.5t-43 -140.5l190 32q5 0 7 -6.5t2 -14.5q0 -21 -6.5 -33t-17.5 -14l-185 -31q-1 -11 -2 -20.5t-1 -18.5q0 -5 0.5 -10.5t1.5 -12.5l201 34q5 0 7 -6.5t2 -14.5
q0 -21 -6.5 -33t-17.5 -14l-181 -30q3 -33 5.5 -71t5 -72.5t4 -60t1.5 -33.5q0 -14 -4 -17.5t-11 -4.5q-28 0 -51 1q-20 0 -37 0.5t-22 0.5t-13.5 5t-8.5 22q-1 33 -1 89.5v118.5l-138 -23q-11 0 -14.5 4t-3.5 15q0 19 7 33t16 14l133 22v31.5t-1 30.5l-137 -23
q-11 0 -14.5 4t-3.5 15q0 19 7 33t16 14l119 20q-20 58 -40.5 112t-42.5 94.5t-45 65t-48 24.5q-17 0 -37.5 -14t-41 -30.5t-40 -31t-33.5 -14.5q-9 2 -15 6q-5 4 -9.5 12t-4.5 23q0 7 4.5 17.5t20.5 22.5q11 9 31 23.5t44.5 31.5t52.5 34t54.5 31t50.5 23t41 9q22 0 43 -23
t41 -61.5t39 -89.5t37 -106q31 65 66 125t74.5 105.5t84.5 73t96 27.5q27 0 48 -11.5t35.5 -31.5t21.5 -46.5t7 -56.5z" />
    <glyph glyph-name="section" unicode="&#xa7;" horiz-adv-x="420" 
d="M452 383q0 -12 -3.5 -31.5t-15 -41t-34 -42t-60.5 -34.5q10 -19 17.5 -43t7.5 -52q0 -40 -19.5 -70t-49.5 -50.5t-66.5 -30.5t-71.5 -10q-34 1 -60 10q-23 8 -41.5 23t-18.5 44q0 14 6.5 26.5t15.5 22.5t19 15.5t18 5.5q13 0 27 -11t29.5 -24t33 -24t38.5 -11q17 0 27 8
t10 34q0 24 -17 49t-42.5 52t-55.5 56.5t-55.5 61.5t-42.5 67.5t-17 74.5q0 31 10.5 55t27.5 41t38 27t43 13q-14 23 -22.5 48.5t-8.5 56.5q0 37 13.5 63.5t35 43.5t47 25t49.5 8q37 0 56.5 -18.5t19.5 -43.5q0 -27 -26.5 -52.5t-83.5 -29.5q8 -26 28 -47t44.5 -41t51 -41
t48.5 -47t36 -59t14 -77zM350 330q0 15 -10.5 36t-26.5 43t-35.5 43.5t-38.5 38.5t-34.5 27.5t-22.5 10.5q-18 0 -29.5 -19.5t-11.5 -48.5q0 -11 9.5 -27.5t25 -34.5t34.5 -36t38.5 -32.5t36.5 -23.5t28 -9q14 0 25.5 4.5t11.5 27.5z" />
    <glyph glyph-name="dieresis" unicode="&#xa8;" horiz-adv-x="500" 
d="M285 668q0 -33 -23.5 -56t-55.5 -23q-33 0 -56 23t-23 56q0 32 23 55.5t56 23.5q32 0 55.5 -23.5t23.5 -55.5zM75 668q0 -33 -23.5 -56t-55.5 -23q-33 0 -56 23t-23 56q0 32 23 55.5t56 23.5q32 0 55.5 -23.5t23.5 -55.5z" />
    <glyph glyph-name="copyright" unicode="&#xa9;" horiz-adv-x="736" 
d="M646 275q0 -58 -22 -108.5t-60 -88t-88.5 -59.5t-107.5 -22q-58 0 -108.5 22t-88 59.5t-59.5 88t-22 108.5q0 57 22 107.5t59.5 88.5t88 60t108.5 22q57 0 107.5 -22t88.5 -60t60 -88.5t22 -107.5zM589 275q0 45 -17.5 85.5t-47.5 70.5t-70.5 47.5t-85.5 17.5
q-47 0 -87 -17.5t-70 -47.5t-47 -70.5t-17 -85.5q0 -47 17 -87t47 -70t70 -47t87 -17q45 0 85.5 17t70.5 47t47.5 70t17.5 87zM505 186v-2l-1 -2q-16 -22 -37 -40q-18 -15 -44.5 -27.5t-58.5 -12.5q-37 0 -65.5 14.5t-47.5 39t-29 55.5t-10 64q0 46 14.5 79.5t37.5 55
t51.5 31.5t56.5 10q41 0 71 -20t31 -57q0 -2 -1.5 -6t-6.5 -7l-80 -50q0 -1 -1 -1h-3q-5 0 -7.5 4.5t-2.5 9.5q0 4 2 6l47 33q-4 17 -11 31q-6 11 -16.5 21t-26.5 10q-23 0 -40.5 -10.5t-29 -28.5t-17.5 -41t-6 -48q0 -28 7.5 -55t22.5 -48.5t37.5 -34.5t52.5 -13
q23 0 46.5 8.5t46.5 31.5q2 4 4.5 8t5.5 8h2q2 0 4 -5.5t2 -10.5z" />
    <glyph glyph-name="ordfeminine" unicode="&#xaa;" horiz-adv-x="547" 
d="M508 574q0 -7 -2 -10q-33 -43 -65 -76l-28 -28t-27.5 -24.5t-26 -17t-21.5 -6.5q-28 0 -43 25.5t-21 60.5q-1 -3 -16.5 -17.5t-37 -31t-45 -29.5t-40.5 -13q-24 0 -44 12t-34.5 32.5t-22.5 48t-8 57.5q0 43 18 87.5t59 81t107.5 60t162.5 23.5q2 0 5 -2q6 -4 6 -14v-222
q0 -14 3.5 -28.5t18.5 -16.5q14 0 29.5 12.5t27.5 26.5q2 2 6.5 9t10 14t9.5 12.5t6 5.5q6 0 9.5 -12t3.5 -20zM271 753q-36 -7 -60.5 -24t-39.5 -39t-22 -47.5t-7 -49.5q0 -40 15 -69t38 -29q10 0 22.5 8t23.5 18q12 11 25 26q3 3 3.5 6t0.5 5v110q0 40 1 85z" />
    <glyph glyph-name="guillemotleft" unicode="&#xab;" horiz-adv-x="622" 
d="M544 163q0 -4 -7 -10.5t-16 -13t-17 -11t-10 -4.5t-18 11t-39.5 25.5t-51.5 28.5t-53 19q-16 4 -16 20q0 9 4.5 18t8.5 9q30 6 60 18.5t54 25.5q28 15 55 33q2 0 9.5 -1.5t15.5 -4.5t14.5 -6.5t6.5 -7.5l-2.5 -6t-16.5 -16.5t-43.5 -24t-83.5 -29.5q54 -19 83.5 -32.5
t43.5 -22t16.5 -13t2.5 -5.5zM427 117q0 -6 -9 -13t-20 -13t-22 -10t-14 -4t-30 14t-66 32.5t-84.5 37t-84.5 26.5q-14 3 -19 11.5t-5 19.5q0 15 6.5 28.5t12.5 13.5q59 8 111 28t92 40q47 24 86 51q3 0 11 -2t15.5 -6t13.5 -9t6 -11q0 -1 -7 -10t-31.5 -24.5t-73 -36.5
t-132.5 -46q84 -29 132.5 -50.5t73.5 -36t31.5 -22t6.5 -8.5z" />
    <glyph glyph-name="logicalnot" unicode="&#xac;" horiz-adv-x="901" 
d="M937 189q0 -9 -2 -12q-22 -32 -47 -65t-50.5 -60t-51 -44t-48.5 -17q-21 0 -35 21.5t-25 54t-21.5 70.5t-25 70.5t-34.5 54t-50 21.5q-12 0 -30 -5q-2 -50 -13 -103t-36 -97t-66 -72.5t-104 -28.5q-31 0 -68 15.5t-69.5 41t-54 58.5t-21.5 68q0 18 13 31.5t31 21.5t37 12
t30 4t17 -4q6 -5 10.5 -20t9 -34.5t10.5 -41t15.5 -39.5t23.5 -29.5t35 -11.5q30 0 41 39.5t11 101.5q0 52 -5.5 113.5t-12.5 121t-12.5 111.5t-5.5 84q0 12 4.5 26.5t28.5 19.5q13 3 30.5 6.5t33 7.5t27 6.5t12.5 2.5q5 0 15 -4.5t11 -24.5q0 -8 1.5 -29t2.5 -48.5t3 -58
t3 -57.5t2 -46.5t2 -25.5q0 -1 1 -2t4 -1l4 2q2 1 17.5 11t39 24.5t52 32.5t57.5 36q2 2 4 6q2 3 3.5 7t1.5 11q0 50 -19.5 94.5t-56.5 77.5t-89 52.5t-116 19.5q-60 0 -113.5 -16t-93.5 -43t-63.5 -63.5t-23.5 -76.5q0 -47 35 -95.5t116 -93.5q5 -3 8 -9.5t3 -14.5
q0 -9 -3 -16q-2 -6 -7 -10.5t-14 -4.5q-59 19 -102 46.5t-71 60.5t-41.5 70t-13.5 76q0 58 29 114.5t82.5 101t130.5 72t173 27.5q73 0 132 -16.5t104 -43.5t77 -61t53 -70t30.5 -70t9.5 -60q0 -39 -17 -51q-72 -40 -123.5 -68.5t-86.5 -50.5q43 -6 69.5 -27.5t42 -50
t24 -60.5t17 -58.5t19.5 -44t32 -17.5q27 0 47.5 25.5t42.5 59.5q2 2 5 2q7 0 11.5 -14t4.5 -26z" />
    <glyph glyph-name="uni00AD" unicode="&#xad;" horiz-adv-x="498" 
d="M398 211q0 -20 -3.5 -36t-8.5 -16h-280q-6 1 -6 12q0 20 3.5 36t8.5 16l280 -1q6 0 6 -11z" />
    <glyph glyph-name="registered" unicode="&#xae;" horiz-adv-x="736" 
d="M646 275q0 -58 -22 -108.5t-60 -88t-88.5 -59.5t-107.5 -22q-58 0 -108.5 22t-88 59.5t-59.5 88t-22 108.5q0 57 22 107.5t59.5 88.5t88 60t108.5 22q57 0 107.5 -22t88.5 -60t60 -88.5t22 -107.5zM589 275q0 45 -17.5 85.5t-47.5 70.5t-70.5 47.5t-85.5 17.5
q-47 0 -87 -17.5t-70 -47.5t-47 -70.5t-17 -85.5q0 -47 17 -87t47 -70t70 -47t87 -17q45 0 85.5 17t70.5 47t47.5 70t17.5 87zM549 193q0 -4 -1 -5q-8 -12 -19 -25.5t-22.5 -25t-22.5 -18.5t-20 -7q-22 0 -36.5 14t-26.5 35.5t-23 48t-26 51.5l-2 2q-1 1 -1 3q0 5 9 9
q42 22 57.5 44.5t15.5 40.5q0 20 -13 32.5t-28 12.5q-10 0 -27.5 -9t-40.5 -24v-48v-46.5v-46.5t0.5 -51t0.5 -59q0 -3 -1 -5q-2 -4 -5 -4h-31q-9 0 -17 1q-2 0 -3 1q-3 1 -3 6v213l-39 -27q-1 -1 -3 -2t-6 -1q-8 0 -8 13q0 7 5 12q12 8 24.5 16.5t26.5 16.5v80q0 5 8 8
q2 0 8.5 0.5t14 1t14 1t8.5 0.5q7 -1 7 -6q-1 -12 -1 -24v-24q38 24 68 39.5t38 15.5q27 0 40.5 -15.5t13.5 -40.5q0 -26 -15.5 -58t-47.5 -61q-4 -4 -4 -6q9 -10 16 -27t15.5 -33.5t20.5 -29t32 -12.5q14 0 23.5 11.5t18.5 24.5q1 2 3 2t3.5 -5.5t1.5 -9.5z" />
    <glyph glyph-name="macron" unicode="&#xaf;" horiz-adv-x="567" 
d="M463 660q0 -20 -3.5 -36t-8.5 -16h-350q-6 1 -6 12q0 20 3.5 36t8.5 16l350 -1q6 0 6 -11z" />
    <glyph glyph-name="plusminus" unicode="&#xb1;" horiz-adv-x="0" 
d="M1250 -190q-342 -1 -614 -11q-116 -4 -227.5 -10.5t-200.5 -16t-145.5 -22.5t-62.5 -30q-6 17 -62.5 30t-145.5 22.5t-200.5 16t-227.5 10.5q-272 10 -614 11v40q342 1 614 11q116 4 227.5 10.5t200.5 16t145.5 22.5t62.5 30q6 -17 62.5 -30t145.5 -22.5t200.5 -16
t227.5 -10.5q272 -10 614 -11v-40zM0 -99l-52 -72l52 -72l52 72z" />
    <glyph glyph-name="acute" unicode="&#xb4;" horiz-adv-x="297" 
d="M285 769q-1 -7 -21.5 -28t-50 -48t-64.5 -57t-65 -55t-50.5 -41t-21.5 -16q-5 0 -8.5 2t-3.5 9q0 4 5 16.5t13.5 30t19.5 38.5t23 42q27 50 62 111q5 6 10.5 9t17.5 4.5t32.5 2t55.5 0.5q21 0 33.5 -3t12.5 -17z" />
    <glyph glyph-name="mu" unicode="&#xb5;" horiz-adv-x="0" 
d="M1250 -174h-171.5t-194 -1t-203 -2t-198 -4t-180.5 -7t-149.5 -10t-105.5 -14t-48 -18q-8 10 -48.5 18t-105 14t-149.5 10t-180.5 7t-198 4t-203 2t-194 1h-171.5v8h172t195 1t204 2t199 4t181 7t149.5 10t104 13.5t45.5 18.5q6 -11 45.5 -18.5t104 -13.5t149.5 -10
t181 -7t199 -4t204 -2t195 -1h172v-8z" />
    <glyph glyph-name="paragraph" unicode="&#xb6;" horiz-adv-x="593" 
d="M461 171q0 -56 -13.5 -100t-42 -75.5t-73 -48t-107.5 -16.5q-32 0 -60 4t-49 13.5t-33.5 24.5t-12.5 38q0 10 4.5 21t11.5 20t16 15t18 6q15 0 32.5 -13t37 -28t40.5 -28t42 -13t33.5 17t19.5 42t8.5 54t1.5 53q0 41 -1 88q-1 40 -1.5 90.5t-0.5 104.5q-35 -29 -72 -44
t-72 -15q-36 0 -63 10.5t-45 28.5t-27 42.5t-9 52.5q0 46 24 95.5t72.5 91t121 68.5t169.5 27q15 0 21.5 -2.5t8.5 -17.5v-606zM332 500q0 43 -0.5 82.5t-0.5 72v55v30.5q-39 0 -67.5 -14t-46.5 -36t-26.5 -50t-8.5 -55q0 -21 5 -41t14.5 -35t23 -24t31.5 -9q38 0 76 24z
M414 733q0 10 -7 10h-34v-697q1 -10 8 -10q13 0 23.5 30.5t10.5 84.5z" />
    <glyph glyph-name="periodcentered" unicode="&#xb7;" horiz-adv-x="413" 
d="M299 250q0 -18 -7 -34t-19 -27.5t-28 -18t-34 -6.5q-38 0 -63 24.5t-25 61.5q0 17 6.5 32.5t18.5 27t28 18.5t35 7q18 0 34 -7t28 -18.5t19 -27t7 -32.5z" />
    <glyph glyph-name="cedilla" unicode="&#xb8;" horiz-adv-x="500" 
d="M380 -135q0 -22 -12 -43.5t-33 -38.5t-49 -27.5t-59 -10.5q-27 0 -55 9t-56 30q1 2 2.5 8.5t5.5 6.5q2 0 4.5 -1t4.5 -2q3 -1 5 -2q42 -15 75 -15q40 0 62.5 16.5t22.5 34.5q0 15 -17 26.5t-53 11.5q-16 0 -28 1.5t-13 10.5l51 149q4 1 11 1q10 0 18.5 -3.5t8.5 -11.5
l-16 -44q0 -5 5 -9.5t21 -8.5q51 -14 72.5 -37.5t21.5 -50.5z" />
    <glyph glyph-name="ordmasculine" unicode="&#xba;" horiz-adv-x="497" 
d="M438 593q0 -6 -1 -8q-20 -32 -43 -45t-45 -13q-6 0 -11.5 0.5t-10.5 1.5q-21 -35 -56 -58t-86 -23q-40 0 -69 14.5t-47.5 38.5t-27.5 54.5t-9 63.5q0 39 11 75t35 63.5t62.5 44t93.5 16.5q25 0 45.5 -7t34.5 -17.5t22 -23t8 -23.5q0 -12 -9.5 -20t-29.5 -8
q-12 0 -19.5 7.5t-15 16.5t-18 16.5t-29.5 7.5q-18 0 -34 -8.5t-29 -24t-20.5 -36.5t-7.5 -46q0 -23 6 -44.5t18.5 -38t31 -27t43.5 -10.5q30 0 49 19q-20 14 -30 37.5t-10 47.5q0 28 14 49.5t41 21.5q29 0 44 -24t15 -59q0 -28 -11 -61h5q32 0 57 31q5 7 9.5 13.5t8.5 13.5
q2 1 4 1q5 0 8 -10t3 -19z" />
    <glyph glyph-name="guillemotright" unicode="&#xbb;" horiz-adv-x="622" 
d="M567 238q0 -15 -6.5 -28.5t-12.5 -13.5q-59 -9 -111 -28.5t-92 -39.5q-47 -24 -86 -51q-3 0 -11 2t-15.5 6t-13.5 9t-6 11q0 1 7 10t31.5 24.5t73 36.5t132.5 46q-84 29 -132.5 50.5t-73.5 36t-31.5 22t-6.5 8.5q0 6 9 13t20 13t22 10t14 4t30 -14t66 -32.5t84.5 -37
t84.5 -26.5q14 -3 19 -11.5t5 -19.5zM324 228q0 -9 -4.5 -18t-8.5 -9q-30 -6 -60.5 -19t-54.5 -26q-28 -15 -54 -32q-2 0 -9.5 1.5t-15.5 4.5t-14.5 6.5t-6.5 7.5l2.5 6t16.5 16.5t43.5 24t83.5 29.5q-54 19 -83.5 32.5t-43.5 22t-16.5 13t-2.5 5.5q0 4 7 10.5t16 13t17 11
t10 4.5t18 -11t39.5 -25.5t51.5 -28.5t53 -19q16 -4 16 -20z" />
    <glyph glyph-name="questiondown" unicode="&#xbf;" horiz-adv-x="559" 
d="M443 375q0 -17 -6.5 -32.5t-18.5 -27t-28 -18.5t-35 -7q-18 0 -34 7t-28 18.5t-19 27t-7 32.5q0 18 7 34t19 27.5t28 18t34 6.5q38 0 63 -24.5t25 -61.5zM589 -165q0 -44 -33.5 -85t-84.5 -73t-113 -51.5t-119 -19.5q-36 0 -68.5 9t-56.5 29t-38 52t-14 77q0 46 18.5 85
t46.5 73.5t60.5 65.5t60.5 62t46.5 63t18.5 67q0 3 4 8.5t11 11t15 9t16 3.5q9 0 16 -6.5t9 -22.5q0 -47 -14 -82.5t-34.5 -65t-44.5 -55.5t-44.5 -54t-34 -60t-13.5 -74q0 -60 31.5 -87t73.5 -27q27 0 55.5 10.5t51.5 30t37.5 47.5t15.5 62q-2 7 -4 9l-3 3l-67 36
q-7 5 -10 21q0 15 9 24t15 10q3 0 7 -2q2 -1 3 -2l154 -75q12 -6 16.5 -13t4.5 -13z" />
    <glyph glyph-name="Agrave" unicode="&#xc0;" 
d="M618 945q0 -7 -3.5 -9t-8.5 -2q-2 0 -22 16t-50 41t-65 55t-64.5 57t-50 48t-21.5 28q0 14 12.5 17t33.5 3q35 0 55.5 -0.5t32.5 -2t17.5 -4.5t10.5 -9q34 -61 61 -111q12 -21 23 -42t19.5 -38.5t14 -30t5.5 -16.5zM912 189q0 -9 -2 -12q-22 -32 -50.5 -67.5t-60 -65.5
t-64.5 -49.5t-63 -19.5t-55 14.5t-44 36t-32.5 46.5t-20.5 46q0 1 -1 2l-3 3q-3 0 -7 -4q-61 -67 -111.5 -107.5t-88.5 -40.5q-79 0 -137 25.5t-95.5 69.5t-56 102.5t-18.5 124.5q0 65 17.5 134t52 134.5t84.5 123.5t115.5 101t145.5 68.5t173 25.5q15 0 41.5 -3.5t57 -10.5
t62 -17.5t57 -25t42 -33t16.5 -40.5q0 -13 -10.5 -31t-25 -35t-29 -29t-23.5 -12q-17 0 -23 21q-10 36 -23 63.5t-34 46t-53.5 28.5t-81.5 10q-63 0 -116.5 -19.5t-97 -53.5t-77.5 -79t-56.5 -96t-34.5 -104.5t-12 -103.5t12 -94t36 -77t61 -52.5t88 -19.5q18 0 38 10.5
t38 24.5t31.5 28t18.5 20l3 6q4 8 4 18q0 48 -1 114.5t-2 136t-2 134.5t-2 110q0 4 4 15t22 12q59 3 85.5 5.5t36.5 2.5q14 0 18.5 -9.5t4.5 -23.5q0 -9 -0.5 -30t-1 -47t-1 -53t-0.5 -47v-28t0.5 -40.5t1 -48t0.5 -50.5q1 -59 2 -128q0 -8 3 -30t11 -45.5t23 -42t39 -18.5
t46.5 12t42 30t35.5 38.5t27 37.5q2 2 5 2q7 0 11.5 -14t4.5 -26z" />
    <glyph glyph-name="Aacute" unicode="&#xc1;" 
d="M687 1161q-1 -7 -21.5 -28t-50 -48t-64.5 -57t-65 -55t-50.5 -41t-21.5 -16q-5 0 -8.5 2t-3.5 9q0 4 5 16.5t13.5 30t19.5 38.5t23 42q27 50 62 111q5 6 10.5 9t17.5 4.5t32.5 2t55.5 0.5q21 0 33.5 -3t12.5 -17zM912 189q0 -9 -2 -12q-22 -32 -50.5 -67.5t-60 -65.5
t-64.5 -49.5t-63 -19.5t-55 14.5t-44 36t-32.5 46.5t-20.5 46q0 1 -1 2l-3 3q-3 0 -7 -4q-61 -67 -111.5 -107.5t-88.5 -40.5q-79 0 -137 25.5t-95.5 69.5t-56 102.5t-18.5 124.5q0 65 17.5 134t52 134.5t84.5 123.5t115.5 101t145.5 68.5t173 25.5q15 0 41.5 -3.5t57 -10.5
t62 -17.5t57 -25t42 -33t16.5 -40.5q0 -13 -10.5 -31t-25 -35t-29 -29t-23.5 -12q-17 0 -23 21q-10 36 -23 63.5t-34 46t-53.5 28.5t-81.5 10q-63 0 -116.5 -19.5t-97 -53.5t-77.5 -79t-56.5 -96t-34.5 -104.5t-12 -103.5t12 -94t36 -77t61 -52.5t88 -19.5q18 0 38 10.5
t38 24.5t31.5 28t18.5 20l3 6q4 8 4 18q0 48 -1 114.5t-2 136t-2 134.5t-2 110q0 4 4 15t22 12q59 3 85.5 5.5t36.5 2.5q14 0 18.5 -9.5t4.5 -23.5q0 -9 -0.5 -30t-1 -47t-1 -53t-0.5 -47v-28t0.5 -40.5t1 -48t0.5 -50.5q1 -59 2 -128q0 -8 3 -30t11 -45.5t23 -42t39 -18.5
t46.5 12t42 30t35.5 38.5t27 37.5q2 2 5 2q7 0 11.5 -14t4.5 -26z" />
    <glyph glyph-name="Acircumflex" unicode="&#xc2;" 
d="M736 927q0 -4 -2.5 -8t-13.5 -4q-13 0 -37 11t-52 30t-57.5 44.5t-53.5 54.5q-24 -29 -53.5 -54.5t-58 -44.5t-52 -30t-36.5 -11q-11 0 -13.5 4t-2.5 8v4q0 1 1 2q25 16 47.5 42t43 56t38 61t32.5 56l5.5 10t13.5 21.5t17.5 21t16.5 9.5q11 0 21 -10t18 -21
q10 -13 18 -30q15 -25 32 -56t37 -61t42 -56.5t48 -42.5v-2q0 -1 0.5 -2t0.5 -2zM912 189q0 -9 -2 -12q-22 -32 -50.5 -67.5t-60 -65.5t-64.5 -49.5t-63 -19.5t-55 14.5t-44 36t-32.5 46.5t-20.5 46q0 1 -1 2l-3 3q-3 0 -7 -4q-61 -67 -111.5 -107.5t-88.5 -40.5
q-79 0 -137 25.5t-95.5 69.5t-56 102.5t-18.5 124.5q0 65 17.5 134t52 134.5t84.5 123.5t115.5 101t145.5 68.5t173 25.5q15 0 41.5 -3.5t57 -10.5t62 -17.5t57 -25t42 -33t16.5 -40.5q0 -13 -10.5 -31t-25 -35t-29 -29t-23.5 -12q-17 0 -23 21q-10 36 -23 63.5t-34 46
t-53.5 28.5t-81.5 10q-63 0 -116.5 -19.5t-97 -53.5t-77.5 -79t-56.5 -96t-34.5 -104.5t-12 -103.5t12 -94t36 -77t61 -52.5t88 -19.5q18 0 38 10.5t38 24.5t31.5 28t18.5 20l3 6q4 8 4 18q0 48 -1 114.5t-2 136t-2 134.5t-2 110q0 4 4 15t22 12q59 3 85.5 5.5t36.5 2.5
q14 0 18.5 -9.5t4.5 -23.5q0 -9 -0.5 -30t-1 -47t-1 -53t-0.5 -47v-28t0.5 -40.5t1 -48t0.5 -50.5q1 -59 2 -128q0 -8 3 -30t11 -45.5t23 -42t39 -18.5t46.5 12t42 30t35.5 38.5t27 37.5q2 2 5 2q7 0 11.5 -14t4.5 -26z" />
    <glyph glyph-name="Atilde" unicode="&#xc3;" 
d="M672 1080q0 -1 -10 -21.5t-31 -44.5t-53 -43.5t-75 -19.5q-26 0 -50.5 13.5t-46.5 29.5t-41.5 29.5t-34.5 13.5t-37 -15.5t-40 -38.5q-6 0 -14.5 2t-8.5 9q0 8 14 25.5t37 35t52.5 31t60.5 13.5q28 0 50 -10t43 -22.5t42.5 -22.5t47.5 -10q12 0 20 2.5t15.5 8.5t15 16.5
t18.5 27.5q7 -1 13 -2q5 -2 9 -3.5t4 -3.5zM912 189q0 -9 -2 -12q-22 -32 -50.5 -67.5t-60 -65.5t-64.5 -49.5t-63 -19.5t-55 14.5t-44 36t-32.5 46.5t-20.5 46q0 1 -1 2l-3 3q-3 0 -7 -4q-61 -67 -111.5 -107.5t-88.5 -40.5q-79 0 -137 25.5t-95.5 69.5t-56 102.5
t-18.5 124.5q0 65 17.5 134t52 134.5t84.5 123.5t115.5 101t145.5 68.5t173 25.5q15 0 41.5 -3.5t57 -10.5t62 -17.5t57 -25t42 -33t16.5 -40.5q0 -13 -10.5 -31t-25 -35t-29 -29t-23.5 -12q-17 0 -23 21q-10 36 -23 63.5t-34 46t-53.5 28.5t-81.5 10q-63 0 -116.5 -19.5
t-97 -53.5t-77.5 -79t-56.5 -96t-34.5 -104.5t-12 -103.5t12 -94t36 -77t61 -52.5t88 -19.5q18 0 38 10.5t38 24.5t31.5 28t18.5 20l3 6q4 8 4 18q0 48 -1 114.5t-2 136t-2 134.5t-2 110q0 4 4 15t22 12q59 3 85.5 5.5t36.5 2.5q14 0 18.5 -9.5t4.5 -23.5q0 -9 -0.5 -30
t-1 -47t-1 -53t-0.5 -47v-28t0.5 -40.5t1 -48t0.5 -50.5q1 -59 2 -128q0 -8 3 -30t11 -45.5t23 -42t39 -18.5t46.5 12t42 30t35.5 38.5t27 37.5q2 2 5 2q7 0 11.5 -14t4.5 -26z" />
    <glyph glyph-name="Adieresis" unicode="&#xc4;" 
d="M689 1045q0 -33 -23.5 -56t-55.5 -23q-33 0 -56 23t-23 56q0 32 23 55.5t56 23.5q32 0 55.5 -23.5t23.5 -55.5zM479 1045q0 -33 -23.5 -56t-55.5 -23q-33 0 -56 23t-23 56q0 32 23 55.5t56 23.5q32 0 55.5 -23.5t23.5 -55.5zM912 189q0 -9 -2 -12q-22 -32 -50.5 -67.5
t-60 -65.5t-64.5 -49.5t-63 -19.5t-55 14.5t-44 36t-32.5 46.5t-20.5 46q0 1 -1 2l-3 3q-3 0 -7 -4q-61 -67 -111.5 -107.5t-88.5 -40.5q-79 0 -137 25.5t-95.5 69.5t-56 102.5t-18.5 124.5q0 65 17.5 134t52 134.5t84.5 123.5t115.5 101t145.5 68.5t173 25.5
q15 0 41.5 -3.5t57 -10.5t62 -17.5t57 -25t42 -33t16.5 -40.5q0 -13 -10.5 -31t-25 -35t-29 -29t-23.5 -12q-17 0 -23 21q-10 36 -23 63.5t-34 46t-53.5 28.5t-81.5 10q-63 0 -116.5 -19.5t-97 -53.5t-77.5 -79t-56.5 -96t-34.5 -104.5t-12 -103.5t12 -94t36 -77t61 -52.5
t88 -19.5q18 0 38 10.5t38 24.5t31.5 28t18.5 20l3 6q4 8 4 18q0 48 -1 114.5t-2 136t-2 134.5t-2 110q0 4 4 15t22 12q59 3 85.5 5.5t36.5 2.5q14 0 18.5 -9.5t4.5 -23.5q0 -9 -0.5 -30t-1 -47t-1 -53t-0.5 -47v-28t0.5 -40.5t1 -48t0.5 -50.5q1 -59 2 -128q0 -8 3 -30
t11 -45.5t23 -42t39 -18.5t46.5 12t42 30t35.5 38.5t27 37.5q2 2 5 2q7 0 11.5 -14t4.5 -26z" />
    <glyph glyph-name="Aring" unicode="&#xc5;" 
d="M591 1054q0 -24 -9.5 -45t-25 -37t-36.5 -25t-45 -9t-45 9t-37 25t-25 37t-9 45t9 45t25 36.5t37 25t45 9.5t45 -9.5t36.5 -25t25 -36.5t9.5 -45zM912 189q0 -9 -2 -12q-22 -32 -50.5 -67.5t-60 -65.5t-64.5 -49.5t-63 -19.5t-55 14.5t-44 36t-32.5 46.5t-20.5 46
q0 1 -1 2l-3 3q-3 0 -7 -4q-61 -67 -111.5 -107.5t-88.5 -40.5q-79 0 -137 25.5t-95.5 69.5t-56 102.5t-18.5 124.5q0 65 17.5 134t52 134.5t84.5 123.5t115.5 101t145.5 68.5t173 25.5q15 0 41.5 -3.5t57 -10.5t62 -17.5t57 -25t42 -33t16.5 -40.5q0 -13 -10.5 -31t-25 -35
t-29 -29t-23.5 -12q-17 0 -23 21q-10 36 -23 63.5t-34 46t-53.5 28.5t-81.5 10q-63 0 -116.5 -19.5t-97 -53.5t-77.5 -79t-56.5 -96t-34.5 -104.5t-12 -103.5t12 -94t36 -77t61 -52.5t88 -19.5q18 0 38 10.5t38 24.5t31.5 28t18.5 20l3 6q4 8 4 18q0 48 -1 114.5t-2 136
t-2 134.5t-2 110q0 4 4 15t22 12q59 3 85.5 5.5t36.5 2.5q14 0 18.5 -9.5t4.5 -23.5q0 -9 -0.5 -30t-1 -47t-1 -53t-0.5 -47v-28t0.5 -40.5t1 -48t0.5 -50.5q1 -59 2 -128q0 -8 3 -30t11 -45.5t23 -42t39 -18.5t46.5 12t42 30t35.5 38.5t27 37.5q2 2 5 2q7 0 11.5 -14
t4.5 -26zM546 1054q0 29 -21 50t-50 21q-30 0 -50.5 -21t-20.5 -50q0 -30 20.5 -50.5t50.5 -20.5q29 0 50 20.5t21 50.5z" />
    <glyph glyph-name="AE" unicode="&#xc6;" horiz-adv-x="1580" 
d="M1196 110q0 -68 -28 -125t-77.5 -99t-117.5 -65.5t-148 -23.5q-68 0 -125.5 23.5t-99.5 63t-66 92t-24 110.5q0 9 0.5 18t1.5 18l-3 -3q-64 -64 -113 -106t-87 -42q-79 0 -137 25.5t-95.5 69.5t-56 102.5t-18.5 124.5q0 65 17.5 134t52 134.5t84.5 123.5t115.5 101
t145.5 68.5t173 25.5q20 0 59 -6t81 -19q32 11 65 16.5t66 5.5q51 0 98.5 -12.5t84.5 -35.5t59 -56.5t22 -76.5q0 -13 -9 -26.5t-29 -22.5l-240 -111q-3 -2 -6 -3q-8 -2 -13 -2q-8 0 -14 6.5t-10 14t-5.5 14.5t-1.5 8q0 4 3.5 10t14.5 11q9 4 34 17.5t51 28.5q31 18 67 38
q3 1 7 5q2 2 4.5 6t2.5 9q0 23 -11.5 44t-31 37t-44.5 25.5t-51 9.5q-27 0 -53.5 -12t-47.5 -39t-34 -71t-13 -108q0 -49 17.5 -97t56.5 -86q26 8 52 12t53 4q63 0 93 -21.5t30 -48.5q0 -15 -9 -29t-26 -25.5t-43.5 -18.5t-60.5 -7q-29 0 -55 4t-49 12q-32 -36 -53 -77.5
t-21 -92.5q0 -39 17.5 -81t44.5 -76.5t60 -56.5t65 -22q40 0 74 24.5t58 62t37.5 83.5t13.5 90q0 22 13 38t42 16q17 0 33 -5.5t28.5 -14t20 -19.5t8.5 -23q0 -4 0.5 -9t0.5 -11zM651 343q-54 48 -81 114.5t-27 136.5q0 72 26 123.5t68 86.5q-32 8 -74 8q-63 0 -116.5 -19.5
t-97 -53.5t-77.5 -79t-56.5 -96t-34.5 -104.5t-12 -103.5t12 -94t36 -77t61 -52.5t88 -19.5q15 0 44 19t61 45t62 53.5t47 45.5t34 35.5t37 31.5z" />
    <glyph glyph-name="Ccedilla" unicode="&#xc7;" horiz-adv-x="719" 
d="M755 189q0 -9 -2 -12q-43 -59 -98 -105q-24 -20 -52.5 -39t-61.5 -33.5t-70.5 -23.5t-79.5 -9q-46 0 -86 9l-9 -26q0 -5 5 -9.5t21 -8.5q51 -14 72.5 -37.5t21.5 -50.5q0 -22 -12 -43.5t-33 -38.5t-49 -27.5t-59 -10.5q-27 0 -55 9t-56 30q1 2 2.5 8.5t5.5 6.5
q2 0 4.5 -1t4.5 -2q3 -1 5 -2q42 -15 75 -15q40 0 62.5 16.5t22.5 34.5q0 15 -17 26.5t-53 11.5q-16 0 -28 1.5t-13 10.5l44 128q-65 22 -114.5 66t-83 101.5t-50.5 125t-17 136.5q0 120 37.5 206t96.5 141t132 81t144 26q52 0 99.5 -13.5t83.5 -39t57.5 -62t21.5 -83.5
q0 -7 -3 -17t-17 -18l-206 -129q-1 -1 -3 -2t-8 -1q-13 0 -19.5 12.5t-6.5 23.5t6 17l122 82q-10 45 -28 81q-16 31 -43 56.5t-69 25.5q-58 0 -102 -28t-74 -74.5t-45 -106t-15 -123.5q0 -71 18.5 -140.5t56.5 -124.5t95.5 -89t135.5 -34q60 0 120 24t117 81q8 8 14.5 18
t13.5 21q2 2 5 2q7 0 11.5 -14t4.5 -26z" />
    <glyph glyph-name="Egrave" unicode="&#xc8;" horiz-adv-x="707" 
d="M481 924q0 -7 -3.5 -9t-8.5 -2q-2 0 -22 16t-50 41t-65 55t-64.5 57t-50 48t-21.5 28q0 14 12.5 17t33.5 3q35 0 55.5 -0.5t32.5 -2t17.5 -4.5t10.5 -9q34 -61 61 -111q12 -21 23 -42t19.5 -38.5t14 -30t5.5 -16.5zM686 110q0 -68 -28 -125t-77.5 -99t-117.5 -65.5
t-148 -23.5q-68 0 -125.5 23.5t-99.5 63t-66 92t-24 110.5q0 79 39 145.5t102 111.5q-54 48 -81 114.5t-27 136.5q0 74 28 127.5t73 88t101.5 51t114.5 16.5q51 0 99 -12.5t84.5 -35.5t59 -56.5t22.5 -76.5q0 -13 -9 -26.5t-29 -22.5l-240 -111q-3 -2 -6 -3q-8 -2 -13 -2
q-8 0 -14 6.5t-10 14t-5.5 14.5t-1.5 8q0 4 3.5 10t14.5 11q9 4 34 17.5t51 28.5q31 18 67 38q3 1 7 5q2 2 4.5 6t2.5 9q0 23 -11.5 44t-31 37t-44.5 25.5t-51 9.5q-27 0 -53.5 -12t-47.5 -39t-34 -71t-13 -108q0 -49 17.5 -97t56.5 -86q26 8 52 12t53 4q63 0 93 -21.5
t30 -48.5q0 -15 -9 -29t-26 -25.5t-43.5 -18.5t-60.5 -7q-29 0 -55 4t-49 12q-32 -36 -53 -77.5t-21 -92.5q0 -39 17.5 -81t44.5 -76.5t60 -56.5t65 -22q40 0 74 24.5t58 62t37.5 83.5t13.5 90q0 22 13 38t42 16q17 0 33 -5.5t28.5 -14t20 -19.5t8.5 -23q0 -4 0.5 -9
t0.5 -11z" />
    <glyph glyph-name="Eacute" unicode="&#xc9;" horiz-adv-x="707" 
d="M520 1170q-1 -7 -21.5 -28t-50.5 -48t-64.5 -57t-64.5 -55t-50.5 -41t-21.5 -16q-5 0 -8.5 2t-3.5 9q0 4 5 16.5t13.5 30t19.5 38.5t23 42q27 50 62 111q5 6 10.5 9t17.5 4.5t32.5 2t55.5 0.5q21 0 33.5 -3t12.5 -17zM686 110q0 -68 -28 -125t-77.5 -99t-117.5 -65.5
t-148 -23.5q-68 0 -125.5 23.5t-99.5 63t-66 92t-24 110.5q0 79 39 145.5t102 111.5q-54 48 -81 114.5t-27 136.5q0 74 28 127.5t73 88t101.5 51t114.5 16.5q51 0 99 -12.5t84.5 -35.5t59 -56.5t22.5 -76.5q0 -13 -9 -26.5t-29 -22.5l-240 -111q-3 -2 -6 -3q-8 -2 -13 -2
q-8 0 -14 6.5t-10 14t-5.5 14.5t-1.5 8q0 4 3.5 10t14.5 11q9 4 34 17.5t51 28.5q31 18 67 38q3 1 7 5q2 2 4.5 6t2.5 9q0 23 -11.5 44t-31 37t-44.5 25.5t-51 9.5q-27 0 -53.5 -12t-47.5 -39t-34 -71t-13 -108q0 -49 17.5 -97t56.5 -86q26 8 52 12t53 4q63 0 93 -21.5
t30 -48.5q0 -15 -9 -29t-26 -25.5t-43.5 -18.5t-60.5 -7q-29 0 -55 4t-49 12q-32 -36 -53 -77.5t-21 -92.5q0 -39 17.5 -81t44.5 -76.5t60 -56.5t65 -22q40 0 74 24.5t58 62t37.5 83.5t13.5 90q0 22 13 38t42 16q17 0 33 -5.5t28.5 -14t20 -19.5t8.5 -23q0 -4 0.5 -9
t0.5 -11z" />
    <glyph glyph-name="Ecircumflex" unicode="&#xca;" horiz-adv-x="707" 
d="M569 915q0 -4 -2.5 -8t-13.5 -4q-13 0 -37 11t-52 30t-57.5 44.5t-53.5 54.5q-24 -29 -53.5 -54.5t-58 -44.5t-52 -30t-36.5 -11q-11 0 -13.5 4t-2.5 8v4q0 1 1 2q25 16 47.5 42t43 56t38 61t32.5 56l5.5 10t13.5 21.5t17.5 21t16.5 9.5q11 0 21 -10t18 -21
q10 -13 18 -30q15 -25 32 -56t37 -61t42 -56.5t48 -42.5v-2q0 -1 0.5 -2t0.5 -2zM686 110q0 -68 -28 -125t-77.5 -99t-117.5 -65.5t-148 -23.5q-68 0 -125.5 23.5t-99.5 63t-66 92t-24 110.5q0 79 39 145.5t102 111.5q-54 48 -81 114.5t-27 136.5q0 74 28 127.5t73 88
t101.5 51t114.5 16.5q51 0 99 -12.5t84.5 -35.5t59 -56.5t22.5 -76.5q0 -13 -9 -26.5t-29 -22.5l-240 -111q-3 -2 -6 -3q-8 -2 -13 -2q-8 0 -14 6.5t-10 14t-5.5 14.5t-1.5 8q0 4 3.5 10t14.5 11q9 4 34 17.5t51 28.5q31 18 67 38q3 1 7 5q2 2 4.5 6t2.5 9q0 23 -11.5 44
t-31 37t-44.5 25.5t-51 9.5q-27 0 -53.5 -12t-47.5 -39t-34 -71t-13 -108q0 -49 17.5 -97t56.5 -86q26 8 52 12t53 4q63 0 93 -21.5t30 -48.5q0 -15 -9 -29t-26 -25.5t-43.5 -18.5t-60.5 -7q-29 0 -55 4t-49 12q-32 -36 -53 -77.5t-21 -92.5q0 -39 17.5 -81t44.5 -76.5
t60 -56.5t65 -22q40 0 74 24.5t58 62t37.5 83.5t13.5 90q0 22 13 38t42 16q17 0 33 -5.5t28.5 -14t20 -19.5t8.5 -23q0 -4 0.5 -9t0.5 -11z" />
    <glyph glyph-name="Edieresis" unicode="&#xcb;" horiz-adv-x="707" 
d="M537 1036q0 -33 -23.5 -56t-55.5 -23q-33 0 -56 23t-23 56q0 32 23 55.5t56 23.5q32 0 55.5 -23.5t23.5 -55.5zM327 1036q0 -33 -23.5 -56t-55.5 -23q-33 0 -56 23t-23 56q0 32 23 55.5t56 23.5q32 0 55.5 -23.5t23.5 -55.5zM686 110q0 -68 -28 -125t-77.5 -99
t-117.5 -65.5t-148 -23.5q-68 0 -125.5 23.5t-99.5 63t-66 92t-24 110.5q0 79 39 145.5t102 111.5q-54 48 -81 114.5t-27 136.5q0 74 28 127.5t73 88t101.5 51t114.5 16.5q51 0 99 -12.5t84.5 -35.5t59 -56.5t22.5 -76.5q0 -13 -9 -26.5t-29 -22.5l-240 -111q-3 -2 -6 -3
q-8 -2 -13 -2q-8 0 -14 6.5t-10 14t-5.5 14.5t-1.5 8q0 4 3.5 10t14.5 11q9 4 34 17.5t51 28.5q31 18 67 38q3 1 7 5q2 2 4.5 6t2.5 9q0 23 -11.5 44t-31 37t-44.5 25.5t-51 9.5q-27 0 -53.5 -12t-47.5 -39t-34 -71t-13 -108q0 -49 17.5 -97t56.5 -86q26 8 52 12t53 4
q63 0 93 -21.5t30 -48.5q0 -15 -9 -29t-26 -25.5t-43.5 -18.5t-60.5 -7q-29 0 -55 4t-49 12q-32 -36 -53 -77.5t-21 -92.5q0 -39 17.5 -81t44.5 -76.5t60 -56.5t65 -22q40 0 74 24.5t58 62t37.5 83.5t13.5 90q0 22 13 38t42 16q17 0 33 -5.5t28.5 -14t20 -19.5t8.5 -23
q0 -4 0.5 -9t0.5 -11z" />
    <glyph glyph-name="Igrave" unicode="&#xcc;" horiz-adv-x="613" 
d="M545 948q0 -7 -3.5 -9t-8.5 -2q-2 0 -22 16t-50 41t-65 55t-64.5 57t-50 48t-21.5 28q0 14 12.5 17t33.5 3q35 0 55.5 -0.5t32.5 -2t17.5 -4.5t10.5 -9q34 -61 61 -111q12 -21 23 -42t19.5 -38.5t14 -30t5.5 -16.5zM688 480q0 -8 -5 -11.5t-10 -6.5q-11 -5 -48 -18
t-87 -24v-160q0 -55 -14.5 -108.5t-49.5 -96t-93 -68.5t-145 -26q-3 0 -22 1.5t-45 6t-56 11.5t-55 18.5t-41.5 27.5t-16.5 38q0 8 3.5 22t12 27t21 22.5t30.5 9.5q10 0 26.5 -8t35 -20.5t39.5 -27t40.5 -27t37 -20.5t29.5 -8q26 0 47 18.5t36 47t23.5 63.5t8.5 67
q0 40 -1 84.5t-3 91.5q-52 2 -107 10t-100.5 24t-75 41t-29.5 61q0 45 24 86.5t63 77.5t88.5 65t101 50t99.5 32.5t85 11.5q7 0 15 -3t7 -20q-3 -53 -6 -97.5t-5.5 -87.5t-4 -86.5t-2.5 -94.5q24 8 53.5 18.5t67.5 27.5q1 0 2 1q1 0 2.5 0.5t3.5 0.5q14 0 17 -14t3 -30z
M393 729q0 5 -3 5q-1 0 -1.5 -0.5t-1.5 -0.5q-1 -1 -2 -1q-15 -8 -39.5 -26t-48 -43.5t-40.5 -57.5t-17 -68q0 -25 34.5 -47t110.5 -28q-1 28 -1 55v53q0 49 2 90t7 69z" />
    <glyph glyph-name="Iacute" unicode="&#xcd;" horiz-adv-x="613" 
d="M560 1128q-1 -7 -21.5 -28t-50 -48t-64.5 -57t-65 -55t-50.5 -41t-21.5 -16q-5 0 -8.5 2t-3.5 9q0 4 5 16.5t13.5 30t19.5 38.5t23 42q27 50 62 111q5 6 10.5 9t17.5 4.5t32.5 2t55.5 0.5q21 0 33.5 -3t12.5 -17zM688 480q0 -8 -5 -11.5t-10 -6.5q-11 -5 -48 -18t-87 -24
v-160q0 -55 -14.5 -108.5t-49.5 -96t-93 -68.5t-145 -26q-3 0 -22 1.5t-45 6t-56 11.5t-55 18.5t-41.5 27.5t-16.5 38q0 8 3.5 22t12 27t21 22.5t30.5 9.5q10 0 26.5 -8t35 -20.5t39.5 -27t40.5 -27t37 -20.5t29.5 -8q26 0 47 18.5t36 47t23.5 63.5t8.5 67q0 40 -1 84.5
t-3 91.5q-52 2 -107 10t-100.5 24t-75 41t-29.5 61q0 45 24 86.5t63 77.5t88.5 65t101 50t99.5 32.5t85 11.5q7 0 15 -3t7 -20q-3 -53 -6 -97.5t-5.5 -87.5t-4 -86.5t-2.5 -94.5q24 8 53.5 18.5t67.5 27.5q1 0 2 1q1 0 2.5 0.5t3.5 0.5q14 0 17 -14t3 -30zM393 729q0 5 -3 5
q-1 0 -1.5 -0.5t-1.5 -0.5q-1 -1 -2 -1q-15 -8 -39.5 -26t-48 -43.5t-40.5 -57.5t-17 -68q0 -25 34.5 -47t110.5 -28q-1 28 -1 55v53q0 49 2 90t7 69z" />
    <glyph glyph-name="Icircumflex" unicode="&#xce;" horiz-adv-x="613" 
d="M609 927q0 -4 -2.5 -8t-13.5 -4q-13 0 -37 11t-52 30t-57.5 44.5t-53.5 54.5q-24 -29 -53.5 -54.5t-58 -44.5t-52 -30t-36.5 -11q-11 0 -13.5 4t-2.5 8v4q0 1 1 2q25 16 47.5 42t43 56t38 61t32.5 56l5.5 10t13.5 21.5t17.5 21t16.5 9.5q11 0 21 -10t18 -21
q10 -13 18 -30q15 -25 32 -56t37 -61t42 -56.5t48 -42.5v-2q0 -1 0.5 -2t0.5 -2zM688 480q0 -8 -5 -11.5t-10 -6.5q-11 -5 -48 -18t-87 -24v-160q0 -55 -14.5 -108.5t-49.5 -96t-93 -68.5t-145 -26q-3 0 -22 1.5t-45 6t-56 11.5t-55 18.5t-41.5 27.5t-16.5 38q0 8 3.5 22
t12 27t21 22.5t30.5 9.5q10 0 26.5 -8t35 -20.5t39.5 -27t40.5 -27t37 -20.5t29.5 -8q26 0 47 18.5t36 47t23.5 63.5t8.5 67q0 40 -1 84.5t-3 91.5q-52 2 -107 10t-100.5 24t-75 41t-29.5 61q0 45 24 86.5t63 77.5t88.5 65t101 50t99.5 32.5t85 11.5q7 0 15 -3t7 -20
q-3 -53 -6 -97.5t-5.5 -87.5t-4 -86.5t-2.5 -94.5q24 8 53.5 18.5t67.5 27.5q1 0 2 1q1 0 2.5 0.5t3.5 0.5q14 0 17 -14t3 -30zM393 729q0 5 -3 5q-1 0 -1.5 -0.5t-1.5 -0.5q-1 -1 -2 -1q-15 -8 -39.5 -26t-48 -43.5t-40.5 -57.5t-17 -68q0 -25 34.5 -47t110.5 -28
q-1 28 -1 55v53q0 49 2 90t7 69z" />
    <glyph glyph-name="Idieresis" unicode="&#xcf;" horiz-adv-x="613" 
d="M583 1039q0 -33 -23.5 -56t-55.5 -23q-33 0 -56 23t-23 56q0 32 23 55.5t56 23.5q32 0 55.5 -23.5t23.5 -55.5zM373 1039q0 -33 -23.5 -56t-55.5 -23q-33 0 -56 23t-23 56q0 32 23 55.5t56 23.5q32 0 55.5 -23.5t23.5 -55.5zM688 480q0 -8 -5 -11.5t-10 -6.5
q-11 -5 -48 -18t-87 -24v-160q0 -55 -14.5 -108.5t-49.5 -96t-93 -68.5t-145 -26q-3 0 -22 1.5t-45 6t-56 11.5t-55 18.5t-41.5 27.5t-16.5 38q0 8 3.5 22t12 27t21 22.5t30.5 9.5q10 0 26.5 -8t35 -20.5t39.5 -27t40.5 -27t37 -20.5t29.5 -8q26 0 47 18.5t36 47t23.5 63.5
t8.5 67q0 40 -1 84.5t-3 91.5q-52 2 -107 10t-100.5 24t-75 41t-29.5 61q0 45 24 86.5t63 77.5t88.5 65t101 50t99.5 32.5t85 11.5q7 0 15 -3t7 -20q-3 -53 -6 -97.5t-5.5 -87.5t-4 -86.5t-2.5 -94.5q24 8 53.5 18.5t67.5 27.5q1 0 2 1q1 0 2.5 0.5t3.5 0.5q14 0 17 -14
t3 -30zM393 729q0 5 -3 5q-1 0 -1.5 -0.5t-1.5 -0.5q-1 -1 -2 -1q-15 -8 -39.5 -26t-48 -43.5t-40.5 -57.5t-17 -68q0 -25 34.5 -47t110.5 -28q-1 28 -1 55v53q0 49 2 90t7 69z" />
    <glyph glyph-name="Eth" unicode="&#xd0;" horiz-adv-x="947" 
d="M906 398q0 -74 -26.5 -148.5t-78 -134t-129 -97t-179.5 -37.5q-18 0 -34 1t-33.5 4t-37.5 9t-47 16q-9 4 -18 4t-25.5 -6.5t-40 -15t-53 -15t-64.5 -6.5q-63 0 -93 20.5t-30 47.5q0 17 11.5 34t33 31t53.5 23t73 9q14 0 29.5 -2.5t31.5 -6.5q18 28 27.5 66.5t13.5 83.5
q-46 -20 -86.5 -40.5t-65.5 -36.5q-13 0 -23 8t-10 21q0 8 5 17t18 20q27 23 70.5 47t93.5 46q-1 50 -5.5 101.5t-10 98t-11 86t-6.5 66.5q-1 11 7 18.5t19.5 12t24 6.5t20.5 2q52 0 69 -21t17 -71q0 -35 2.5 -102.5t3.5 -148.5q29 9 55 14t46 5q17 0 25 -8.5t8 -20.5
q0 -17 -15 -34t-39 -17q-14 0 -34.5 -5t-46.5 -13q-2 -71 -8.5 -134.5t-22.5 -105.5q40 -9 88 -9q64 0 110.5 25t77.5 66.5t46 96t15 114.5q0 104 -35 180t-92 126t-129 74.5t-145 24.5q-86 0 -148.5 -26.5t-103.5 -65.5t-61 -84.5t-20 -83.5q0 -36 17 -59t50 -23
q15 0 30.5 2.5t29 5t24 5t15.5 2.5q11 0 21 -5t15 -19q1 -6 2 -13q1 -6 2 -13.5t1 -15.5q0 -21 -9.5 -33.5t-24.5 -20t-32.5 -10t-33.5 -2.5q-43 0 -75.5 14t-54 38t-32 56.5t-10.5 69.5q0 59 27.5 123t82 117t136.5 87.5t192 34.5q97 0 193.5 -27.5t173.5 -84.5t125 -146
t48 -212z" />
    <glyph glyph-name="Ntilde" unicode="&#xd1;" horiz-adv-x="822" 
d="M592 1059q0 -1 -10 -21.5t-31 -44.5t-53 -43.5t-75 -19.5q-26 0 -50.5 13.5t-46.5 29.5t-41.5 29.5t-34.5 13.5t-37 -15.5t-40 -38.5q-6 0 -14.5 2t-8.5 9q0 8 14 25.5t37 35t52.5 31t60.5 13.5q28 0 50 -10t43 -22.5t42.5 -22.5t47.5 -10q12 0 20 2.5t15.5 8.5t15 16.5
t18.5 27.5q7 -1 13 -2q5 -2 9 -3.5t4 -3.5zM858 189q0 -9 -2 -12q-22 -32 -49 -65.5t-55.5 -61t-56 -45t-50.5 -17.5q-39 0 -67.5 33.5t-49 88.5t-34.5 125.5t-22 144.5t-12 145.5t-6 127.5q0 4 -1 7.5t-5 4.5h-1q-1 0 -2 0.5t-2 0.5q-11 0 -28 -12.5t-36.5 -32.5t-39.5 -45
t-37.5 -51t-30.5 -49.5t-18 -40.5q-2 -5 -3 -12q-1 -6 -1.5 -15.5t-0.5 -21.5q0 -2 0.5 -28.5t1.5 -65t2 -84t2.5 -86t2.5 -70.5t2 -38q0 -7 -3 -16.5t-14 -9.5q-31 0 -57 1q-22 0 -41.5 0.5t-24.5 0.5q-4 0 -10.5 3.5t-6.5 19.5q-1 44 -1.5 120t-0.5 164v117.5t0.5 113.5
t0.5 98.5v74.5q0 8 -7 8q-12 0 -47.5 -26.5t-77.5 -82.5q-2 -3 -6 -6q-8 -6 -15 -6q-5 0 -10 5t-9 11.5t-6.5 13t-2.5 10.5q0 9 5 15q9 11 26.5 30t41.5 41.5t54 45.5t62.5 41.5t67.5 30.5t70 12q5 0 10.5 -2.5t5.5 -13.5q-1 -6 -2.5 -21.5t-3 -36.5t-3 -46t-2.5 -50
q-4 -59 -7 -129q0 -1 1 -2q2 -2 3 -2q2 0 3 2q7 10 26.5 35t47 56.5t60.5 66t67 62.5t66 46.5t58 18.5q8 0 15 -3t9 -11q2 -40 3 -106.5t4 -142t9.5 -153t19.5 -139.5t34.5 -101.5t54.5 -39.5q19 0 34.5 8.5t29 22t25 30.5t22.5 34q2 2 5 2q7 0 11.5 -14t4.5 -26z" />
    <glyph glyph-name="Ograve" unicode="&#xd2;" horiz-adv-x="959" 
d="M563 930q0 -7 -3.5 -9t-8.5 -2q-2 0 -22 16t-50 41t-64.5 55t-64.5 57t-50.5 48t-21.5 28q0 14 12.5 17t33.5 3q35 0 55.5 -0.5t32.5 -2t17.5 -4.5t10.5 -9q34 -61 61 -111q12 -21 23 -42t19.5 -38.5t14 -30t5.5 -16.5zM994 189q0 -9 -2 -12q-53 -75 -117.5 -108
t-132.5 -33h-15q-65 -86 -156 -130t-186 -44q-74 0 -143 27.5t-122 83.5t-85.5 142t-32.5 202q0 100 32.5 198t98.5 176t165 126t232 48q25 0 37 -14.5t12 -31.5q0 -13 -7.5 -23t-23.5 -10q-8 0 -13.5 1.5t-26.5 1.5q-83 0 -147.5 -38t-108 -99t-66 -138t-22.5 -155
q0 -71 19 -138t58 -118.5t98.5 -82.5t140.5 -31q50 0 89.5 17.5t69.5 47.5q-52 19 -98.5 55t-81 86.5t-54.5 113.5t-20 135q0 69 15.5 118.5t41 82t59 48t69.5 15.5q46 0 92 -23t83.5 -67t61 -107t23.5 -143q0 -81 -17 -148.5t-47 -123.5h3q54 0 107.5 30.5t98.5 100.5
q2 2 5 2q7 0 10.5 -14t3.5 -26zM741 330q0 61 -13.5 107t-35 77t-48 46.5t-52.5 15.5q-21 0 -40.5 -10t-34 -30t-23.5 -50.5t-9 -70.5q0 -50 15.5 -97t42.5 -87t63.5 -71t77.5 -47q29 48 43 104.5t14 112.5z" />
    <glyph glyph-name="Oacute" unicode="&#xd3;" horiz-adv-x="959" 
d="M626 1161q-1 -7 -21.5 -28t-50 -48t-64.5 -57t-65 -55t-50.5 -41t-21.5 -16q-5 0 -8.5 2t-3.5 9q0 4 5 16.5t13.5 30t19.5 38.5t23 42q27 50 62 111q5 6 10.5 9t17.5 4.5t32.5 2t55.5 0.5q21 0 33.5 -3t12.5 -17zM994 189q0 -9 -2 -12q-53 -75 -117.5 -108t-132.5 -33
h-15q-65 -86 -156 -130t-186 -44q-74 0 -143 27.5t-122 83.5t-85.5 142t-32.5 202q0 100 32.5 198t98.5 176t165 126t232 48q25 0 37 -14.5t12 -31.5q0 -13 -7.5 -23t-23.5 -10q-8 0 -13.5 1.5t-26.5 1.5q-83 0 -147.5 -38t-108 -99t-66 -138t-22.5 -155q0 -71 19 -138
t58 -118.5t98.5 -82.5t140.5 -31q50 0 89.5 17.5t69.5 47.5q-52 19 -98.5 55t-81 86.5t-54.5 113.5t-20 135q0 69 15.5 118.5t41 82t59 48t69.5 15.5q46 0 92 -23t83.5 -67t61 -107t23.5 -143q0 -81 -17 -148.5t-47 -123.5h3q54 0 107.5 30.5t98.5 100.5q2 2 5 2
q7 0 10.5 -14t3.5 -26zM741 330q0 61 -13.5 107t-35 77t-48 46.5t-52.5 15.5q-21 0 -40.5 -10t-34 -30t-23.5 -50.5t-9 -70.5q0 -50 15.5 -97t42.5 -87t63.5 -71t77.5 -47q29 48 43 104.5t14 112.5z" />
    <glyph glyph-name="Ocircumflex" unicode="&#xd4;" horiz-adv-x="959" 
d="M629 918q0 -4 -2.5 -8t-13.5 -4q-13 0 -37 11t-52 30t-57.5 44.5t-53.5 54.5q-24 -29 -53.5 -54.5t-58 -44.5t-52 -30t-36.5 -11q-11 0 -13.5 4t-2.5 8v4q0 1 1 2q25 16 47.5 42t43 56t38 61t32.5 56l5.5 10t13.5 21.5t17.5 21t16.5 9.5q11 0 21 -10t18 -21
q10 -13 18 -30q15 -25 32 -56t37 -61t42 -56.5t48 -42.5v-2q0 -1 0.5 -2t0.5 -2zM994 189q0 -9 -2 -12q-53 -75 -117.5 -108t-132.5 -33h-15q-65 -86 -156 -130t-186 -44q-74 0 -143 27.5t-122 83.5t-85.5 142t-32.5 202q0 100 32.5 198t98.5 176t165 126t232 48
q25 0 37 -14.5t12 -31.5q0 -13 -7.5 -23t-23.5 -10q-8 0 -13.5 1.5t-26.5 1.5q-83 0 -147.5 -38t-108 -99t-66 -138t-22.5 -155q0 -71 19 -138t58 -118.5t98.5 -82.5t140.5 -31q50 0 89.5 17.5t69.5 47.5q-52 19 -98.5 55t-81 86.5t-54.5 113.5t-20 135q0 69 15.5 118.5
t41 82t59 48t69.5 15.5q46 0 92 -23t83.5 -67t61 -107t23.5 -143q0 -81 -17 -148.5t-47 -123.5h3q54 0 107.5 30.5t98.5 100.5q2 2 5 2q7 0 10.5 -14t3.5 -26zM741 330q0 61 -13.5 107t-35 77t-48 46.5t-52.5 15.5q-21 0 -40.5 -10t-34 -30t-23.5 -50.5t-9 -70.5
q0 -50 15.5 -97t42.5 -87t63.5 -71t77.5 -47q29 48 43 104.5t14 112.5z" />
    <glyph glyph-name="Otilde" unicode="&#xd5;" horiz-adv-x="959" 
d="M614 1053q0 -1 -10 -21.5t-31 -44.5t-53 -43.5t-75 -19.5q-26 0 -50.5 13.5t-46.5 29.5t-41.5 29.5t-34.5 13.5t-37 -15.5t-40 -38.5q-6 0 -14.5 2t-8.5 9q0 8 14 25.5t37 35t52.5 31t60.5 13.5q28 0 50 -10t43 -22.5t42.5 -22.5t47.5 -10q12 0 20 2.5t15.5 8.5t15 16.5
t18.5 27.5q7 -1 13 -2q5 -2 9 -3.5t4 -3.5zM994 189q0 -9 -2 -12q-53 -75 -117.5 -108t-132.5 -33h-15q-65 -86 -156 -130t-186 -44q-74 0 -143 27.5t-122 83.5t-85.5 142t-32.5 202q0 100 32.5 198t98.5 176t165 126t232 48q25 0 37 -14.5t12 -31.5q0 -13 -7.5 -23
t-23.5 -10q-8 0 -13.5 1.5t-26.5 1.5q-83 0 -147.5 -38t-108 -99t-66 -138t-22.5 -155q0 -71 19 -138t58 -118.5t98.5 -82.5t140.5 -31q50 0 89.5 17.5t69.5 47.5q-52 19 -98.5 55t-81 86.5t-54.5 113.5t-20 135q0 69 15.5 118.5t41 82t59 48t69.5 15.5q46 0 92 -23
t83.5 -67t61 -107t23.5 -143q0 -81 -17 -148.5t-47 -123.5h3q54 0 107.5 30.5t98.5 100.5q2 2 5 2q7 0 10.5 -14t3.5 -26zM741 330q0 61 -13.5 107t-35 77t-48 46.5t-52.5 15.5q-21 0 -40.5 -10t-34 -30t-23.5 -50.5t-9 -70.5q0 -50 15.5 -97t42.5 -87t63.5 -71t77.5 -47
q29 48 43 104.5t14 112.5z" />
    <glyph glyph-name="Odieresis" unicode="&#xd6;" horiz-adv-x="959" 
d="M577 1039q0 -33 -23.5 -56t-55.5 -23q-33 0 -56 23t-23 56q0 32 23 55.5t56 23.5q32 0 55.5 -23.5t23.5 -55.5zM367 1039q0 -33 -23.5 -56t-55.5 -23q-33 0 -56 23t-23 56q0 32 23 55.5t56 23.5q32 0 55.5 -23.5t23.5 -55.5zM994 189q0 -9 -2 -12q-53 -75 -117.5 -108
t-132.5 -33h-15q-65 -86 -156 -130t-186 -44q-74 0 -143 27.5t-122 83.5t-85.5 142t-32.5 202q0 100 32.5 198t98.5 176t165 126t232 48q25 0 37 -14.5t12 -31.5q0 -13 -7.5 -23t-23.5 -10q-8 0 -13.5 1.5t-26.5 1.5q-83 0 -147.5 -38t-108 -99t-66 -138t-22.5 -155
q0 -71 19 -138t58 -118.5t98.5 -82.5t140.5 -31q50 0 89.5 17.5t69.5 47.5q-52 19 -98.5 55t-81 86.5t-54.5 113.5t-20 135q0 69 15.5 118.5t41 82t59 48t69.5 15.5q46 0 92 -23t83.5 -67t61 -107t23.5 -143q0 -81 -17 -148.5t-47 -123.5h3q54 0 107.5 30.5t98.5 100.5
q2 2 5 2q7 0 10.5 -14t3.5 -26zM741 330q0 61 -13.5 107t-35 77t-48 46.5t-52.5 15.5q-21 0 -40.5 -10t-34 -30t-23.5 -50.5t-9 -70.5q0 -50 15.5 -97t42.5 -87t63.5 -71t77.5 -47q29 48 43 104.5t14 112.5z" />
    <glyph glyph-name="multiply" unicode="&#xd7;" horiz-adv-x="381" 
d="M342 154q0 -6 -6 -11t-13.5 -9t-15.5 -6t-11 -2q-10 0 -16 6l-95 94l-93 -94q-6 -6 -16 -6q-3 0 -11 2t-15.5 6t-13.5 9t-6 11q0 5 5 12l105 105l-105 105q-5 8 -5 12q0 6 6 11t13.5 9t15.5 6t11 2q10 0 16 -6l93 -94l95 94q6 6 16 6q3 0 11 -2t15.5 -6t13.5 -9t6 -11
q0 -5 -6 -11l-106 -106l106 -106q6 -6 6 -11z" />
    <glyph glyph-name="Oslash" unicode="&#xd8;" horiz-adv-x="787" 
d="M765 446q0 -88 -25 -173.5t-73 -153.5t-117.5 -110t-158.5 -42q-68 0 -124 19.5t-101 54.5l-67 -114q-4 -7 -8 -11q-9 -11 -17 -11q-11 0 -23.5 12t-12.5 24q0 6 5 16l76 129q-58 65 -87.5 151.5t-29.5 178.5q0 122 35 207.5t91 139t127 78t143 24.5q46 0 86 -9t74 -25
l69 116q4 6 8 11t7.5 8.5t8.5 3.5q11 0 24 -12.5t13 -24.5q0 -5 -5 -15l-71 -120q39 -29 68 -68t47.5 -85t28 -96.5t9.5 -102.5zM500 733q-27 28 -58.5 44.5t-66.5 16.5q-40 0 -78 -19t-68 -58.5t-48 -100.5t-18 -145q0 -69 12.5 -126t35.5 -102zM631 352q0 42 -6 86
t-17.5 86.5t-28 82t-37.5 72.5l-293 -497q41 -53 92 -79.5t102 -26.5q50 0 85.5 22.5t58.5 60t33.5 87.5t10.5 106z" />
    <glyph glyph-name="Ugrave" unicode="&#xd9;" horiz-adv-x="855" 
d="M534 879q0 -7 -3.5 -9t-8.5 -2q-2 0 -22 16t-50 41t-65 55t-64.5 57t-50 48t-21.5 28q0 14 12.5 17t33.5 3q35 0 55.5 -0.5t32.5 -2t17.5 -4.5t10.5 -9q34 -61 61 -111q12 -21 23 -42t19.5 -38.5t14 -30t5.5 -16.5zM891 189q0 -9 -2 -12q-26 -39 -53.5 -71.5t-55.5 -56
t-55 -37t-52 -13.5q-23 0 -43 13t-35 41.5t-24.5 73t-12.5 108.5q-24 -39 -53.5 -84t-64 -83t-73.5 -63.5t-82 -25.5q-40 0 -68 15t-47 39.5t-30 56.5t-17 65.5t-7.5 66.5t-1.5 60q0 31 1.5 84t3 113t3.5 118t4 99q-1 1 -3 2q-4 2 -8 2q-17 0 -38 -15.5t-43 -34t-42 -34.5
t-34 -16q-9 2 -15 6q-5 4 -9.5 12t-4.5 23q0 7 4.5 17.5t20.5 22.5q11 9 31 23.5t44.5 31.5t52.5 34t54.5 31t50.5 23t41 9q29 0 45.5 -11t16.5 -34q0 -7 -1 -40t-2 -80.5t-2.5 -102.5t-2.5 -107.5t-2 -95.5t-1 -65q0 -49 5.5 -83t15 -55t22.5 -30.5t29 -9.5q23 0 49.5 16.5
t54 43.5t54 61t48.5 69q0 180 2.5 288.5t11.5 158.5q1 10 6 20q5 8 14 16t26 13q20 5 39.5 8.5t33.5 3.5q21 0 29.5 -13t8.5 -30q0 -8 -3.5 -43.5t-7.5 -88t-7.5 -118t-3.5 -132.5q0 -51 2 -99.5t8.5 -87t18 -61.5t30.5 -23q18 0 44 24.5t61 81.5q2 2 5 2q7 0 11.5 -14
t4.5 -26z" />
    <glyph glyph-name="Uacute" unicode="&#xda;" horiz-adv-x="855" 
d="M678 1140q-1 -7 -21.5 -28t-50 -48t-64.5 -57t-65 -55t-50.5 -41t-21.5 -16q-5 0 -8.5 2t-3.5 9q0 4 5 16.5t13.5 30t19.5 38.5t23 42q27 50 62 111q5 6 10.5 9t17.5 4.5t32.5 2t55.5 0.5q21 0 33.5 -3t12.5 -17zM891 189q0 -9 -2 -12q-26 -39 -53.5 -71.5t-55.5 -56
t-55 -37t-52 -13.5q-23 0 -43 13t-35 41.5t-24.5 73t-12.5 108.5q-24 -39 -53.5 -84t-64 -83t-73.5 -63.5t-82 -25.5q-40 0 -68 15t-47 39.5t-30 56.5t-17 65.5t-7.5 66.5t-1.5 60q0 31 1.5 84t3 113t3.5 118t4 99q-1 1 -3 2q-4 2 -8 2q-17 0 -38 -15.5t-43 -34t-42 -34.5
t-34 -16q-9 2 -15 6q-5 4 -9.5 12t-4.5 23q0 7 4.5 17.5t20.5 22.5q11 9 31 23.5t44.5 31.5t52.5 34t54.5 31t50.5 23t41 9q29 0 45.5 -11t16.5 -34q0 -7 -1 -40t-2 -80.5t-2.5 -102.5t-2.5 -107.5t-2 -95.5t-1 -65q0 -49 5.5 -83t15 -55t22.5 -30.5t29 -9.5q23 0 49.5 16.5
t54 43.5t54 61t48.5 69q0 180 2.5 288.5t11.5 158.5q1 10 6 20q5 8 14 16t26 13q20 5 39.5 8.5t33.5 3.5q21 0 29.5 -13t8.5 -30q0 -8 -3.5 -43.5t-7.5 -88t-7.5 -118t-3.5 -132.5q0 -51 2 -99.5t8.5 -87t18 -61.5t30.5 -23q18 0 44 24.5t61 81.5q2 2 5 2q7 0 11.5 -14
t4.5 -26z" />
    <glyph glyph-name="Ucircumflex" unicode="&#xdb;" horiz-adv-x="855" 
d="M643 927q0 -4 -2.5 -8t-13.5 -4q-13 0 -37 11t-52 30t-57.5 44.5t-53.5 54.5q-24 -29 -53.5 -54.5t-58 -44.5t-52 -30t-36.5 -11q-11 0 -13.5 4t-2.5 8v4q0 1 1 2q25 16 47.5 42t43 56t38 61t32.5 56l5.5 10t13.5 21.5t17.5 21t16.5 9.5q11 0 21 -10t18 -21
q10 -13 18 -30q15 -25 32 -56t37 -61t42 -56.5t48 -42.5v-2q0 -1 0.5 -2t0.5 -2zM891 189q0 -9 -2 -12q-26 -39 -53.5 -71.5t-55.5 -56t-55 -37t-52 -13.5q-23 0 -43 13t-35 41.5t-24.5 73t-12.5 108.5q-24 -39 -53.5 -84t-64 -83t-73.5 -63.5t-82 -25.5q-40 0 -68 15
t-47 39.5t-30 56.5t-17 65.5t-7.5 66.5t-1.5 60q0 31 1.5 84t3 113t3.5 118t4 99q-1 1 -3 2q-4 2 -8 2q-17 0 -38 -15.5t-43 -34t-42 -34.5t-34 -16q-9 2 -15 6q-5 4 -9.5 12t-4.5 23q0 7 4.5 17.5t20.5 22.5q11 9 31 23.5t44.5 31.5t52.5 34t54.5 31t50.5 23t41 9
q29 0 45.5 -11t16.5 -34q0 -7 -1 -40t-2 -80.5t-2.5 -102.5t-2.5 -107.5t-2 -95.5t-1 -65q0 -49 5.5 -83t15 -55t22.5 -30.5t29 -9.5q23 0 49.5 16.5t54 43.5t54 61t48.5 69q0 180 2.5 288.5t11.5 158.5q1 10 6 20q5 8 14 16t26 13q20 5 39.5 8.5t33.5 3.5q21 0 29.5 -13
t8.5 -30q0 -8 -3.5 -43.5t-7.5 -88t-7.5 -118t-3.5 -132.5q0 -51 2 -99.5t8.5 -87t18 -61.5t30.5 -23q18 0 44 24.5t61 81.5q2 2 5 2q7 0 11.5 -14t4.5 -26z" />
    <glyph glyph-name="Udieresis" unicode="&#xdc;" horiz-adv-x="855" 
d="M611 1003q0 -33 -23.5 -56t-55.5 -23q-33 0 -56 23t-23 56q0 32 23 55.5t56 23.5q32 0 55.5 -23.5t23.5 -55.5zM401 1003q0 -33 -23.5 -56t-55.5 -23q-33 0 -56 23t-23 56q0 32 23 55.5t56 23.5q32 0 55.5 -23.5t23.5 -55.5zM891 189q0 -9 -2 -12q-26 -39 -53.5 -71.5
t-55.5 -56t-55 -37t-52 -13.5q-23 0 -43 13t-35 41.5t-24.5 73t-12.5 108.5q-24 -39 -53.5 -84t-64 -83t-73.5 -63.5t-82 -25.5q-40 0 -68 15t-47 39.5t-30 56.5t-17 65.5t-7.5 66.5t-1.5 60q0 31 1.5 84t3 113t3.5 118t4 99q-1 1 -3 2q-4 2 -8 2q-17 0 -38 -15.5t-43 -34
t-42 -34.5t-34 -16q-9 2 -15 6q-5 4 -9.5 12t-4.5 23q0 7 4.5 17.5t20.5 22.5q11 9 31 23.5t44.5 31.5t52.5 34t54.5 31t50.5 23t41 9q29 0 45.5 -11t16.5 -34q0 -7 -1 -40t-2 -80.5t-2.5 -102.5t-2.5 -107.5t-2 -95.5t-1 -65q0 -49 5.5 -83t15 -55t22.5 -30.5t29 -9.5
q23 0 49.5 16.5t54 43.5t54 61t48.5 69q0 180 2.5 288.5t11.5 158.5q1 10 6 20q5 8 14 16t26 13q20 5 39.5 8.5t33.5 3.5q21 0 29.5 -13t8.5 -30q0 -8 -3.5 -43.5t-7.5 -88t-7.5 -118t-3.5 -132.5q0 -51 2 -99.5t8.5 -87t18 -61.5t30.5 -23q18 0 44 24.5t61 81.5q2 2 5 2
q7 0 11.5 -14t4.5 -26z" />
    <glyph glyph-name="Yacute" unicode="&#xdd;" horiz-adv-x="828" 
d="M688 1137q-1 -7 -21.5 -28t-50.5 -48t-64.5 -57t-64.5 -55t-50.5 -41t-21.5 -16q-5 0 -8.5 2t-3.5 9q0 4 5 16.5t13.5 30t19.5 38.5t23 42q27 50 62 111q5 6 10.5 9t17.5 4.5t32.5 2t55.5 0.5q21 0 33.5 -3t12.5 -17zM864 189q0 -9 -2 -12q-30 -48 -71 -80.5t-86 -54.5
v-64q0 -45 -22.5 -83.5t-56.5 -66t-73 -43.5t-72 -16q-39 0 -79.5 21t-73.5 52.5t-54 68t-21 68.5q0 7 4 14.5t21 7.5q2 0 23.5 2.5t57.5 8.5t84.5 16t105.5 25q1 17 2 33.5t2 35.5q1 47 0.5 94.5t0.5 95.5q-24 -35 -53 -72.5t-63.5 -69t-72.5 -52t-80 -20.5q-40 0 -67.5 15
t-45 39.5t-27.5 56.5t-14.5 65.5t-5.5 66.5t-1 60q0 62 4.5 137.5t7.5 157.5q-1 1 -3 2q-4 2 -8 2q-17 0 -38 -15.5t-43 -34t-42 -34.5t-34 -16q-9 2 -15 6q-5 4 -9.5 12t-4.5 23q0 7 4.5 17.5t20.5 22.5q11 9 31 23.5t44.5 31.5t52.5 34t54.5 31t50.5 23t41 9
q29 0 45.5 -11t16.5 -34q0 -7 -1 -31.5t-2 -58t-2.5 -74t-2.5 -79t-2 -73t-1 -56.5q0 -105 22 -148t57 -43q21 0 45 13.5t49 36t48.5 51.5t44.5 60q1 64 2.5 124t3.5 109t4.5 84.5t5.5 52.5q1 10 6 20q5 8 14 16t26 13q20 5 39.5 8.5t33.5 3.5q21 0 29.5 -13t8.5 -30
q0 -8 -3.5 -50t-7 -102.5t-7 -132.5t-3.5 -139q0 -66 -0.5 -129t-1.5 -117q31 14 53 30t38 31.5t27 31.5t20 30q2 2 5 2q7 0 11.5 -14t4.5 -26zM546 -12q-29 -7 -53 -12.5t-41 -11.5q-26 -8 -40.5 -16.5t-14.5 -19.5q0 -9 9 -26t23.5 -34t32.5 -29.5t36 -13.5q27 2 35 43
t13 120z" />
    <glyph glyph-name="Thorn" unicode="&#xde;" horiz-adv-x="757" 
d="M860 358q0 -26 -7 -44.5t-21 -26.5q-77 -46 -130.5 -78t-88.5 -53t-55 -33.5t-30 -20t-12 -12t-2 -10.5q-4 -83 -28 -148q-10 -28 -26 -54.5t-38.5 -47t-53 -33t-70.5 -12.5q-31 0 -68 15.5t-69.5 41t-54 58.5t-21.5 68q0 18 13 31.5t31 21.5t37 12t30 4t17 -4
q6 -5 10.5 -20t9 -34.5t10.5 -41t15.5 -39.5t23.5 -29.5t35 -11.5q17 0 28 21.5t17 52.5t8.5 64.5t2.5 57.5q0 50 -3 115t-8 136.5t-10.5 146t-9.5 143.5q-59 -7 -104.5 -24.5t-77 -42.5t-48 -56.5t-16.5 -66.5q0 -54 41.5 -111t131.5 -107q5 -3 8 -9.5t3 -14.5q0 -9 -3 -16
q-2 -6 -7 -10.5t-14 -4.5q-64 20 -111.5 51t-79.5 69t-48 80.5t-16 86.5q0 50 21 98t63 88.5t104.5 69.5t145.5 41q-2 30 -2 56v49q0 12 4.5 26.5t28.5 19.5q13 3 30.5 6.5t33 7.5t27 6.5t12.5 2.5q5 0 15 -4.5t11 -24.5q0 -7 1 -45t2 -95q62 -7 113 -28.5t91 -52t70 -67
t49.5 -74.5t29 -74.5t9.5 -65.5zM707 298q0 48 -15 93.5t-42 83.5t-65 66t-84 43q1 -71 2.5 -143.5t2.5 -132.5t2 -100t1 -45q0 -1 1 -2t4 -1l4 2q2 1 20 12t44 27.5t56.5 35.5t59.5 37q2 2 4 6q2 3 3.5 7t1.5 11z" />
    <glyph glyph-name="germandbls" unicode="&#xdf;" horiz-adv-x="582" 
d="M618 189q0 -9 -2 -12q-44 -57 -87.5 -95.5t-84 -62t-77 -33t-67.5 -9.5q-28 0 -51 6.5t-39 17t-25 23.5t-9 26q0 15 7.5 28.5t18 24t21.5 16.5t19 6q5 0 9 -1.5t7 -3.5q4 -2 6 -4q9 -7 20 -17.5t24 -20t27 -16.5t29 -7q16 0 28 6t12 36q-13 42 -37.5 75.5t-51.5 64.5
t-53 61t-41 65q-14 -27 -30 -51.5t-34 -47.5l-6 -10q-2 -5 -4 -9.5t-2 -8.5q0 -2 2 -32.5t5 -77t6.5 -100.5t6 -102.5t4.5 -84t2 -43.5q0 -14 -4 -17.5t-11 -4.5q-28 0 -51 1q-20 0 -37 0.5t-22 0.5t-13.5 5t-8.5 22q-2 124 -6 295.5t-4 378.5v97.5t1 100.5q0 20 12 43.5
t30.5 46t41.5 43.5t45.5 37.5t42 26t31.5 9.5q21 0 38 -16.5t29 -42.5t18.5 -57.5t6.5 -62.5q0 -48 -9 -101.5t-26 -109.5q12 -32 34.5 -58.5t49 -51.5t53.5 -49.5t49 -51.5t36 -58.5t14 -69.5v-12t-1 -7q29 15 49.5 41t37.5 53q2 2 5 2q7 0 11.5 -14t4.5 -26zM238 657
q0 52 -12 85t-34 33q-17 0 -27.5 -15.5t-16.5 -40.5t-8.5 -55t-3 -59.5t-0.5 -54.5v-39q0 -17 0.5 -44.5t1.5 -53.5t2 -45l1 -19q2 -2 3 -2q2 0 4 3q1 1 1 3q23 35 39.5 74.5t27.5 79.5t16.5 78.5t5.5 71.5z" />
    <glyph glyph-name="agrave" unicode="&#xe0;" horiz-adv-x="567" 
d="M426 535q0 -7 -3.5 -9t-8.5 -2q-2 0 -22 16t-50 41t-64.5 55t-64.5 57t-50.5 48t-21.5 28q0 14 12.5 17t33.5 3q35 0 55.5 -0.5t32.5 -2t17.5 -4.5t10.5 -9q34 -61 61 -111q12 -21 23 -42t19.5 -38.5t14 -30t5.5 -16.5zM603 189q0 -9 -2 -12q-41 -53 -80 -94
q-17 -18 -34.5 -34.5t-34 -30t-32 -21.5t-27.5 -8q-34 0 -52.5 31.5t-26.5 74.5q-2 -3 -20.5 -21t-45 -38.5t-55.5 -36.5t-51 -16q-29 0 -53.5 15t-42.5 40t-28 58.5t-10 71.5q0 53 22.5 108t73 100t132.5 74t201 29q3 -1 6 -3q2 -2 4.5 -5.5t2.5 -10.5v-275q0 -8 0.5 -17.5
t3.5 -18t8.5 -14t15.5 -5.5q17 -1 36 14.5t34 33.5q9 11 17.5 23.5t16.5 25.5q2 2 5 2q7 0 11.5 -14t4.5 -26zM310 410q-44 -9 -74 -30t-49 -48t-27 -58t-8 -61q0 -24 5 -46t13.5 -38.5t20.5 -26.5t26 -10q12 0 27 10t29 22q16 14 32 32q3 4 3.5 7.5t0.5 5.5v136q0 48 1 105
z" />
    <glyph glyph-name="aacute" unicode="&#xe1;" horiz-adv-x="567" 
d="M515 769q-1 -7 -21.5 -28t-50.5 -48t-64.5 -57t-64.5 -55t-50.5 -41t-21.5 -16q-5 0 -8.5 2t-3.5 9q0 4 5 16.5t13.5 30t19.5 38.5t23 42q27 50 62 111q5 6 10.5 9t17.5 4.5t32.5 2t55.5 0.5q21 0 33.5 -3t12.5 -17zM603 189q0 -9 -2 -12q-41 -53 -80 -94
q-17 -18 -34.5 -34.5t-34 -30t-32 -21.5t-27.5 -8q-34 0 -52.5 31.5t-26.5 74.5q-2 -3 -20.5 -21t-45 -38.5t-55.5 -36.5t-51 -16q-29 0 -53.5 15t-42.5 40t-28 58.5t-10 71.5q0 53 22.5 108t73 100t132.5 74t201 29q3 -1 6 -3q2 -2 4.5 -5.5t2.5 -10.5v-275q0 -8 0.5 -17.5
t3.5 -18t8.5 -14t15.5 -5.5q17 -1 36 14.5t34 33.5q9 11 17.5 23.5t16.5 25.5q2 2 5 2q7 0 11.5 -14t4.5 -26zM310 410q-44 -9 -74 -30t-49 -48t-27 -58t-8 -61q0 -24 5 -46t13.5 -38.5t20.5 -26.5t26 -10q12 0 27 10t29 22q16 14 32 32q3 4 3.5 7.5t0.5 5.5v136q0 48 1 105
z" />
    <glyph glyph-name="acircumflex" unicode="&#xe2;" horiz-adv-x="567" 
d="M500 535q0 -4 -2.5 -8t-13.5 -4q-13 0 -37 11t-52 30t-57.5 44.5t-53.5 54.5q-24 -29 -53.5 -54.5t-58 -44.5t-52 -30t-36.5 -11q-11 0 -13.5 4t-2.5 8v4q0 1 1 2q25 16 47.5 42t43 56t38 61t32.5 56l5.5 10t13.5 21.5t17.5 21t16.5 9.5q11 0 21 -10t18 -21
q10 -13 18 -30q15 -25 32 -56t37 -61t42 -56.5t48 -42.5v-2q0 -1 0.5 -2t0.5 -2zM603 189q0 -9 -2 -12q-41 -53 -80 -94q-17 -18 -34.5 -34.5t-34 -30t-32 -21.5t-27.5 -8q-34 0 -52.5 31.5t-26.5 74.5q-2 -3 -20.5 -21t-45 -38.5t-55.5 -36.5t-51 -16q-29 0 -53.5 15
t-42.5 40t-28 58.5t-10 71.5q0 53 22.5 108t73 100t132.5 74t201 29q3 -1 6 -3q2 -2 4.5 -5.5t2.5 -10.5v-275q0 -8 0.5 -17.5t3.5 -18t8.5 -14t15.5 -5.5q17 -1 36 14.5t34 33.5q9 11 17.5 23.5t16.5 25.5q2 2 5 2q7 0 11.5 -14t4.5 -26zM310 410q-44 -9 -74 -30t-49 -48
t-27 -58t-8 -61q0 -24 5 -46t13.5 -38.5t20.5 -26.5t26 -10q12 0 27 10t29 22q16 14 32 32q3 4 3.5 7.5t0.5 5.5v136q0 48 1 105z" />
    <glyph glyph-name="atilde" unicode="&#xe3;" horiz-adv-x="567" 
d="M523 679q0 -1 -10 -21.5t-31 -44.5t-53 -43.5t-75 -19.5q-26 0 -50.5 13.5t-46.5 29.5t-41.5 29.5t-34.5 13.5t-37 -15.5t-40 -38.5q-6 0 -14.5 2t-8.5 9q0 8 14 25.5t37 35t52.5 31t60.5 13.5q28 0 50 -10t43 -22.5t42.5 -22.5t47.5 -10q12 0 20 2.5t15.5 8.5t15 16.5
t18.5 27.5q7 -1 13 -2q5 -2 9 -3.5t4 -3.5zM603 189q0 -9 -2 -12q-41 -53 -80 -94q-17 -18 -34.5 -34.5t-34 -30t-32 -21.5t-27.5 -8q-34 0 -52.5 31.5t-26.5 74.5q-2 -3 -20.5 -21t-45 -38.5t-55.5 -36.5t-51 -16q-29 0 -53.5 15t-42.5 40t-28 58.5t-10 71.5q0 53 22.5 108
t73 100t132.5 74t201 29q3 -1 6 -3q2 -2 4.5 -5.5t2.5 -10.5v-275q0 -8 0.5 -17.5t3.5 -18t8.5 -14t15.5 -5.5q17 -1 36 14.5t34 33.5q9 11 17.5 23.5t16.5 25.5q2 2 5 2q7 0 11.5 -14t4.5 -26zM310 410q-44 -9 -74 -30t-49 -48t-27 -58t-8 -61q0 -24 5 -46t13.5 -38.5
t20.5 -26.5t26 -10q12 0 27 10t29 22q16 14 32 32q3 4 3.5 7.5t0.5 5.5v136q0 48 1 105z" />
    <glyph glyph-name="adieresis" unicode="&#xe4;" horiz-adv-x="567" 
d="M467 668q0 -33 -23.5 -56t-55.5 -23q-33 0 -56 23t-23 56q0 32 23 55.5t56 23.5q32 0 55.5 -23.5t23.5 -55.5zM257 668q0 -33 -23.5 -56t-55.5 -23q-33 0 -56 23t-23 56q0 32 23 55.5t56 23.5q32 0 55.5 -23.5t23.5 -55.5zM603 189q0 -9 -2 -12q-41 -53 -80 -94
q-17 -18 -34.5 -34.5t-34 -30t-32 -21.5t-27.5 -8q-34 0 -52.5 31.5t-26.5 74.5q-2 -3 -20.5 -21t-45 -38.5t-55.5 -36.5t-51 -16q-29 0 -53.5 15t-42.5 40t-28 58.5t-10 71.5q0 53 22.5 108t73 100t132.5 74t201 29q3 -1 6 -3q2 -2 4.5 -5.5t2.5 -10.5v-275q0 -8 0.5 -17.5
t3.5 -18t8.5 -14t15.5 -5.5q17 -1 36 14.5t34 33.5q9 11 17.5 23.5t16.5 25.5q2 2 5 2q7 0 11.5 -14t4.5 -26zM310 410q-44 -9 -74 -30t-49 -48t-27 -58t-8 -61q0 -24 5 -46t13.5 -38.5t20.5 -26.5t26 -10q12 0 27 10t29 22q16 14 32 32q3 4 3.5 7.5t0.5 5.5v136q0 48 1 105
z" />
    <glyph glyph-name="aring" unicode="&#xe5;" horiz-adv-x="567" 
d="M409 656q0 -24 -9.5 -45t-25 -37t-36.5 -25t-45 -9t-45 9t-37 25t-25 37t-9 45t9 45t25 36.5t37 25t45 9.5t45 -9.5t36.5 -25t25 -36.5t9.5 -45zM603 189q0 -9 -2 -12q-41 -53 -80 -94q-17 -18 -34.5 -34.5t-34 -30t-32 -21.5t-27.5 -8q-34 0 -52.5 31.5t-26.5 74.5
q-2 -3 -20.5 -21t-45 -38.5t-55.5 -36.5t-51 -16q-29 0 -53.5 15t-42.5 40t-28 58.5t-10 71.5q0 53 22.5 108t73 100t132.5 74t201 29q3 -1 6 -3q2 -2 4.5 -5.5t2.5 -10.5v-275q0 -8 0.5 -17.5t3.5 -18t8.5 -14t15.5 -5.5q17 -1 36 14.5t34 33.5q9 11 17.5 23.5t16.5 25.5
q2 2 5 2q7 0 11.5 -14t4.5 -26zM364 656q0 29 -21 50t-50 21q-30 0 -50.5 -21t-20.5 -50q0 -30 20.5 -50.5t50.5 -20.5q29 0 50 20.5t21 50.5zM310 410q-44 -9 -74 -30t-49 -48t-27 -58t-8 -61q0 -24 5 -46t13.5 -38.5t20.5 -26.5t26 -10q12 0 27 10t29 22q16 14 32 32
q3 4 3.5 7.5t0.5 5.5v136q0 48 1 105z" />
    <glyph glyph-name="ae" unicode="&#xe6;" horiz-adv-x="709" 
d="M745 189q0 -9 -2 -12q-20 -32 -48 -66t-60.5 -61.5t-67.5 -45t-68 -17.5q-55 0 -97.5 34t-65.5 88q-10 -10 -34 -31t-53 -42t-58.5 -37t-48.5 -16q-29 0 -53.5 15t-42.5 40t-28 58.5t-10 71.5q0 51 20.5 103.5t67 97t120.5 74.5t182 35q31 33 72 53t95 20
q44 0 69.5 -26.5t25.5 -71.5q0 -24 -15 -52t-42 -57t-64.5 -59t-83.5 -58q14 -46 42 -77.5t73 -31.5q34 0 60.5 14.5t45.5 33t31 36.5t17 25q2 2 5 2q7 0 11.5 -14t4.5 -26zM563 441q0 23 -10.5 28t-14.5 5q-35 0 -57 -29.5t-31 -73.5v-85q17 10 36.5 29t36.5 41t28.5 44.5
t11.5 40.5zM310 410q-44 -9 -74 -30t-49 -48t-27 -58t-8 -61q0 -24 5 -46t13.5 -38.5t20.5 -26.5t26 -10q12 0 27 10t29 22q16 14 32 32q3 4 3.5 7.5t0.5 5.5v136q0 48 1 105z" />
    <glyph glyph-name="ccedilla" unicode="&#xe7;" horiz-adv-x="435" 
d="M471 189q0 -9 -2 -12q-59 -91 -132 -138t-141 -50l-6 -18q0 -5 5 -9.5t21 -8.5q51 -14 72.5 -37.5t21.5 -50.5q0 -22 -12 -43.5t-33 -38.5t-49 -27.5t-59 -10.5q-27 0 -55 9t-56 30q1 2 2.5 8.5t5.5 6.5q2 0 4.5 -1t4.5 -2q3 -1 5 -2q42 -15 75 -15q40 0 62.5 16.5
t22.5 34.5q0 15 -17 26.5t-53 11.5q-16 0 -28 1.5t-13 10.5l38 112q-61 11 -100.5 63t-39.5 149q0 53 15 106.5t43.5 96t70 69.5t94.5 27q41 0 69.5 -8.5t46.5 -21.5t26 -29t8 -32q0 -24 -15.5 -42.5t-41.5 -18.5q-27 0 -41 13t-23 28t-18 28t-25 13q-15 0 -28 -13.5
t-22 -36t-14 -51t-5 -58.5q0 -45 9.5 -76.5t25 -52t37 -29.5t45.5 -9t49 8.5t49 24.5t44.5 38t35.5 49q2 2 5 2q7 0 11.5 -14t4.5 -26z" />
    <glyph glyph-name="egrave" unicode="&#xe8;" horiz-adv-x="411" 
d="M360 592q0 -7 -3.5 -9t-8.5 -2q-2 0 -22 16t-50 41t-65 55t-64.5 57t-50 48t-21.5 28q0 14 12.5 17t33.5 3q35 0 55.5 -0.5t32.5 -2t17.5 -4.5t10.5 -9q34 -61 61 -111q12 -21 23 -42t19.5 -38.5t14 -30t5.5 -16.5zM447 189q0 -9 -2 -12q-20 -32 -48 -66t-60.5 -61.5
t-67.5 -45t-68 -17.5q-41 0 -75.5 20t-59.5 54t-38.5 77.5t-13.5 91.5q0 57 15.5 114.5t47 103.5t79 74.5t111.5 28.5q44 0 69.5 -26.5t25.5 -71.5q0 -24 -15 -52t-42 -57t-64.5 -59t-83.5 -58q14 -46 42 -77.5t73 -31.5q34 0 60.5 14.5t45.5 33t31 36.5t17 25q2 2 5 2
q7 0 11.5 -14t4.5 -26zM265 441q0 23 -10.5 28t-14.5 5q-23 0 -40.5 -13.5t-29.5 -36t-18 -52t-6 -60.5v-15t1 -14q16 9 36.5 28t38.5 42t30.5 46.5t12.5 41.5z" />
    <glyph glyph-name="eacute" unicode="&#xe9;" horiz-adv-x="411" 
d="M432 829q-1 -7 -21.5 -28t-50 -48t-64.5 -57t-65 -55t-50.5 -41t-21.5 -16q-5 0 -8.5 2t-3.5 9q0 4 5 16.5t13.5 30t19.5 38.5t23 42q27 50 62 111q5 6 10.5 9t17.5 4.5t32.5 2t55.5 0.5q21 0 33.5 -3t12.5 -17zM447 189q0 -9 -2 -12q-20 -32 -48 -66t-60.5 -61.5
t-67.5 -45t-68 -17.5q-41 0 -75.5 20t-59.5 54t-38.5 77.5t-13.5 91.5q0 57 15.5 114.5t47 103.5t79 74.5t111.5 28.5q44 0 69.5 -26.5t25.5 -71.5q0 -24 -15 -52t-42 -57t-64.5 -59t-83.5 -58q14 -46 42 -77.5t73 -31.5q34 0 60.5 14.5t45.5 33t31 36.5t17 25q2 2 5 2
q7 0 11.5 -14t4.5 -26zM265 441q0 23 -10.5 28t-14.5 5q-23 0 -40.5 -13.5t-29.5 -36t-18 -52t-6 -60.5v-15t1 -14q16 9 36.5 28t38.5 42t30.5 46.5t12.5 41.5z" />
    <glyph glyph-name="ecircumflex" unicode="&#xea;" horiz-adv-x="411" 
d="M455 574q0 -4 -2.5 -8t-13.5 -4q-13 0 -37 11t-52 30t-57.5 44.5t-53.5 54.5q-24 -29 -53.5 -54.5t-58 -44.5t-52 -30t-36.5 -11q-11 0 -13.5 4t-2.5 8v4q0 1 1 2q25 16 47.5 42t43 56t38 61t32.5 56l5.5 10t13.5 21.5t17.5 21t16.5 9.5q11 0 21 -10t18 -21
q10 -13 18 -30q15 -25 32 -56t37 -61t42 -56.5t48 -42.5v-2q0 -1 0.5 -2t0.5 -2zM447 189q0 -9 -2 -12q-20 -32 -48 -66t-60.5 -61.5t-67.5 -45t-68 -17.5q-41 0 -75.5 20t-59.5 54t-38.5 77.5t-13.5 91.5q0 57 15.5 114.5t47 103.5t79 74.5t111.5 28.5q44 0 69.5 -26.5
t25.5 -71.5q0 -24 -15 -52t-42 -57t-64.5 -59t-83.5 -58q14 -46 42 -77.5t73 -31.5q34 0 60.5 14.5t45.5 33t31 36.5t17 25q2 2 5 2q7 0 11.5 -14t4.5 -26zM265 441q0 23 -10.5 28t-14.5 5q-23 0 -40.5 -13.5t-29.5 -36t-18 -52t-6 -60.5v-15t1 -14q16 9 36.5 28t38.5 42
t30.5 46.5t12.5 41.5z" />
    <glyph glyph-name="edieresis" unicode="&#xeb;" horiz-adv-x="411" 
d="M401 707q0 -33 -23.5 -56t-55.5 -23q-33 0 -56 23t-23 56q0 32 23 55.5t56 23.5q32 0 55.5 -23.5t23.5 -55.5zM191 707q0 -33 -23.5 -56t-55.5 -23q-33 0 -56 23t-23 56q0 32 23 55.5t56 23.5q32 0 55.5 -23.5t23.5 -55.5zM447 189q0 -9 -2 -12q-20 -32 -48 -66
t-60.5 -61.5t-67.5 -45t-68 -17.5q-41 0 -75.5 20t-59.5 54t-38.5 77.5t-13.5 91.5q0 57 15.5 114.5t47 103.5t79 74.5t111.5 28.5q44 0 69.5 -26.5t25.5 -71.5q0 -24 -15 -52t-42 -57t-64.5 -59t-83.5 -58q14 -46 42 -77.5t73 -31.5q34 0 60.5 14.5t45.5 33t31 36.5t17 25
q2 2 5 2q7 0 11.5 -14t4.5 -26zM265 441q0 23 -10.5 28t-14.5 5q-23 0 -40.5 -13.5t-29.5 -36t-18 -52t-6 -60.5v-15t1 -14q16 9 36.5 28t38.5 42t30.5 46.5t12.5 41.5z" />
    <glyph glyph-name="igrave" unicode="&#xec;" horiz-adv-x="262" 
d="M245 535q0 -7 -3.5 -9t-8.5 -2q-2 0 -22 16t-50 41t-65 55t-64.5 57t-50 48t-21.5 28q0 14 12.5 17t33.5 3q35 0 55.5 -0.5t32.5 -2t17.5 -4.5t10.5 -9q34 -61 61 -111q12 -21 23 -42t19.5 -38.5t14 -30t5.5 -16.5zM298 189q0 -9 -2 -12q-38 -52 -74 -92
q-15 -17 -31.5 -33.5t-32.5 -29.5t-31 -21t-27 -8q-26 0 -42.5 16t-26 42.5t-13.5 61t-4 70.5q0 30 0.5 66t1 69.5t1 61t0.5 40.5q0 11 2.5 18t5.5 11q4 4 8 6q11 5 27.5 9t32 7t28 4.5t15.5 1.5q11 0 15 -6t4 -14v-28.5t-0.5 -48t-1 -78t-0.5 -117.5q0 -17 3.5 -32.5
t23.5 -16.5q13 0 26 7.5t25 20.5t23.5 29.5t22.5 33.5q2 2 5 2q7 0 11.5 -14t4.5 -26z" />
    <glyph glyph-name="iacute" unicode="&#xed;" horiz-adv-x="262" 
d="M310 769q-1 -7 -21.5 -28t-50.5 -48t-64.5 -57t-64.5 -55t-50.5 -41t-21.5 -16q-5 0 -8.5 2t-3.5 9q0 4 5 16.5t13.5 30t19.5 38.5t23 42q27 50 62 111q5 6 10.5 9t17.5 4.5t32.5 2t55.5 0.5q21 0 33.5 -3t12.5 -17zM298 189q0 -9 -2 -12q-38 -52 -74 -92
q-15 -17 -31.5 -33.5t-32.5 -29.5t-31 -21t-27 -8q-26 0 -42.5 16t-26 42.5t-13.5 61t-4 70.5q0 30 0.5 66t1 69.5t1 61t0.5 40.5q0 11 2.5 18t5.5 11q4 4 8 6q11 5 27.5 9t32 7t28 4.5t15.5 1.5q11 0 15 -6t4 -14v-28.5t-0.5 -48t-1 -78t-0.5 -117.5q0 -17 3.5 -32.5
t23.5 -16.5q13 0 26 7.5t25 20.5t23.5 29.5t22.5 33.5q2 2 5 2q7 0 11.5 -14t4.5 -26z" />
    <glyph glyph-name="icircumflex" unicode="&#xee;" horiz-adv-x="262" 
d="M305 541q0 -4 -2.5 -8t-13.5 -4q-13 0 -37 11t-52 30t-57.5 44.5t-53.5 54.5q-24 -29 -53.5 -54.5t-58 -44.5t-52 -30t-36.5 -11q-11 0 -13.5 4t-2.5 8v4q0 1 1 2q25 16 47.5 42t43 56t38 61t32.5 56l5.5 10t13.5 21.5t17.5 21t16.5 9.5q11 0 21 -10t18 -21
q10 -13 18 -30q15 -25 32 -56t37 -61t42 -56.5t48 -42.5v-2q0 -1 0.5 -2t0.5 -2zM298 189q0 -9 -2 -12q-38 -52 -74 -92q-15 -17 -31.5 -33.5t-32.5 -29.5t-31 -21t-27 -8q-26 0 -42.5 16t-26 42.5t-13.5 61t-4 70.5q0 30 0.5 66t1 69.5t1 61t0.5 40.5q0 11 2.5 18t5.5 11
q4 4 8 6q11 5 27.5 9t32 7t28 4.5t15.5 1.5q11 0 15 -6t4 -14v-28.5t-0.5 -48t-1 -78t-0.5 -117.5q0 -17 3.5 -32.5t23.5 -16.5q13 0 26 7.5t25 20.5t23.5 29.5t22.5 33.5q2 2 5 2q7 0 11.5 -14t4.5 -26z" />
    <glyph glyph-name="idieresis" unicode="&#xef;" horiz-adv-x="262" 
d="M285 668q0 -33 -23.5 -56t-55.5 -23q-33 0 -56 23t-23 56q0 32 23 55.5t56 23.5q32 0 55.5 -23.5t23.5 -55.5zM75 668q0 -33 -23.5 -56t-55.5 -23q-33 0 -56 23t-23 56q0 32 23 55.5t56 23.5q32 0 55.5 -23.5t23.5 -55.5zM298 189q0 -9 -2 -12q-38 -52 -74 -92
q-15 -17 -31.5 -33.5t-32.5 -29.5t-31 -21t-27 -8q-26 0 -42.5 16t-26 42.5t-13.5 61t-4 70.5q0 30 0.5 66t1 69.5t1 61t0.5 40.5q0 11 2.5 18t5.5 11q4 4 8 6q11 5 27.5 9t32 7t28 4.5t15.5 1.5q11 0 15 -6t4 -14v-28.5t-0.5 -48t-1 -78t-0.5 -117.5q0 -17 3.5 -32.5
t23.5 -16.5q13 0 26 7.5t25 20.5t23.5 29.5t22.5 33.5q2 2 5 2q7 0 11.5 -14t4.5 -26z" />
    <glyph glyph-name="eth" unicode="&#xf0;" horiz-adv-x="575" 
d="M611 189q0 -9 -2 -12q-38 -52 -74 -92q-15 -17 -31.5 -33.5t-32.5 -29.5t-31 -21t-27 -8q-20 0 -34 10.5t-24.5 28t-16.5 40.5t-9 49q-4 -3 -24 -25t-47 -47.5t-56 -46.5t-50 -21q-35 0 -61.5 16.5t-44 44t-26.5 63.5t-9 76q0 52 15.5 106t46.5 98t77.5 71.5t108.5 27.5
h6t9.5 -0.5t17 -1.5t27.5 -3v65t-1 59q-25 -8 -47.5 -15.5t-39.5 -13.5q-20 -7 -38 -13q-5 0 -5 9v14t1 18q0 11 1 23q1 1 1.5 5.5t9.5 8.5q4 1 37 13t75 27q-5 52 -19 80.5t-43 28.5q-26 0 -61 -15.5t-67 -49.5q-17 -18 -28 -25.5t-21 -7.5q-14 0 -24.5 7.5t-17 18.5
t-9.5 25t-3 26q0 31 14.5 52.5t38 35t54 20t63.5 6.5q101 0 155.5 -38t79.5 -124l49 17q2 0 4 1q2 0 3.5 0.5t3.5 0.5q5 0 8.5 -2.5t3.5 -10.5t-0.5 -17t-1.5 -17q-1 -10 -2 -18q0 -3 -3 -7q-2 -3 -7 -7t-13 -6q-3 -2 -10.5 -4t-18.5 -5q8 -54 11 -121.5t3 -152.5
q0 -60 0.5 -107t2.5 -79q1 -17 8 -32t27 -16q13 0 26 7.5t25 20.5t23.5 29.5t22.5 33.5q2 2 5 2q7 0 11.5 -14t4.5 -26zM319 406q-8 6 -21.5 9.5t-17.5 3.5q-32 0 -55.5 -17.5t-39 -45.5t-23 -61.5t-7.5 -66.5q0 -46 14.5 -79.5t42.5 -33.5q11 0 26.5 10t30 22.5t27 24.5
t17.5 17q1 2 3 5q1 2 2 6t1 10v196z" />
    <glyph glyph-name="ntilde" unicode="&#xf1;" horiz-adv-x="539" 
d="M460 709q0 -1 -10 -21.5t-31 -44.5t-53 -43.5t-75 -19.5q-26 0 -50.5 13.5t-46.5 29.5t-41.5 29.5t-34.5 13.5t-37 -15.5t-40 -38.5q-6 0 -14.5 2t-8.5 9q0 8 14 25.5t37 35t52.5 31t60.5 13.5q28 0 50 -10t43 -22.5t42.5 -22.5t47.5 -10q12 0 20 2.5t15.5 8.5t15 16.5
t18.5 27.5q7 -1 13 -2q5 -2 9 -3.5t4 -3.5zM575 189q0 -9 -2 -12q-22 -32 -48.5 -65.5t-54 -60.5t-54 -44.5t-49.5 -17.5q-16 0 -29.5 10t-23.5 33t-15.5 60t-5.5 91q0 25 -1 54.5t-3.5 55.5t-7.5 43.5t-13 17.5q-17 0 -36.5 -18t-36 -43.5t-27 -52.5t-10.5 -45
q0 -6 0.5 -15t1 -28.5t2.5 -53.5t5 -89q0 -7 -2 -12q-4 -11 -12 -11h-76q-19 0 -38 1q-5 -1 -9 2q-3 2 -6 6t-3 12q-2 32 -4 69q-2 31 -2.5 71t-0.5 82q0 33 1 68.5t2 65.5t2 50.5t2 23.5q2 6 6 11.5t16 8.5q6 1 20 3.5t29.5 5.5t29.5 4.5t19 1.5q19 0 19 -17q0 -8 -1 -23
t-2 -31.5t-2 -33.5t-1 -30q0 -12 1 -15q10 21 35 48.5t56.5 52t66 42t62.5 17.5t45.5 -21.5t17.5 -72.5q0 -6 -0.5 -36t-0.5 -64q-1 -40 -1 -88q0 -17 7 -32t27 -16q27 -1 44.5 20t39.5 55q2 2 5 2q7 0 11.5 -14t4.5 -26z" />
    <glyph glyph-name="ograve" unicode="&#xf2;" horiz-adv-x="538" 
d="M390 535q0 -7 -3.5 -9t-8.5 -2q-2 0 -22 16t-50 41t-65 55t-64.5 57t-50 48t-21.5 28q0 14 12.5 17t33.5 3q35 0 55.5 -0.5t32.5 -2t17.5 -4.5t10.5 -9q34 -61 61 -111q12 -21 23 -42t19.5 -38.5t14 -30t5.5 -16.5zM574 189q0 -9 -2 -12q-29 -43 -59.5 -61t-60.5 -18
q-16 0 -31 3q-29 -48 -77 -80t-117 -32q-54 0 -94 20t-66 53t-38.5 75t-12.5 87q0 48 14 94t40.5 82t65.5 58.5t90 22.5q34 0 48.5 -14t14.5 -28q0 -11 -6.5 -18.5t-18.5 -7.5q-27 0 -47.5 -12.5t-34.5 -32.5t-21 -46t-7 -54q0 -30 8.5 -59t25.5 -52.5t42.5 -37.5t60.5 -14
q20 0 36.5 7t28.5 19q-23 17 -41.5 40t-31 49.5t-19 53.5t-6.5 51q0 38 17.5 64t55.5 26q33 0 57.5 -13.5t41 -36t24.5 -53t8 -63.5q0 -51 -19 -103h8q20 0 39.5 10.5t37.5 33.5q7 9 13.5 18t11.5 19q2 2 5 2q7 0 11.5 -14t4.5 -26zM393 236q0 20 -4 39t-12 33.5t-19 23.5
t-26 9q-23 0 -23 -28q0 -36 20.5 -75t52.5 -65q11 31 11 63z" />
    <glyph glyph-name="oacute" unicode="&#xf3;" horiz-adv-x="538" 
d="M453 769q-1 -7 -21.5 -28t-50.5 -48t-64.5 -57t-64.5 -55t-50.5 -41t-21.5 -16q-5 0 -8.5 2t-3.5 9q0 4 5 16.5t13.5 30t19.5 38.5t23 42q27 50 62 111q5 6 10.5 9t17.5 4.5t32.5 2t55.5 0.5q21 0 33.5 -3t12.5 -17zM574 189q0 -9 -2 -12q-29 -43 -59.5 -61t-60.5 -18
q-16 0 -31 3q-29 -48 -77 -80t-117 -32q-54 0 -94 20t-66 53t-38.5 75t-12.5 87q0 48 14 94t40.5 82t65.5 58.5t90 22.5q34 0 48.5 -14t14.5 -28q0 -11 -6.5 -18.5t-18.5 -7.5q-27 0 -47.5 -12.5t-34.5 -32.5t-21 -46t-7 -54q0 -30 8.5 -59t25.5 -52.5t42.5 -37.5t60.5 -14
q20 0 36.5 7t28.5 19q-23 17 -41.5 40t-31 49.5t-19 53.5t-6.5 51q0 38 17.5 64t55.5 26q33 0 57.5 -13.5t41 -36t24.5 -53t8 -63.5q0 -51 -19 -103h8q20 0 39.5 10.5t37.5 33.5q7 9 13.5 18t11.5 19q2 2 5 2q7 0 11.5 -14t4.5 -26zM393 236q0 20 -4 39t-12 33.5t-19 23.5
t-26 9q-23 0 -23 -28q0 -36 20.5 -75t52.5 -65q11 31 11 63z" />
    <glyph glyph-name="ocircumflex" unicode="&#xf4;" horiz-adv-x="538" 
d="M464 535q0 -4 -2.5 -8t-13.5 -4q-13 0 -37 11t-52 30t-57.5 44.5t-53.5 54.5q-24 -29 -53.5 -54.5t-58 -44.5t-52 -30t-36.5 -11q-11 0 -13.5 4t-2.5 8v4q0 1 1 2q25 16 47.5 42t43 56t38 61t32.5 56l5.5 10t13.5 21.5t17.5 21t16.5 9.5q11 0 21 -10t18 -21
q10 -13 18 -30q15 -25 32 -56t37 -61t42 -56.5t48 -42.5v-2q0 -1 0.5 -2t0.5 -2zM574 189q0 -9 -2 -12q-29 -43 -59.5 -61t-60.5 -18q-16 0 -31 3q-29 -48 -77 -80t-117 -32q-54 0 -94 20t-66 53t-38.5 75t-12.5 87q0 48 14 94t40.5 82t65.5 58.5t90 22.5q34 0 48.5 -14
t14.5 -28q0 -11 -6.5 -18.5t-18.5 -7.5q-27 0 -47.5 -12.5t-34.5 -32.5t-21 -46t-7 -54q0 -30 8.5 -59t25.5 -52.5t42.5 -37.5t60.5 -14q20 0 36.5 7t28.5 19q-23 17 -41.5 40t-31 49.5t-19 53.5t-6.5 51q0 38 17.5 64t55.5 26q33 0 57.5 -13.5t41 -36t24.5 -53t8 -63.5
q0 -51 -19 -103h8q20 0 39.5 10.5t37.5 33.5q7 9 13.5 18t11.5 19q2 2 5 2q7 0 11.5 -14t4.5 -26zM393 236q0 20 -4 39t-12 33.5t-19 23.5t-26 9q-23 0 -23 -28q0 -36 20.5 -75t52.5 -65q11 31 11 63z" />
    <glyph glyph-name="otilde" unicode="&#xf5;" horiz-adv-x="538" 
d="M478 676q0 -1 -10 -21.5t-31 -44.5t-53 -43.5t-75 -19.5q-26 0 -50.5 13.5t-46.5 29.5t-41.5 29.5t-34.5 13.5t-37 -15.5t-40 -38.5q-6 0 -14.5 2t-8.5 9q0 8 14 25.5t37 35t52.5 31t60.5 13.5q28 0 50 -10t43 -22.5t42.5 -22.5t47.5 -10q12 0 20 2.5t15.5 8.5t15 16.5
t18.5 27.5q7 -1 13 -2q5 -2 9 -3.5t4 -3.5zM574 189q0 -9 -2 -12q-29 -43 -59.5 -61t-60.5 -18q-16 0 -31 3q-29 -48 -77 -80t-117 -32q-54 0 -94 20t-66 53t-38.5 75t-12.5 87q0 48 14 94t40.5 82t65.5 58.5t90 22.5q34 0 48.5 -14t14.5 -28q0 -11 -6.5 -18.5t-18.5 -7.5
q-27 0 -47.5 -12.5t-34.5 -32.5t-21 -46t-7 -54q0 -30 8.5 -59t25.5 -52.5t42.5 -37.5t60.5 -14q20 0 36.5 7t28.5 19q-23 17 -41.5 40t-31 49.5t-19 53.5t-6.5 51q0 38 17.5 64t55.5 26q33 0 57.5 -13.5t41 -36t24.5 -53t8 -63.5q0 -51 -19 -103h8q20 0 39.5 10.5
t37.5 33.5q7 9 13.5 18t11.5 19q2 2 5 2q7 0 11.5 -14t4.5 -26zM393 236q0 20 -4 39t-12 33.5t-19 23.5t-26 9q-23 0 -23 -28q0 -36 20.5 -75t52.5 -65q11 31 11 63z" />
    <glyph glyph-name="odieresis" unicode="&#xf6;" horiz-adv-x="538" 
d="M438 668q0 -33 -23.5 -56t-55.5 -23q-33 0 -56 23t-23 56q0 32 23 55.5t56 23.5q32 0 55.5 -23.5t23.5 -55.5zM228 668q0 -33 -23.5 -56t-55.5 -23q-33 0 -56 23t-23 56q0 32 23 55.5t56 23.5q32 0 55.5 -23.5t23.5 -55.5zM574 189q0 -9 -2 -12q-29 -43 -59.5 -61
t-60.5 -18q-16 0 -31 3q-29 -48 -77 -80t-117 -32q-54 0 -94 20t-66 53t-38.5 75t-12.5 87q0 48 14 94t40.5 82t65.5 58.5t90 22.5q34 0 48.5 -14t14.5 -28q0 -11 -6.5 -18.5t-18.5 -7.5q-27 0 -47.5 -12.5t-34.5 -32.5t-21 -46t-7 -54q0 -30 8.5 -59t25.5 -52.5t42.5 -37.5
t60.5 -14q20 0 36.5 7t28.5 19q-23 17 -41.5 40t-31 49.5t-19 53.5t-6.5 51q0 38 17.5 64t55.5 26q33 0 57.5 -13.5t41 -36t24.5 -53t8 -63.5q0 -51 -19 -103h8q20 0 39.5 10.5t37.5 33.5q7 9 13.5 18t11.5 19q2 2 5 2q7 0 11.5 -14t4.5 -26zM393 236q0 20 -4 39t-12 33.5
t-19 23.5t-26 9q-23 0 -23 -28q0 -36 20.5 -75t52.5 -65q11 31 11 63z" />
    <glyph glyph-name="divide" unicode="&#xf7;" horiz-adv-x="613" 
d="M550 816q0 -151 -6 -289.5t-7 -266.5q0 -55 -14.5 -108.5t-49.5 -96t-92.5 -68.5t-144.5 -26q-3 0 -22 1.5t-45 6t-56 11.5t-55 18.5t-41.5 27.5t-16.5 38q0 8 3.5 22t12 27t21 22.5t30.5 9.5q10 0 26.5 -8t35 -20.5t39.5 -27t40.5 -27t37 -20.5t29.5 -8q26 0 47 18.5
t36 47t23.5 63.5t8.5 67q0 31 -0.5 80t-0.5 104.5t-1 112t-1 101t-0.5 71.5t-0.5 25q-1 1 -3 2q-4 2 -8 2q-13 0 -34 -15.5t-43.5 -34t-44 -34.5t-35.5 -16q-9 2 -15 6q-5 4 -9.5 12t-4.5 23q0 7 4.5 17.5t20.5 22.5q11 9 31 23.5t44.5 31.5t52.5 34t54.5 31t50.5 23t41 9
q29 0 45.5 -11t16.5 -34z" />
    <glyph glyph-name="oslash" unicode="&#xf8;" horiz-adv-x="538" 
d="M574 189q0 -9 -2 -12q-29 -43 -59.5 -61t-60.5 -18q-16 0 -31 3q-29 -48 -77 -80t-117 -32q-30 0 -55.5 6.5t-47.5 17.5l-44 -73q-2 -5 -6 -9q-7 -9 -13 -9q-9 0 -19.5 9.5t-10.5 20.5q0 4 4 12l48 79q-35 34 -51 82t-16 99q0 53 15.5 102.5t48.5 87.5t86 60.5t128 22.5
q32 0 59 -9l54 90q2 5 6 9q3 4 6 7t7 3q8 0 19 -10t11 -20q0 -4 -4 -12l-54 -89q22 -15 34 -33t12 -34t-12.5 -26.5t-39.5 -10.5q-15 0 -24.5 7t-17.5 17l-149 -246q17 -16 39 -25.5t51 -9.5q20 0 36.5 7t28.5 19q-27 19 -40.5 51.5t-13.5 64.5q0 19 4.5 36.5t14 31
t23.5 21.5t33 8q39 0 60 -33t21 -82q0 -40 -15 -83h8q20 0 39.5 10.5t37.5 33.5q7 9 13.5 18t11.5 19q2 2 5 2q7 0 11.5 -14t4.5 -26zM312 420q-7 3 -14.5 5t-17.5 2q-24 0 -47 -12t-40.5 -33.5t-28 -50.5t-10.5 -63q0 -21 4 -41.5t12 -39.5z" />
    <glyph glyph-name="ugrave" unicode="&#xf9;" horiz-adv-x="541" 
d="M362 535q0 -7 -3.5 -9t-8.5 -2q-2 0 -22 16t-50 41t-65 55t-64.5 57t-50 48t-21.5 28q0 14 12.5 17t33.5 3q35 0 55.5 -0.5t32.5 -2t17.5 -4.5t10.5 -9q34 -61 61 -111q12 -21 23 -42t19.5 -38.5t14 -30t5.5 -16.5zM577 189q0 -9 -2 -12q-38 -52 -74 -92
q-15 -17 -31.5 -33.5t-32.5 -29.5t-31 -21t-27 -8q-37 0 -55 31t-25 78q-3 -5 -18.5 -25t-38 -42.5t-48.5 -40t-51 -17.5q-35 0 -60 21t-41 55.5t-22.5 78.5t-4.5 91q1 50 3 92q2 36 3 70t3 47q2 15 9 19.5t13 4.5q2 0 18 -2t35 -5t36.5 -6t22.5 -6q11 -4 10 -21
q0 -13 -2.5 -33t-4.5 -43.5t-4 -49.5t-2 -51q0 -26 2.5 -49.5t9 -41.5t17 -28.5t26.5 -10.5q9 0 23 8.5t27.5 20.5t23 25.5t9.5 23.5v16.5t0.5 30t0.5 39v42.5v112q1 8 5 15q4 6 10.5 11t20.5 5t31 -1t31 -3q17 -2 34 -3q3 0 6 -3q2 -2 4 -6.5t2 -13.5q0 -3 -0.5 -14
t-1.5 -27.5t-1.5 -37t-1.5 -41.5q-2 -49 -4 -111q0 -9 1 -19.5t4.5 -19.5t9.5 -15.5t15 -6.5q13 0 26 7.5t25 20.5t23.5 29.5t22.5 33.5q2 2 5 2q7 0 11.5 -14t4.5 -26z" />
    <glyph glyph-name="uacute" unicode="&#xfa;" horiz-adv-x="541" 
d="M446 769q-1 -7 -21.5 -28t-50.5 -48t-64.5 -57t-64.5 -55t-50 -41t-22 -16q-5 0 -8.5 2t-3.5 9q0 4 5 16.5t13.5 30t19.5 38.5t23 42q27 50 62 111q5 6 10.5 9t17.5 4.5t32.5 2t55.5 0.5q21 0 33.5 -3t12.5 -17zM577 189q0 -9 -2 -12q-38 -52 -74 -92
q-15 -17 -31.5 -33.5t-32.5 -29.5t-31 -21t-27 -8q-37 0 -55 31t-25 78q-3 -5 -18.5 -25t-38 -42.5t-48.5 -40t-51 -17.5q-35 0 -60 21t-41 55.5t-22.5 78.5t-4.5 91q1 50 3 92q2 36 3 70t3 47q2 15 9 19.5t13 4.5q2 0 18 -2t35 -5t36.5 -6t22.5 -6q11 -4 10 -21
q0 -13 -2.5 -33t-4.5 -43.5t-4 -49.5t-2 -51q0 -26 2.5 -49.5t9 -41.5t17 -28.5t26.5 -10.5q9 0 23 8.5t27.5 20.5t23 25.5t9.5 23.5v16.5t0.5 30t0.5 39v42.5v112q1 8 5 15q4 6 10.5 11t20.5 5t31 -1t31 -3q17 -2 34 -3q3 0 6 -3q2 -2 4 -6.5t2 -13.5q0 -3 -0.5 -14
t-1.5 -27.5t-1.5 -37t-1.5 -41.5q-2 -49 -4 -111q0 -9 1 -19.5t4.5 -19.5t9.5 -15.5t15 -6.5q13 0 26 7.5t25 20.5t23.5 29.5t22.5 33.5q2 2 5 2q7 0 11.5 -14t4.5 -26z" />
    <glyph glyph-name="ucircumflex" unicode="&#xfb;" horiz-adv-x="541" 
d="M457 535q0 -4 -2.5 -8t-13.5 -4q-13 0 -37 11t-52 30t-57.5 44.5t-53.5 54.5q-24 -29 -53.5 -54.5t-58 -44.5t-52 -30t-36.5 -11q-11 0 -13.5 4t-2.5 8v4q0 1 1 2q25 16 47.5 42t43 56t38 61t32.5 56l5.5 10t13.5 21.5t17.5 21t16.5 9.5q11 0 21 -10t18 -21
q10 -13 18 -30q15 -25 32 -56t37 -61t42 -56.5t48 -42.5v-2q0 -1 0.5 -2t0.5 -2zM577 189q0 -9 -2 -12q-38 -52 -74 -92q-15 -17 -31.5 -33.5t-32.5 -29.5t-31 -21t-27 -8q-37 0 -55 31t-25 78q-3 -5 -18.5 -25t-38 -42.5t-48.5 -40t-51 -17.5q-35 0 -60 21t-41 55.5
t-22.5 78.5t-4.5 91q1 50 3 92q2 36 3 70t3 47q2 15 9 19.5t13 4.5q2 0 18 -2t35 -5t36.5 -6t22.5 -6q11 -4 10 -21q0 -13 -2.5 -33t-4.5 -43.5t-4 -49.5t-2 -51q0 -26 2.5 -49.5t9 -41.5t17 -28.5t26.5 -10.5q9 0 23 8.5t27.5 20.5t23 25.5t9.5 23.5v16.5t0.5 30t0.5 39
v42.5v112q1 8 5 15q4 6 10.5 11t20.5 5t31 -1t31 -3q17 -2 34 -3q3 0 6 -3q2 -2 4 -6.5t2 -13.5q0 -3 -0.5 -14t-1.5 -27.5t-1.5 -37t-1.5 -41.5q-2 -49 -4 -111q0 -9 1 -19.5t4.5 -19.5t9.5 -15.5t15 -6.5q13 0 26 7.5t25 20.5t23.5 29.5t22.5 33.5q2 2 5 2q7 0 11.5 -14
t4.5 -26z" />
    <glyph glyph-name="udieresis" unicode="&#xfc;" horiz-adv-x="541" 
d="M427 668q0 -33 -23.5 -56t-55.5 -23q-33 0 -56 23t-23 56q0 32 23 55.5t56 23.5q32 0 55.5 -23.5t23.5 -55.5zM217 668q0 -33 -23.5 -56t-55.5 -23q-33 0 -56 23t-23 56q0 32 23 55.5t56 23.5q32 0 55.5 -23.5t23.5 -55.5zM577 189q0 -9 -2 -12q-38 -52 -74 -92
q-15 -17 -31.5 -33.5t-32.5 -29.5t-31 -21t-27 -8q-37 0 -55 31t-25 78q-3 -5 -18.5 -25t-38 -42.5t-48.5 -40t-51 -17.5q-35 0 -60 21t-41 55.5t-22.5 78.5t-4.5 91q1 50 3 92q2 36 3 70t3 47q2 15 9 19.5t13 4.5q2 0 18 -2t35 -5t36.5 -6t22.5 -6q11 -4 10 -21
q0 -13 -2.5 -33t-4.5 -43.5t-4 -49.5t-2 -51q0 -26 2.5 -49.5t9 -41.5t17 -28.5t26.5 -10.5q9 0 23 8.5t27.5 20.5t23 25.5t9.5 23.5v16.5t0.5 30t0.5 39v42.5v112q1 8 5 15q4 6 10.5 11t20.5 5t31 -1t31 -3q17 -2 34 -3q3 0 6 -3q2 -2 4 -6.5t2 -13.5q0 -3 -0.5 -14
t-1.5 -27.5t-1.5 -37t-1.5 -41.5q-2 -49 -4 -111q0 -9 1 -19.5t4.5 -19.5t9.5 -15.5t15 -6.5q13 0 26 7.5t25 20.5t23.5 29.5t22.5 33.5q2 2 5 2q7 0 11.5 -14t4.5 -26z" />
    <glyph glyph-name="yacute" unicode="&#xfd;" horiz-adv-x="497" 
d="M427 760q-1 -7 -21.5 -28t-50.5 -48t-64.5 -57t-64.5 -55t-50 -41t-22 -16q-5 0 -8.5 2t-3.5 9q0 4 5 16.5t13.5 30t19.5 38.5t23 42q27 50 62 111q5 6 10.5 9t17.5 4.5t32.5 2t55.5 0.5q21 0 33.5 -3t12.5 -17zM533 189q0 -9 -2 -12q-17 -22 -35 -45q-16 -20 -36 -43.5
t-41 -43.5q-1 -26 -1 -47v-37q0 -18 -1 -34q0 -23 -18.5 -51.5t-46 -54t-59.5 -42.5t-59 -17q-25 0 -51 12.5t-47.5 30t-35 37t-13.5 34.5q0 8 8 17.5t32 20.5q14 7 33.5 17.5t41.5 23t43.5 25.5t40.5 25v91q-11 -12 -31 -31.5t-44 -38t-49 -32t-46 -13.5q-35 0 -55.5 19
t-30.5 47t-12.5 59.5t-2.5 57.5q-1 66 0 121q0 23 0.5 46.5t1 43t1 34.5t1.5 21q2 15 9 19.5t13 4.5q1 0 8.5 0.5t18 0.5t22.5 0.5t24 0.5q14 0 24.5 -0.5t14.5 -2.5q11 -4 10 -21q0 -13 -2.5 -46.5t-5.5 -74t-5.5 -80.5t-2.5 -67q0 -39 10.5 -55.5t25.5 -16.5q12 0 26 8.5
t27.5 22.5t26 30.5t21.5 33.5q-1 58 -1.5 115t-1.5 108q1 8 5 15q4 6 10.5 11t20.5 5t31 -1t31 -3q17 -2 34 -3q3 0 6 -3q2 -2 4 -6.5t2 -13.5q0 -10 -0.5 -40t-1.5 -71.5t-1.5 -90t-1.5 -94.5q28 28 53.5 60t38.5 52q2 2 5 2q7 0 11.5 -14t4.5 -26zM289 -155q-1 4 -1 31
t-1 70q-13 -8 -23 -15.5t-18 -12.5q-9 -6 -17 -12q-5 -1 -9 -5q-3 -3 -5.5 -7.5t-2.5 -11.5q0 -11 5.5 -23.5t14 -22.5t17 -16.5t14.5 -6.5q13 0 18 10t8 22z" />
    <glyph glyph-name="thorn" unicode="&#xfe;" horiz-adv-x="539" 
d="M575 189q0 -9 -2 -12q-22 -32 -48.5 -65.5t-54 -60.5t-54 -44.5t-49.5 -17.5q-16 0 -29.5 10t-23.5 33t-15.5 60t-5.5 91q0 25 -1 54.5t-3.5 55.5t-7.5 43.5t-13 17.5q-17 0 -36.5 -18t-36 -43.5t-27 -52.5t-10.5 -45v-46.5t-0.5 -99t-1.5 -125.5t-2 -125q0 -7 -2 -12
q-4 -11 -12 -11h-76q-19 0 -38 1q-4 -1 -8 2q-3 2 -6 6t-4 12q4 20 6 54t3.5 71.5t2 73.5t0.5 61q-1 96 -1 165.5v120.5v80t0.5 98t0.5 101.5t0.5 92.5t1 70.5t1.5 35.5q1 6 5.5 11.5t16.5 8.5q6 1 19.5 2t29 1.5t29 0.5h18.5q9 0 15.5 -7t6.5 -16q0 -6 -1 -41.5t-2 -86.5
t-2 -110t-2 -111t-1.5 -90t-0.5 -46q0 -12 1 -15q10 21 35 48.5t56.5 52t66 42t62.5 17.5t45.5 -21.5t17.5 -72.5q0 -17 -0.5 -48.5t-0.5 -62.5q-1 -36 -1 -77q0 -17 7 -32t27 -16q27 -1 44.5 20t39.5 55q2 2 5 2q7 0 11.5 -14t4.5 -26z" />
    <glyph glyph-name="ydieresis" unicode="&#xff;" horiz-adv-x="497" 
d="M417 668q0 -33 -23.5 -56t-55.5 -23q-33 0 -56 23t-23 56q0 32 23 55.5t56 23.5q32 0 55.5 -23.5t23.5 -55.5zM207 668q0 -33 -23.5 -56t-55.5 -23q-33 0 -56 23t-23 56q0 32 23 55.5t56 23.5q32 0 55.5 -23.5t23.5 -55.5zM533 189q0 -9 -2 -12q-17 -22 -35 -45
q-16 -20 -36 -43.5t-41 -43.5q-1 -26 -1 -47v-37q0 -18 -1 -34q0 -23 -18.5 -51.5t-46 -54t-59.5 -42.5t-59 -17q-25 0 -51 12.5t-47.5 30t-35 37t-13.5 34.5q0 8 8 17.5t32 20.5q14 7 33.5 17.5t41.5 23t43.5 25.5t40.5 25v91q-11 -12 -31 -31.5t-44 -38t-49 -32t-46 -13.5
q-35 0 -55.5 19t-30.5 47t-12.5 59.5t-2.5 57.5q-1 66 0 121q0 23 0.5 46.5t1 43t1 34.5t1.5 21q2 15 9 19.5t13 4.5q1 0 8.5 0.5t18 0.5t22.5 0.5t24 0.5q14 0 24.5 -0.5t14.5 -2.5q11 -4 10 -21q0 -13 -2.5 -46.5t-5.5 -74t-5.5 -80.5t-2.5 -67q0 -39 10.5 -55.5
t25.5 -16.5q12 0 26 8.5t27.5 22.5t26 30.5t21.5 33.5q-1 58 -1.5 115t-1.5 108q1 8 5 15q4 6 10.5 11t20.5 5t31 -1t31 -3q17 -2 34 -3q3 0 6 -3q2 -2 4 -6.5t2 -13.5q0 -10 -0.5 -40t-1.5 -71.5t-1.5 -90t-1.5 -94.5q28 28 53.5 60t38.5 52q2 2 5 2q7 0 11.5 -14t4.5 -26z
M289 -155q-1 4 -1 31t-1 70q-13 -8 -23 -15.5t-18 -12.5q-9 -6 -17 -12q-5 -1 -9 -5q-3 -3 -5.5 -7.5t-2.5 -11.5q0 -11 5.5 -23.5t14 -22.5t17 -16.5t14.5 -6.5q13 0 18 10t8 22z" />
    <glyph glyph-name="dotlessi" unicode="&#x131;" horiz-adv-x="262" 
d="M298 189q0 -9 -2 -12q-38 -52 -74 -92q-15 -17 -31.5 -33.5t-32.5 -29.5t-31 -21t-27 -8q-26 0 -42.5 16t-26 42.5t-13.5 61t-4 70.5q0 30 0.5 66t1 69.5t1 61t0.5 40.5q0 11 2.5 18t5.5 11q4 4 8 6q11 5 27.5 9t32 7t28 4.5t15.5 1.5q11 0 15 -6t4 -14v-28.5t-0.5 -48
t-1 -78t-0.5 -117.5q0 -17 3.5 -32.5t23.5 -16.5q13 0 26 7.5t25 20.5t23.5 29.5t22.5 33.5q2 2 5 2q7 0 11.5 -14t4.5 -26z" />
    <glyph glyph-name="Lslash" unicode="&#x141;" horiz-adv-x="832" 
d="M868 189q0 -9 -2 -12q-22 -32 -49 -67.5t-61 -65.5t-75.5 -50t-93.5 -20q-21 0 -47.5 9t-58 22.5t-68.5 29.5t-78 31q-32 -40 -83.5 -65.5t-131.5 -25.5q-64 0 -93.5 17.5t-29.5 43.5q0 19 16 41t45.5 42t71.5 36.5t95 25.5q5 18 8.5 36t5.5 38q-31 -15 -57.5 -29
t-43.5 -25q-13 0 -23 8t-10 21q0 8 5 17t18 20q20 17 50.5 35t65.5 36q2 59 1.5 118t7.5 114q6 50 31 101t61.5 91.5t81.5 66t91 25.5q36 0 81 -19.5t84.5 -51t67 -71.5t27.5 -82q0 -6 -5.5 -15t-30.5 -27t-76.5 -48.5t-142.5 -80.5q-3 -2 -6 -3q-8 -2 -13 -2q-8 0 -14 6.5
t-10 14t-5.5 14.5t-1.5 8q0 4 3.5 10t14.5 11q9 4 30 18t43 29q26 18 56 38q3 1 7 5q2 2 4.5 6t2.5 9q0 10 -10.5 37t-28 56t-41 51.5t-49.5 22.5q-21 0 -36 -18t-26 -48t-18 -69.5t-11 -82.5t-6 -87t-3 -82q35 11 65 17.5t53 6.5q17 0 25 -8.5t8 -20.5q0 -17 -15 -34
t-39 -17q-16 0 -41 -6.5t-56 -17.5v-1q0 -29 -3 -63.5t-11 -71.5q53 -5 99 -16.5t85 -23t73 -20.5t63 -9q22 0 41.5 10.5t37 26.5t32 35t25.5 37q2 2 5 2q7 0 11.5 -14t4.5 -26z" />
    <glyph glyph-name="lslash" unicode="&#x142;" horiz-adv-x="305" 
d="M341 189q0 -9 -2 -12q-38 -52 -74 -92q-15 -17 -31.5 -33.5t-32.5 -29.5t-31 -21t-27 -8q-27 0 -50 13.5t-40 37.5t-27 57.5t-11 74.5q0 8 -0.5 29t-0.5 49q-20 -7 -32 -11t-13 -4q-5 0 -5 9v14t1 18q0 11 1 23q1 1 1.5 6t9.5 8l37 13v63v78.5t0.5 76.5t1 69.5t0.5 57.5
q1 30 26 66t59 67t68 52t52 21q21 0 35.5 -18t24 -43.5t14 -53t4.5 -46.5q0 -27 -2.5 -58.5t-13.5 -70.5t-33 -88t-61 -110l61 21q2 0 4 1q2 0 3.5 0.5t3.5 0.5q5 0 8.5 -2.5t3.5 -10.5t-0.5 -17t-1.5 -17q-1 -10 -2 -18q0 -3 -3 -7q-2 -3 -7 -7t-13 -6t-33.5 -11t-59.5 -20
q2 -97 13.5 -142.5t34.5 -45.5q13 0 29.5 11.5t32.5 29t31 37.5t26 37q2 2 5 2q7 0 11.5 -14t4.5 -26zM218 676q0 49 -14.5 75.5t-28.5 26.5t-21 -14.5t-11 -32.5t-4.5 -34t-0.5 -19v-162q0 -55 1 -118q0 -3 1 -4q0 -1 1 -1t3 2q1 1 2 3q12 15 24.5 51.5t23 79t17.5 83.5
t7 64z" />
    <glyph glyph-name="OE" unicode="&#x152;" horiz-adv-x="1233" 
d="M1212 110q0 -68 -28 -125t-77.5 -99t-117.5 -65.5t-148 -23.5q-55 0 -103.5 15.5t-87.5 43t-67 64.5t-43 80q-32 -15 -69.5 -24t-79.5 -9q-95 0 -168 38.5t-122 101.5t-74 144t-25 165q0 121 37.5 207.5t97.5 141t133.5 80t145.5 25.5q68 0 126.5 -20t96.5 -58
q47 44 109.5 64.5t127.5 20.5q51 0 99 -12.5t84.5 -35.5t59 -56.5t22.5 -76.5q0 -13 -9 -26.5t-29 -22.5l-240 -111q-3 -2 -6 -3q-8 -2 -13 -2q-8 0 -14 6.5t-10 14t-5.5 14.5t-1.5 8q0 4 3.5 10t14.5 11q9 4 34 17.5t51 28.5q31 18 67 38q3 1 7 5q2 2 4.5 6t2.5 9
q0 23 -11.5 44t-31 37t-44.5 25.5t-51 9.5q-27 0 -53.5 -12t-47.5 -39t-34 -71t-13 -108q0 -49 17.5 -97t56.5 -86q26 8 52 12t53 4q63 0 93 -21.5t30 -48.5q0 -15 -9 -29t-26 -25.5t-43.5 -18.5t-60.5 -7q-29 0 -55 4t-49 12q-32 -36 -53 -77.5t-21 -92.5q0 -39 17.5 -81
t44.5 -76.5t60 -56.5t65 -22q40 0 74 24.5t58 62t37.5 83.5t13.5 90q0 22 13 38t42 16q17 0 33 -5.5t28.5 -14t20 -19.5t8.5 -23q0 -4 0.5 -9t0.5 -11zM667 343q-50 45 -77 106t-31 126l-111 -67q-1 -1 -3 -2t-8 -1q-13 0 -19.5 12.5t-6.5 23.5t6 17l122 82q0 39 -12 69
t-32 50t-46 30.5t-55 10.5q-40 0 -81 -20t-74.5 -60.5t-54.5 -102.5t-21 -146q0 -97 25.5 -170.5t65.5 -123.5t90 -75.5t99 -25.5q45 0 83 20q3 76 42 139.5t99 107.5z" />
    <glyph glyph-name="oe" unicode="&#x153;" horiz-adv-x="789" 
d="M825 189q0 -9 -2 -12q-20 -32 -48 -66t-60.5 -61.5t-67.5 -45t-68 -17.5q-53 0 -93.5 31t-64.5 82q-29 -48 -77.5 -79.5t-116.5 -31.5q-54 0 -94 20t-66 53t-38.5 75t-12.5 87q0 48 14 94t40.5 82t65.5 58.5t90 22.5q34 0 48.5 -14t14.5 -28q0 -11 -6.5 -18.5t-18.5 -7.5
q-27 0 -47.5 -12.5t-34.5 -32.5t-21 -46t-7 -54q0 -30 8.5 -59t25.5 -52.5t42.5 -37.5t60.5 -14q20 0 36.5 7t28.5 19q-23 17 -41.5 40t-31.5 49.5t-19.5 53.5t-6.5 51q0 38 18 64t56 26q28 0 49.5 -10t37.5 -27q14 36 35 68t49.5 55t64 36.5t78.5 13.5q44 0 69.5 -26.5
t25.5 -71.5q0 -24 -15 -52t-42 -57t-64.5 -59t-83.5 -58q14 -46 42 -77.5t73 -31.5q34 0 60.5 14.5t45.5 33t31 36.5t17 25q2 2 5 2q7 0 11.5 -14t4.5 -26zM643 441q0 23 -10.5 28t-14.5 5q-23 0 -40.5 -13.5t-29.5 -36.5t-18 -52.5t-6 -60.5v-14t1 -14q17 9 37.5 28
t38.5 42t30 46.5t12 41.5zM392 253q-2 36 -18 62t-42 26q-23 0 -23 -28q0 -18 5.5 -37.5t15 -38t23 -35.5t29.5 -29q3 10 6 23q2 11 3.5 25.5t0.5 31.5z" />
    <glyph glyph-name="Scaron" unicode="&#x160;" horiz-adv-x="723" 
d="M577 1247q0 -2 -0.5 -2.5t-0.5 -1.5v-2q-25 -16 -47.5 -42.5t-43 -56.5t-38 -60.5t-32.5 -55.5l-5.5 -10t-13.5 -21.5t-17.5 -21t-16.5 -9.5q-11 0 -21 9.5t-18 20.5q-10 13 -18 31q-15 25 -32 56t-37 61t-42.5 56.5t-47.5 42.5q-1 1 -1 2v4q0 4 2.5 8t13.5 4
q13 0 37 -11t52 -30t57.5 -44.5t53.5 -54.5q24 29 53.5 54.5t58 44.5t52 30t36.5 11q11 0 13.5 -4t2.5 -8zM678 695q0 -6 -3.5 -13.5t-15.5 -15.5l-230 -137q-2 -2 -5 -3q-5 -3 -11 -3t-19.5 9.5t-13.5 27.5q0 8 7 15q9 8 17.5 13.5t22.5 13.5t36 21t57 35q1 0 3 2
q1 2 2 3.5t1 4.5q0 28 -17.5 54t-45 45.5t-61.5 31t-68 11.5q-27 0 -52 -8.5t-44 -27.5t-30.5 -50t-11.5 -75q0 -52 35 -92t87.5 -77t114 -74.5t114 -83t87.5 -103.5t35 -136q0 -14 -3 -39.5t-14.5 -57t-34 -65t-62.5 -62t-100 -48t-146 -23.5q-65 1 -122 12
q-25 4 -50.5 11.5t-49 17.5t-43.5 24t-33 32q-3 3 -5 7q-5 7 -5 19q0 16 10.5 31t25.5 26.5t33 18.5t33 7q1 0 18.5 -6.5t33.5 -24.5q24 -27 55 -48q26 -18 61.5 -33t78.5 -15q14 0 39.5 5.5t50.5 22t43.5 47.5t18.5 82q0 56 -35 103.5t-88 91t-114.5 86.5t-114.5 90
t-88 100t-35 118q0 71 29.5 122t77.5 84t109 48.5t124 15.5q59 0 115 -13t99.5 -37t70 -59t26.5 -79z" />
    <glyph glyph-name="scaron" unicode="&#x161;" horiz-adv-x="407" 
d="M384 932q0 -2 -0.5 -2.5t-0.5 -1.5v-2q-25 -16 -47.5 -42.5t-43 -56.5t-38 -60.5t-32.5 -55.5l-5.5 -10t-13.5 -21.5t-17.5 -21t-16.5 -9.5q-11 0 -21 9.5t-18 20.5q-10 13 -18 31q-15 25 -32 56t-37 61t-42.5 56.5t-47.5 42.5q-1 1 -1 2v4q0 4 2.5 8t13.5 4q13 0 37 -11
t52 -30t57.5 -44.5t53.5 -54.5q24 29 53.5 54.5t58 44.5t52 30t36.5 11q11 0 13.5 -4t2.5 -8zM443 189q0 -9 -2 -12q-44 -57 -87.5 -95.5t-84 -62t-77 -33t-67.5 -9.5q-28 0 -51 6.5t-39 17t-25 23.5t-9 26q0 15 7.5 28.5t18 24t21.5 16.5t19 6q5 0 9 -1.5t7 -3.5q4 -2 6 -4
q9 -7 20 -17.5t24 -20t27 -16.5t29 -7q16 0 28 6t12 36q-9 30 -24.5 55.5t-34 48.5t-38.5 44.5t-38 43.5q-17 -38 -36 -73t-35 -52q0 -1 -1 -1h-4q-5 0 -7 3q-2 2 -3.5 8t-3.5 13q-2 8 -4 17q14 19 32 52t35 69q-17 25 -27 53t-10 62q0 41 15 70.5t38.5 48.5t51 28t52.5 9
q35 0 53 -17t18 -40q0 -29 -29 -56t-88 -31q3 -14 9 -26h2q-1 -1 -1 -2q17 -31 48 -56t61.5 -54t53 -67t22.5 -95v-12t-1 -7q29 15 49.5 41t37.5 53q2 2 5 2q7 0 11.5 -14t4.5 -26z" />
    <glyph glyph-name="Ydieresis" unicode="&#x178;" horiz-adv-x="828" 
d="M622 1006q0 -33 -23.5 -56t-55.5 -23q-33 0 -56 23t-23 56q0 32 23 55.5t56 23.5q32 0 55.5 -23.5t23.5 -55.5zM412 1006q0 -33 -23.5 -56t-55.5 -23q-33 0 -56 23t-23 56q0 32 23 55.5t56 23.5q32 0 55.5 -23.5t23.5 -55.5zM864 189q0 -9 -2 -12q-30 -48 -71 -80.5
t-86 -54.5v-64q0 -45 -22.5 -83.5t-56.5 -66t-73 -43.5t-72 -16q-39 0 -79.5 21t-73.5 52.5t-54 68t-21 68.5q0 7 4 14.5t21 7.5q2 0 23.5 2.5t57.5 8.5t84.5 16t105.5 25q1 17 2 33.5t2 35.5q1 47 0.5 94.5t0.5 95.5q-24 -35 -53 -72.5t-63.5 -69t-72.5 -52t-80 -20.5
q-40 0 -67.5 15t-45 39.5t-27.5 56.5t-14.5 65.5t-5.5 66.5t-1 60q0 62 4.5 137.5t7.5 157.5q-1 1 -3 2q-4 2 -8 2q-17 0 -38 -15.5t-43 -34t-42 -34.5t-34 -16q-9 2 -15 6q-5 4 -9.5 12t-4.5 23q0 7 4.5 17.5t20.5 22.5q11 9 31 23.5t44.5 31.5t52.5 34t54.5 31t50.5 23
t41 9q29 0 45.5 -11t16.5 -34q0 -7 -1 -31.5t-2 -58t-2.5 -74t-2.5 -79t-2 -73t-1 -56.5q0 -105 22 -148t57 -43q21 0 45 13.5t49 36t48.5 51.5t44.5 60q1 64 2.5 124t3.5 109t4.5 84.5t5.5 52.5q1 10 6 20q5 8 14 16t26 13q20 5 39.5 8.5t33.5 3.5q21 0 29.5 -13t8.5 -30
q0 -8 -3.5 -50t-7 -102.5t-7 -132.5t-3.5 -139q0 -66 -0.5 -129t-1.5 -117q31 14 53 30t38 31.5t27 31.5t20 30q2 2 5 2q7 0 11.5 -14t4.5 -26zM546 -12q-29 -7 -53 -12.5t-41 -11.5q-26 -8 -40.5 -16.5t-14.5 -19.5q0 -9 9 -26t23.5 -34t32.5 -29.5t36 -13.5q27 2 35 43
t13 120z" />
    <glyph glyph-name="Zcaron" unicode="&#x17d;" horiz-adv-x="799" 
d="M691 1166q0 -2 -0.5 -2.5t-0.5 -1.5v-2q-25 -16 -47.5 -42.5t-43 -56.5t-38 -60.5t-32.5 -55.5l-5.5 -10t-13.5 -21.5t-17.5 -21t-16.5 -9.5q-11 0 -21 9.5t-18 20.5q-10 13 -18 31q-15 25 -32 56t-37 61t-42.5 56.5t-47.5 42.5q-1 1 -1 2v4q0 4 2.5 8t13.5 4
q13 0 37 -11t52 -30t57.5 -44.5t53.5 -54.5q24 29 53.5 54.5t58 44.5t52 30t36.5 11q11 0 13.5 -4t2.5 -8zM835 189q0 -9 -2 -12q-37 -51 -68 -88t-60.5 -60.5t-57.5 -34.5t-59 -11q-51 0 -114.5 28t-153.5 77q-21 -21 -48 -41t-57 -36t-62.5 -26t-65.5 -10q-60 0 -88.5 16
t-28.5 39q0 22 22.5 47t64.5 47.5t102.5 39.5t135.5 22q33 22 59 61t49 89q-11 -2 -19.5 -2t-14.5 -1q-7 -1 -13 -1q-5 0 -5 9v12.5t1 15.5l2 18q1 1 1.5 5.5t9.5 8.5q3 2 23 4.5t48 7.5q26 66 53 135t60 127q-27 5 -57.5 8.5t-67.5 3.5q-58 0 -101.5 -9t-72 -23t-43 -30
t-14.5 -29t12.5 -21t37.5 -8q29 0 51 -1t37 -7t22.5 -19t7.5 -36q0 -9 -2.5 -20t-10 -21t-20.5 -16.5t-34 -6.5q-48 0 -85 12.5t-62 34t-37.5 49t-12.5 57.5q0 37 19.5 74t59.5 67t101 48.5t144 18.5q13 0 38 -1.5t54 -4.5t59 -8t54 -13q25 20 53.5 32t62.5 12
q35 0 53.5 -21t18.5 -48q0 -17 -7.5 -33.5t-24 -29.5t-41.5 -21.5t-60 -8.5h-12q-35 -40 -62.5 -99.5t-59.5 -128.5l45 7q5 0 8.5 -2.5t3.5 -10.5t-1 -15.5t-2 -13.5l-2 -14q0 -3 -3 -7q-2 -3 -7 -7t-13 -6q-7 -2 -26 -5t-44 -6q-23 -42 -50.5 -84t-62.5 -82
q46 -7 86.5 -17.5t75.5 -21t65.5 -18t57.5 -7.5q22 0 41.5 10.5t37 26.5t32 35t25.5 37q2 2 5 2q7 0 11.5 -14t4.5 -26z" />
    <glyph glyph-name="zcaron" unicode="&#x17e;" horiz-adv-x="457" 
d="M469 845q0 -2 -0.5 -2.5t-0.5 -1.5v-2q-25 -16 -47.5 -42.5t-43 -56.5t-38 -60.5t-32.5 -55.5l-5.5 -10t-13.5 -21.5t-17.5 -21t-16.5 -9.5q-11 0 -21 9.5t-18 20.5q-10 13 -18 31q-15 25 -32 56t-37 61t-42.5 56.5t-47.5 42.5q-1 1 -1 2v4q0 4 2.5 8t13.5 4q13 0 37 -11
t52 -30t57.5 -44.5t53.5 -54.5q24 29 53.5 54.5t58 44.5t52 30t36.5 11q11 0 13.5 -4t2.5 -8zM493 189q0 -9 -2 -12q-10 -13 -21 -28q-21 -27 -50 -61q1 -8 1.5 -16t0.5 -16q0 -50 -17.5 -102.5t-49 -95t-74 -70t-91.5 -27.5q-21 0 -45 11t-44.5 30.5t-34 46.5t-13.5 58
q0 8 4 17.5t18 17.5q6 3 17.5 9.5t26.5 14.5t32.5 18t34.5 19q40 22 88 49q0 15 -8 23.5t-20 13.5t-27 6.5t-29 1.5q-12 0 -22.5 -0.5t-18.5 -0.5q-5 0 -9 2q-3 2 -5.5 4.5t-2.5 8.5q0 4 1 7q3 9 9.5 21.5t15 26t16 26t11.5 21.5t14 33t20.5 50t19 47t8.5 24q0 2 0.5 3
t0.5 2q0 3 -8 3h-16.5t-27 0.5t-28 1t-18.5 2.5q-10 2 -15 4q-10 -24 -23.5 -56t-29 -63.5t-31 -58.5t-28.5 -41q0 -1 -1 -1h-4q-5 0 -7 3q-2 2 -3.5 8t-3.5 13q-2 8 -4 17q11 15 24.5 38.5t27.5 51t27 56t22 52.5q-24 19 -38.5 47t-13.5 54q0 14 6.5 24t15.5 16.5t18.5 9.5
t16.5 3q9 0 19 -6t18.5 -15.5t14 -22.5t5.5 -28q0 -12 -4 -23q0 -4 1 -7.5t5.5 -6.5t13 -5t24.5 -2q15 0 38 0.5t47 1.5t45.5 2t35.5 2q7 1 16 -3t9 -18q0 -8 -20 -31.5t-44 -53t-43.5 -59.5t-19.5 -49q0 -5 4 -6q51 -3 83 -25t49 -56q19 11 36 34t33 48q2 2 5 2
q7 0 11.5 -14t4.5 -26zM294 -29q0 6 -1 13t-4 10q-1 1 -3 1q-4 0 -17 -7.5t-29.5 -18t-34 -22t-30.5 -19.5q-7 -4 -9 -11.5t-2 -15.5q0 -12 6 -26.5t13.5 -27t15.5 -20.5t12 -8q14 1 29 19t27 42.5t19.5 50t7.5 40.5z" />
    <glyph glyph-name="florin" unicode="&#x192;" horiz-adv-x="787" 
d="M757 387q0 -71 -22.5 -145.5t-68 -135.5t-114.5 -100t-161 -39q-95 0 -168 38.5t-122 101.5t-74 144t-25 165q0 122 38 208.5t97.5 141t133.5 80t146 25.5q54 0 103.5 -13.5t87 -38.5t60 -61t23.5 -81q0 -7 -3 -17t-17 -18l-223 -134q-1 -1 -3 -2t-8 -1q-13 0 -19.5 12.5
t-6.5 23.5t6 17l122 82q0 39 -12 69t-32 50t-46 30.5t-55 10.5q-40 0 -81 -20t-74.5 -60.5t-54.5 -102.5t-21 -146q0 -97 25.5 -170.5t65.5 -123.5t90 -75.5t99 -25.5q38 0 73 15.5t61.5 47.5t42 79.5t15.5 112.5q0 35 -12.5 58t-28 39.5t-28 28.5t-12.5 24q0 15 13.5 28.5
t34 23t43.5 15.5t42 6q29 0 36 -13q17 -32 25.5 -71t8.5 -83z" />
    <glyph glyph-name="circumflex" unicode="&#x2c6;" horiz-adv-x="500" 
d="M510 535q0 -4 -2.5 -8t-13.5 -4q-13 0 -37 11t-52 30t-57.5 44.5t-53.5 54.5q-24 -29 -53.5 -54.5t-58 -44.5t-52 -30t-36.5 -11q-11 0 -13.5 4t-2.5 8v4q0 1 1 2q25 16 47.5 42t43 56t38 61t32.5 56l5.5 10t13.5 21.5t17.5 21t16.5 9.5q11 0 21 -10t18 -21
q10 -13 18 -30q15 -25 32 -56t37 -61t42 -56.5t48 -42.5v-2q0 -1 0.5 -2t0.5 -2z" />
    <glyph glyph-name="caron" unicode="&#x2c7;" horiz-adv-x="500" 
d="M510 807q0 -2 -0.5 -2.5t-0.5 -1.5v-2q-25 -16 -47.5 -42.5t-43 -56.5t-38 -60.5t-32.5 -55.5l-5.5 -10t-13.5 -21.5t-17.5 -21t-16.5 -9.5q-11 0 -21 9.5t-18 20.5q-10 13 -18 31q-15 25 -32 56t-37 61t-42.5 56.5t-47.5 42.5q-1 1 -1 2v4q0 4 2.5 8t13.5 4q13 0 37 -11
t52 -30t57.5 -44.5t53.5 -54.5q24 29 53.5 54.5t58 44.5t52 30t36.5 11q11 0 13.5 -4t2.5 -8z" />
    <glyph glyph-name="dotaccent" unicode="&#x2d9;" horiz-adv-x="262" 
d="M185 668q0 -33 -23.5 -56t-55.5 -23q-33 0 -56 23t-23 56q0 32 23 55.5t56 23.5q32 0 55.5 -23.5t23.5 -55.5z" />
    <glyph glyph-name="ring" unicode="&#x2da;" horiz-adv-x="262" 
d="M222 668q0 -24 -9.5 -45t-25 -37t-36.5 -25t-45 -9t-45 9t-37 25t-25 37t-9 45t9 45t25 36.5t37 25t45 9.5t45 -9.5t36.5 -25t25 -36.5t9.5 -45zM177 668q0 29 -21 50t-50 21q-30 0 -50.5 -21t-20.5 -50q0 -30 20.5 -50.5t50.5 -20.5q29 0 50 20.5t21 50.5z" />
    <glyph glyph-name="tilde" unicode="&#x2dc;" horiz-adv-x="500" 
d="M425 709q0 -1 -10 -21.5t-31 -44.5t-53 -43.5t-75 -19.5q-26 0 -50.5 13.5t-46.5 29.5t-41.5 29.5t-34.5 13.5t-37 -15.5t-40 -38.5q-6 0 -14.5 2t-8.5 9q0 8 14 25.5t37 35t52.5 31t60.5 13.5q28 0 50 -10t43 -22.5t42.5 -22.5t47.5 -10q12 0 20 2.5t15.5 8.5t15 16.5
t18.5 27.5q7 -1 13 -2q5 -2 9 -3.5t4 -3.5z" />
    <glyph glyph-name="pi" unicode="&#x3c0;" horiz-adv-x="799" 
d="M1109 916q0 -21 -22 -21q-18 0 -28.5 4.5t-26.5 4.5q-53 0 -96.5 -38t-79 -99.5t-63 -140.5t-48.5 -161q-49 -194 -76 -439q-1 -8 -10.5 -14t-24.5 -10.5t-33 -7t-35 -2.5q-23 0 -39 5t-18 16q-1 33 -3.5 85t-7 110t-10.5 117t-14 106t-17.5 76.5t-20.5 29.5
q-4 0 -13 -18q-3 -6 -10.5 -34.5t-17.5 -69.5t-22 -90t-23 -96.5t-20 -87.5t-13 -63q-8 -38 -31.5 -59.5t-50 -31.5t-48.5 -12t-26 -2q-11 0 -24 6t-13 28q1 32 1 64.5v67.5q0 117 -8.5 218.5t-22 177t-30 119t-33.5 43.5t-38 -15.5t-43 -34t-42 -34.5t-34 -16q-9 2 -15 6
q-5 4 -9.5 12t-4.5 23q0 7 4.5 17.5t20.5 22.5q11 9 31 23.5t44.5 31.5t52.5 34t54.5 31t50.5 23t41 9q22 0 39.5 -22.5t30 -60t22 -86t15.5 -101.5t9.5 -105.5t5 -98t2 -80.5t0.5 -51v-12q4 11 13.5 43t22.5 78t29.5 100.5t34.5 110t37 107.5t37 92t35.5 64.5t31.5 24.5
q10 0 20.5 -26t21 -68.5t20 -97t18.5 -111.5t17 -111.5t14.5 -97.5t12 -69.5t9.5 -26.5q5 36 13 90.5t19 118.5t26.5 133.5t36 137t46.5 128t59 106.5t72.5 73t86.5 27q10 0 22 -5q10 -5 25 -20t28.5 -33t23 -36t9.5 -29z" />
    <glyph glyph-name="endash" unicode="&#x2013;" horiz-adv-x="601" 
d="M499 211q0 -20 -4.5 -36t-10.5 -16h-374q-7 1 -7 12q0 20 4.5 36t10.5 16l374 -1q7 0 7 -11z" />
    <glyph glyph-name="emdash" unicode="&#x2014;" horiz-adv-x="997" 
d="M895 211q0 -20 -9 -36t-22 -16h-746q-15 1 -15 12q0 20 9 36t22 16l746 -1q15 0 15 -11z" />
    <glyph glyph-name="quoteleft" unicode="&#x2018;" horiz-adv-x="378" 
d="M281 513q0 -44 -27.5 -66t-60.5 -22q-17 0 -33.5 6t-29 17.5t-20.5 29.5t-8 42q0 30 10.5 62.5t29 60t44 46.5t54.5 23q9 0 14.5 -7.5t5.5 -16.5q0 -13 -12 -19q-23 -10 -33 -34.5t-12 -51.5q5 1 15 1q32 0 47.5 -21.5t15.5 -49.5z" />
    <glyph glyph-name="quoteright" unicode="&#x2019;" horiz-adv-x="378" 
d="M280 616q0 -30 -10.5 -62.5t-29 -60t-44 -46.5t-54.5 -23q-9 0 -14.5 7.5t-5.5 16.5q0 13 12 19q23 10 33 34.5t12 51.5q-5 -1 -15 -1q-32 0 -47.5 21.5t-15.5 49.5q0 44 27.5 66t60.5 22q17 0 33.5 -6t29 -17.5t20.5 -29.5t8 -42z" />
    <glyph glyph-name="quotesinglbase" unicode="&#x201a;" horiz-adv-x="393" 
d="M286 48q0 -30 -10.5 -62.5t-29 -60t-44 -46.5t-54.5 -23q-9 0 -14.5 7.5t-5.5 16.5q0 13 12 19q23 10 33 34.5t12 51.5q-5 -1 -15 -1q-32 0 -47.5 21.5t-15.5 49.5q0 44 27.5 66t60.5 22q17 0 33.5 -6t29 -17.5t20.5 -29.5t8 -42z" />
    <glyph glyph-name="quotedblleft" unicode="&#x201c;" horiz-adv-x="594" 
d="M497 513q0 -44 -27.5 -66t-60.5 -22q-17 0 -33.5 6t-29 17.5t-20.5 29.5t-8 42q0 30 10.5 62.5t29 60t44 46.5t54.5 23q9 0 14.5 -7.5t5.5 -16.5q0 -13 -12 -19q-23 -10 -33 -34.5t-12 -51.5q5 1 15 1q32 0 47.5 -21.5t15.5 -49.5zM281 513q0 -44 -27.5 -66t-60.5 -22
q-17 0 -33.5 6t-29 17.5t-20.5 29.5t-8 42q0 30 10.5 62.5t29 60t44 46.5t54.5 23q9 0 14.5 -7.5t5.5 -16.5q0 -13 -12 -19q-23 -10 -33 -34.5t-12 -51.5q5 1 15 1q32 0 47.5 -21.5t15.5 -49.5z" />
    <glyph glyph-name="quotedblright" unicode="&#x201d;" horiz-adv-x="594" 
d="M496 616q0 -30 -10.5 -62.5t-29 -60t-44 -46.5t-54.5 -23q-9 0 -14.5 7.5t-5.5 16.5q0 13 12 19q23 10 33 34.5t12 51.5q-5 -1 -15 -1q-32 0 -47.5 21.5t-15.5 49.5q0 44 27.5 66t60.5 22q17 0 33.5 -6t29 -17.5t20.5 -29.5t8 -42zM280 616q0 -30 -10.5 -62.5t-29 -60
t-44 -46.5t-54.5 -23q-9 0 -14.5 7.5t-5.5 16.5q0 13 12 19q23 10 33 34.5t12 51.5q-5 -1 -15 -1q-32 0 -47.5 21.5t-15.5 49.5q0 44 27.5 66t60.5 22q17 0 33.5 -6t29 -17.5t20.5 -29.5t8 -42z" />
    <glyph glyph-name="quotedblbase" unicode="&#x201e;" horiz-adv-x="609" 
d="M502 52q0 -30 -10.5 -62.5t-29 -60t-44 -46.5t-54.5 -23q-9 0 -14.5 7.5t-5.5 16.5q0 13 12 19q23 10 33 34.5t12 51.5q-5 -1 -15 -1q-32 0 -47.5 21.5t-15.5 49.5q0 44 27.5 66t60.5 22q17 0 33.5 -6t29 -17.5t20.5 -29.5t8 -42zM286 52q0 -30 -10.5 -62.5t-29 -60
t-44 -46.5t-54.5 -23q-9 0 -14.5 7.5t-5.5 16.5q0 13 12 19q23 10 33 34.5t12 51.5q-5 -1 -15 -1q-32 0 -47.5 21.5t-15.5 49.5q0 44 27.5 66t60.5 22q17 0 33.5 -6t29 -17.5t20.5 -29.5t8 -42z" />
    <glyph glyph-name="dagger" unicode="&#x2020;" horiz-adv-x="500" 
d="M492 401q0 -13 -3.5 -26t-10 -23.5t-15 -17t-17.5 -6.5v1l-158 45l29 -264q0 -34 -7.5 -68t-15.5 -62q-11 -33 -23 -63q-13 30 -24 63q-9 28 -16.5 62t-7.5 68l28 263l-151 -44q-25 0 -35.5 15.5t-10.5 35.5q0 13 3.5 26t10 23.5t15 17t17.5 6.5l141 -41q-8 13 -18 33.5
t-19 43t-15 45.5t-6 42q0 47 27 70t60 23t60 -23t27 -70q0 -19 -6.5 -42t-15.5 -46t-19.5 -43.5t-17.5 -34.5l148 42q25 0 35.5 -15.5t10.5 -35.5z" />
    <glyph glyph-name="daggerdbl" unicode="&#x2021;" horiz-adv-x="500" 
d="M492 401q0 -13 -3.5 -26t-10 -23.5t-15 -17t-17.5 -6.5v1l-156 44l27 -123l-27 -123l150 44q25 0 35.5 -15.5t10.5 -35.5q0 -13 -3.5 -26t-10 -23.5t-15 -17t-17.5 -6.5l-141 41q7 -14 17 -34.5t19 -43t15.5 -45t6.5 -41.5q0 -47 -27 -70t-60 -23t-60 23t-27 70
q0 19 6 42t15 45.5t19 43t18 34.5l-147 -41q-25 0 -35.5 15.5t-10.5 35.5q0 13 3.5 26t10 23.5t15 17t17.5 6.5v-1l155 -45l-26 124l26 122l-149 -43q-25 0 -35.5 15.5t-10.5 35.5q0 13 3.5 26t10 23.5t15 17t17.5 6.5l141 -41q-8 13 -18 33.5t-19 43t-15 45.5t-6 42
q0 47 27 70t60 23t60 -23t27 -70q0 -19 -6.5 -42t-15.5 -46t-19.5 -43.5t-17.5 -34.5l148 42q25 0 35.5 -15.5t10.5 -35.5z" />
    <glyph glyph-name="bullet" unicode="&#x2022;" horiz-adv-x="500" 
d="M364 299q0 -27 -10.5 -49.5t-28 -39t-40.5 -26t-48 -9.5q-27 0 -50.5 9.5t-40.5 26t-26.5 39t-9.5 49.5q0 24 9.5 46.5t26.5 39t40.5 26.5t50.5 10q25 0 48 -10t40.5 -26.5t28 -39t10.5 -46.5z" />
    <glyph glyph-name="ellipsis" unicode="&#x2026;" horiz-adv-x="1034" 
d="M931 59q0 -18 -7 -34t-19 -27.5t-28 -18t-34 -6.5q-38 0 -63 24.5t-25 61.5q0 17 6.5 32.5t18.5 27t28 18.5t35 7q18 0 34 -7t28 -18.5t19 -27t7 -32.5zM607 59q0 -18 -7 -34t-19 -27.5t-28 -18t-34 -6.5q-38 0 -63 24.5t-25 61.5q0 17 6.5 32.5t18.5 27t28 18.5t35 7
q18 0 34 -7t28 -18.5t19 -27t7 -32.5zM283 59q0 -18 -7 -34t-19 -27.5t-28 -18t-34 -6.5q-38 0 -63 24.5t-25 61.5q0 17 6.5 32.5t18.5 27t28 18.5t35 7q18 0 34 -7t28 -18.5t19 -27t7 -32.5z" />
    <glyph glyph-name="perthousand" unicode="&#x2030;" horiz-adv-x="1224" 
d="M1149 236q0 -45 -11.5 -90t-33 -80.5t-52.5 -58t-70 -22.5q-41 0 -70.5 16.5t-49 44t-28.5 63t-9 73.5q0 45 12 90t34.5 80.5t55.5 58t74 22.5q38 0 66 -16.5t46 -44t27 -63t9 -73.5zM775 236q0 -45 -11.5 -90t-33 -80.5t-52.5 -58t-70 -22.5q-41 0 -70.5 16.5t-49 44
t-28.5 63t-9 73.5q0 45 12 90t34.5 80.5t55.5 58t74 22.5q38 0 66 -16.5t46 -44t27 -63t9 -73.5zM655 758q0 -5 -5 -15l-449 -766q-4 -7 -8 -11q-9 -11 -17 -11q-11 0 -23.5 12t-12.5 24q0 6 5 16l449 765q4 6 8 11t7.5 8.5t8.5 3.5q11 0 24 -12.5t13 -24.5zM358 593
q0 -45 -11.5 -90t-33 -80.5t-52.5 -58t-70 -22.5q-41 0 -70.5 16.5t-49 44t-28.5 63t-9 73.5q0 45 12 90t34.5 80.5t55.5 58t74 22.5q38 0 66 -16.5t46 -44t27 -63t9 -73.5zM1061 192q0 33 -5 65t-15 58t-23.5 42t-29.5 16q-21 0 -35.5 -12.5t-24 -33t-14 -47.5t-4.5 -55
q0 -32 5.5 -64t16 -57t25 -40.5t33.5 -15.5t32.5 12t22 32t12.5 46t4 54zM687 192q0 33 -5 65t-15 58t-23.5 42t-29.5 16q-21 0 -35.5 -12.5t-24 -33t-14 -47.5t-4.5 -55q0 -32 5.5 -64t16 -57t25 -40.5t33.5 -15.5t32.5 12t22 32t12.5 46t4 54zM270 549q0 33 -5 65t-15 58
t-23.5 42t-29.5 16q-21 0 -35.5 -12.5t-24 -33t-14 -47.5t-4.5 -55q0 -32 5.5 -64t16 -57t25 -40.5t33.5 -15.5t32.5 12t22 32t12.5 46t4 54z" />
    <glyph glyph-name="guilsinglleft" unicode="&#x2039;" horiz-adv-x="505" 
d="M427 117q0 -6 -9 -13t-20 -13t-22 -10t-14 -4t-30 14t-66 32.5t-84.5 37t-84.5 26.5q-14 3 -19 11.5t-5 19.5q0 15 6.5 28.5t12.5 13.5q59 8 111 28t92 40q47 24 86 51q3 0 11 -2t15.5 -6t13.5 -9t6 -11q0 -1 -7 -10t-31.5 -24.5t-73 -36.5t-132.5 -46
q84 -29 132.5 -50.5t73.5 -36t31.5 -22t6.5 -8.5z" />
    <glyph glyph-name="guilsinglright" unicode="&#x203a;" horiz-adv-x="505" 
d="M450 238q0 -15 -6.5 -28.5t-12.5 -13.5q-59 -9 -111 -28.5t-92 -39.5q-47 -24 -86 -51q-3 0 -11 2t-15.5 6t-13.5 9t-6 11q0 1 7 10t31.5 24.5t73 36.5t132.5 46q-84 29 -132.5 50.5t-73.5 36t-31.5 22t-6.5 8.5q0 6 9 13t20 13t22 10t14 4t30 -14t66 -32.5t84.5 -37
t84.5 -26.5q14 -3 19 -11.5t5 -19.5z" />
    <glyph glyph-name="Euro" unicode="&#x20ac;" horiz-adv-x="760" 
d="M725 279q0 -74 -25.5 -131t-67.5 -96.5t-96.5 -60t-112.5 -20.5q-56 0 -110.5 19.5t-101.5 59.5t-81.5 102t-49.5 146l-79 -13q-11 0 -14.5 4t-3.5 15q0 19 7 33t16 14l66 11q-2 13 -2 26.5v27.5v7l-69 -11q-11 0 -14.5 4t-3.5 15q0 19 7 33t16 14l68 11q10 100 46.5 172
t87.5 118.5t111.5 68.5t119.5 22q47 0 90 -13.5t75.5 -39t51.5 -62t19 -83.5q0 -10 -8 -21t-20.5 -20t-27.5 -15t-29 -6q-13 0 -23 7t-14 23q-8 45 -25 81q-14 31 -38.5 56.5t-62.5 25.5q-49 0 -85.5 -23.5t-62 -63.5t-39.5 -92t-18 -110l245 41q5 0 7 -6.5t2 -14.5
q0 -21 -6.5 -33t-17.5 -14l-231 -39q0 -16 1 -31t3 -30l242 41q5 0 7 -6.5t2 -14.5q0 -21 -6.5 -33t-17.5 -14l-216 -36q14 -65 38.5 -114t54.5 -83t63.5 -51t66.5 -17q29 0 55.5 14.5t46.5 44t31.5 74.5t11.5 107q0 22 13 38t42 16q17 0 29.5 -7t20.5 -18t12 -24t4 -25z
" />
    <glyph glyph-name="Omega" unicode="&#x2126;" horiz-adv-x="810" 
d="M846 189q0 -9 -2 -12q-37 -51 -68 -88t-60.5 -60.5t-57.5 -34.5t-59 -11q-54 0 -108.5 24.5t-106.5 54.5q-52 -32 -104.5 -50.5t-102.5 -18.5q-47 0 -80.5 8.5t-56 23t-33 33.5t-10.5 39q0 25 16 51t46.5 46.5t75 33.5t101.5 13q54 0 96.5 -7t77.5 -18q25 36 45.5 77
t34.5 84t22 87t8 85q0 48 -11.5 90t-35.5 73.5t-62 50t-92 18.5q-28 0 -53.5 -11.5t-45.5 -35.5t-32.5 -60t-13.5 -84l122 -82q6 -6 6 -17t-6.5 -23.5t-19.5 -12.5q-6 0 -8 1t-3 2l-223 134q-14 8 -17 18t-3 17q1 52 28.5 94.5t72 71.5t101.5 45t117 16q65 0 128 -19.5
t113 -61.5t81 -108t31 -158q0 -40 -13 -83.5t-36.5 -87.5t-56 -86.5t-70.5 -80.5q41 -20 80.5 -35.5t90.5 -15.5q22 0 41.5 10.5t37 26.5t32 35t25.5 37q2 2 5 2q7 0 11.5 -14t4.5 -26zM182 71q32 0 62 10t59 28q-28 15 -53 24.5t-46 9.5q-35 0 -55 -12.5t-20 -27.5
q0 -11 12.5 -20t40.5 -12z" />
    <glyph glyph-name="partialdiff" unicode="&#x2202;" horiz-adv-x="0" 
d="M2400 -174q-63 0 -167.5 -0.5t-238 -1t-289 -2t-319 -3.5t-328 -5t-316.5 -6.5t-284.5 -8.5t-232.5 -10.5t-159.5 -13t-65.5 -15.5q-6 8 -65.5 15.5t-159.5 13t-232.5 10.5t-284.5 8.5t-316.5 6.5t-328 5t-319 3.5t-289 2t-238 1t-167.5 0.5v8q63 0 168 0.5t239 1
t289.5 2t319.5 3.5t329 5t317.5 6.5t285 8.5t231.5 10.5t158 13t63 15.5q4 -8 63 -15.5t158 -13t231.5 -10.5t285 -8.5t317.5 -6.5t329 -5t319.5 -3.5t289.5 -2t239 -1t168 -0.5v-8zM0 -130l-96 -40l96 -40l96 40zM19 -170q0 -8 -5.5 -13.5t-13.5 -5.5t-13.5 5.5t-5.5 13.5
t5.5 13.5t13.5 5.5t13.5 -5.5t5.5 -13.5z" />
    <glyph glyph-name="Delta" unicode="&#x2206;" horiz-adv-x="1204" 
d="M1240 189q0 -9 -2 -12q-22 -32 -48.5 -65.5t-54 -60.5t-54 -44.5t-49.5 -17.5q-16 0 -29.5 10t-23.5 33t-15.5 60t-5.5 91q0 25 -1 54.5t-3.5 55.5t-7.5 43.5t-13 17.5q-17 0 -36.5 -18t-36 -43.5t-27 -52.5t-10.5 -45q0 -6 0.5 -15t1 -28.5t2.5 -53.5t5 -89q0 -7 -2 -12
q-4 -11 -12 -11h-76q-19 0 -38 1q-5 -1 -9 2q-3 2 -6 6t-3 12q-2 32 -4 69q-2 31 -2.5 71t-0.5 82q0 22 0.5 60.5t1.5 83.5t1.5 91.5t1.5 85t1.5 63.5t0.5 27q-28 0 -52 2t-42 5q-21 4 -38 8q-2 -19 -4 -41q-2 -19 -3 -44.5t-1 -55.5q0 -7 1 -17.5t3 -35.5t4 -71t5 -124
q2 -54 -14 -108.5t-52.5 -98t-96.5 -71t-147 -27.5q-3 0 -22 1.5t-45 6t-56 11.5t-55 18.5t-41.5 27.5t-16.5 38q0 8 3.5 22t12 27t21 22.5t30.5 9.5q10 0 26.5 -8t35 -20.5t39.5 -27t40.5 -27t36.5 -20.5t30 -8q26 0 47 18.5t36 47t23.5 63.5t8.5 67q0 33 -1.5 72.5t-3 74
t-3 58t-1.5 25.5q0 54 5.5 92.5t13.5 64.5q8 30 19 50q0 6 -10 6q-99 0 -167 -15.5t-110 -39.5t-61 -52t-19 -53q0 -29 20.5 -48t55.5 -19q29 0 51 -1t37 -7t22.5 -19t7.5 -36q0 -9 -2.5 -20t-10 -21t-20.5 -16.5t-34 -6.5q-48 0 -84 16.5t-60.5 44t-37 64t-12.5 75.5
q0 49 20 99.5t61 91t103 66t146 25.5q70 0 125 -7.5t100 -18.5t82 -23t72 -22q29 17 52 24t40 7q29 0 42.5 -15.5t13.5 -35.5q0 -15 -7 -29.5t-21 -24.5q-1 -24 -2 -55.5t-2 -64.5t-1.5 -66t-1 -60.5t-1 -46.5t-0.5 -26q0 -12 1 -15q10 21 35 48.5t56.5 52t66 42t62.5 17.5
t45.5 -21.5t17.5 -72.5q0 -13 -0.5 -44t-0.5 -63q-1 -38 -1 -81q0 -17 7 -32t27 -16q27 -1 44.5 20t39.5 55q2 2 5 2q7 0 11.5 -14t4.5 -26z" />
    <glyph glyph-name="product" unicode="&#x220f;" horiz-adv-x="763" 
d="M742 110q0 -68 -28 -125t-77.5 -99t-117.5 -65.5t-148 -23.5q-93 0 -162.5 44t-116.5 117t-70.5 166.5t-23.5 191.5q0 68 11.5 136t34.5 129.5t57.5 114.5t80.5 91.5t103.5 60.5t126.5 22q52 0 99.5 -13.5t83.5 -39t57.5 -62t21.5 -83.5q0 -7 -3 -17t-17 -18l-206 -129
q-1 -1 -3 -2t-8 -1q-13 0 -19.5 12.5t-6.5 23.5t6 17l122 82q-10 45 -28 81q-16 31 -43 56.5t-69 25.5q-65 0 -111.5 -34t-76.5 -90.5t-44 -130.5t-14 -153q0 -93 18 -185.5t52 -166t82 -119.5t108 -46q40 0 74 24.5t58 62t37.5 83.5t13.5 90q0 22 13 38t42 16q17 0 33 -5.5
t28.5 -14t20 -19.5t8.5 -23q0 -4 0.5 -9t0.5 -11z" />
    <glyph glyph-name="summation" unicode="&#x2211;" horiz-adv-x="716" 
d="M916 897q0 -21 -22 -21q-18 0 -34.5 1.5t-32.5 1.5q-68 0 -115 -70.5t-76.5 -193.5t-43 -291t-13.5 -363q0 -22 -16 -34.5t-41 -12.5q-9 0 -23.5 28t-32 73.5t-38 104t-40.5 120t-39.5 120t-35.5 104t-27.5 73.5t-16.5 28q-3 0 -4 -10q-2 -61 -5.5 -140.5t-13.5 -164
t-28 -166.5t-49 -146.5t-77 -104t-111 -39.5q-23 0 -40 7.5t-28 20t-17 28t-6 31.5q0 29 19 51.5t58 22.5q40 0 71 28.5t54 77t38.5 111.5t26 131.5t16.5 139t9 132.5t3.5 111.5t1.5 77.5q0 20 15 37t35 29.5t42 19.5t37 7q11 0 19 -5t10 -17q7 -33 20 -84t29.5 -107.5
t34.5 -113.5t34 -103t28.5 -74.5t17.5 -28.5q3 0 5 7t2 16q1 63 7 138.5t18.5 152t34 148t53 126.5t75.5 88.5t102 33.5q10 0 22 -5q10 -5 25.5 -22t29 -38t23.5 -41t10 -31z" />
    <glyph glyph-name="minus" unicode="&#x2212;" horiz-adv-x="461" 
d="M422 291q0 -20 -9 -36t-22 -16h-346q-15 1 -15 12q0 20 9 36t22 16l346 -1q15 0 15 -11z" />
    <glyph glyph-name="radical" unicode="&#x221a;" horiz-adv-x="787" 
d="M757 387q0 -71 -22.5 -145.5t-68 -135.5t-114.5 -100t-161 -39q-75 0 -135.5 24t-107 66t-78.5 97.5t-49 118.5q-39 -21 -66.5 -36t-35.5 -20q-13 -6 -17.5 -7.5t-7.5 -1.5q-11 0 -17.5 13t-6.5 25q0 10 3.5 14.5t11.5 9.5l122 68q-2 20 -3.5 39t-1.5 39q0 122 38 208.5
t97.5 141t133.5 80t146 25.5q54 0 103.5 -13.5t87 -38.5t60 -61t23.5 -81q0 -8 -2 -16.5t-8 -16.5q-5 -6 -29.5 -21.5t-63 -38t-87.5 -50t-104 -57.5t-112 -61.5t-111 -60.5q13 -69 41.5 -121t65 -87t79 -53t83.5 -18q38 0 73 15.5t61.5 47.5t42 79.5t15.5 112.5
q0 35 -12.5 58t-28 39.5t-28 28.5t-12.5 24q0 15 13.5 28.5t34 23t43.5 15.5t42 6q24 0 37.5 -18.5t21 -44.5t9.5 -54.5t2 -49.5zM531 674q0 27 -11 50t-29 40t-43 26.5t-54 9.5q-40 0 -81 -20t-74.5 -60.5t-54.5 -102.5t-21 -146v-23.5t1 -22.5l347 192q15 8 17.5 26
t2.5 31z" />
    <glyph glyph-name="infinity" unicode="&#x221e;" horiz-adv-x="0" 
d="M1250 -190h-171.5t-194 -1t-203 -2t-198 -3.5t-180.5 -5t-149.5 -7t-105.5 -9.5t-48 -12q-8 7 -48.5 12t-105 9.5t-149.5 7t-180.5 5t-198 3.5t-203 2t-194 1h-171.5v40h172t195 1t204 2t199 3.5t181 5t149.5 7t104 9.5t45.5 12q6 -7 45.5 -12t104 -9.5t149.5 -7t181 -5
t199 -3.5t204 -2t195 -1h172v-40z" />
    <glyph glyph-name="integral" unicode="&#x222b;" horiz-adv-x="490" 
d="M824 910q0 -21 -22 -21q-18 0 -34.5 1.5t-32.5 1.5q-50 0 -93.5 -37.5t-80.5 -99t-67.5 -139.5t-54.5 -160q-56 -192 -94 -436q-1 -8 -12.5 -14t-28.5 -10.5t-36.5 -7t-36.5 -2.5q-23 0 -39 5t-18 16q1 32 1 64.5v67.5q0 134 -13.5 238t-34.5 175t-46.5 108t-49.5 37
q-17 0 -38 -15.5t-43 -34t-42 -34.5t-34 -16q-9 2 -15 6q-5 4 -9.5 12t-4.5 23q0 7 4.5 17.5t20.5 22.5q11 9 31 23.5t44.5 31.5t52.5 34t54.5 31t50.5 23t41 9q25 0 45.5 -26t37 -68t29.5 -95.5t22 -109.5q22 -132 34 -299l13 6q5 36 14 89.5t23 116t32 130.5t41.5 133.5
t52.5 124.5t64 104t76 71t88 26q10 0 22 -5q10 -5 25 -20t28.5 -33t23 -36t9.5 -29z" />
    <glyph glyph-name="approxequal" unicode="&#x2248;" horiz-adv-x="877" 
d="M845 -29q0 -8 -0.5 -17t-1.5 -17q-1 -10 -2 -18q0 -3 -3 -7q-2 -3 -7 -7t-13 -6l-9 -3t-14 -4q-1 -31 -1.5 -59.5t-1.5 -53.5q0 -7 -2 -12q-4 -11 -12 -11h-76q-19 0 -38 1q-4 -1 -8 2q-3 2 -6 6t-4 12q2 9 4 21q3 21 9 57q-11 -3 -20 -5.5t-16 -4.5q-8 -3 -14 -4
q-5 0 -5 9v14t1 18q0 11 1 23q1 1 1.5 5.5t9.5 8.5q3 2 18 6.5t38 11.5q5 28 8.5 57.5t8.5 59.5q-43 -40 -99.5 -63.5t-127.5 -23.5q-63 0 -116.5 18.5t-97 51t-76.5 77t-55 95.5q-29 -15 -49.5 -26.5t-27.5 -15.5q-13 -6 -17.5 -7.5t-7.5 -1.5q-11 0 -17.5 13t-6.5 25
q0 10 3.5 14.5t11.5 9.5l89 49q-10 37 -15.5 75t-5.5 77q0 112 40.5 195.5t105 138.5t144 82.5t156.5 27.5q58 0 110.5 -15t92.5 -45t64 -74.5t25 -103.5q0 -8 -2 -16.5t-8 -16.5q-5 -6 -32 -23t-69 -41.5t-96 -54.5t-113 -62t-119 -65t-115 -62q16 -44 41 -82.5t57 -67
t71.5 -44.5t86.5 -16q45 0 85.5 20.5t69.5 54.5q-25 35 -39 77t-14 80t17 64.5t55 26.5q33 0 54.5 -11t34.5 -30.5t18 -47.5t5 -61q0 -4 -0.5 -28.5t-1 -62.5t-1.5 -86t-2 -97q6 2 10.5 3t8.5 2t7 2q2 0 4 1q2 0 3.5 0.5t3.5 0.5q5 0 8.5 -2.5t3.5 -10.5zM653 624
q0 45 -14 78.5t-37.5 55.5t-54 33t-62.5 11q-45 0 -90.5 -21t-83 -63t-61 -104.5t-23.5 -145.5q0 -30 3 -60t10 -59l393 218q15 8 17.5 26t2.5 31zM715 273q0 23 -8.5 39.5t-17.5 16.5q-6 0 -10.5 -9.5t-4.5 -30.5q0 -52 25 -93q11 24 14 46q1 9 1.5 16.5t0.5 14.5z" />
    <glyph glyph-name="notequal" unicode="&#x2260;" horiz-adv-x="878" 
d="M914 189q0 -9 -2 -12q-26 -39 -53.5 -71.5t-55.5 -56t-55 -37t-52 -13.5q-37 0 -64 32t-41 107q-15 -20 -36.5 -45t-48 -47.5t-56.5 -38t-61 -15.5q-71 0 -121 28.5t-82 77.5t-46.5 114.5t-14.5 138.5q0 98 24 199.5t66 189.5q-2 0 -5 1q-6 2 -13 2q-15 0 -41.5 -10.5
t-58.5 -45.5q-18 -20 -29.5 -43t-23.5 -43t-26.5 -33.5t-38.5 -13.5q-3 0 -11.5 1.5t-17 7.5t-15 19t-6.5 36q0 20 17.5 45t48 50.5t71 49.5t86 42.5t94 30t94.5 11.5q11 0 14.5 -4t3.5 -10t-6.5 -27t-15.5 -53t-20.5 -73t-20.5 -86t-15.5 -92.5t-6.5 -92.5q0 -60 13 -111
t35 -87.5t52 -57.5t64 -21q26 0 48.5 11t41.5 27t32.5 32.5t21.5 28.5v4q-2 39 -4 77q-2 32 -3 67.5t-1 62.5q0 114 7.5 196.5t13.5 117.5q1 10 6 20q5 8 14 16t26 13q20 5 39.5 8.5t33.5 3.5q21 0 29.5 -13t8.5 -30q0 -8 -3.5 -43.5t-7.5 -88t-7.5 -118t-3.5 -132.5
q0 -51 2 -99.5t8.5 -87t18 -61.5t30.5 -23q18 0 44 24.5t61 81.5q2 2 5 2q7 0 11.5 -14t4.5 -26z" />
    <glyph glyph-name="lozenge" unicode="&#x25ca;" horiz-adv-x="781" 
d="M817 189q0 -9 -2 -12q-22 -32 -48.5 -67t-54 -64t-54.5 -48t-50 -19q-21 0 -39 26t-35.5 65t-35.5 84t-40 84t-49 65t-61 26q-17 0 -38 -8q1 -91 4 -172t7 -135q1 -7 -2.5 -16.5t-14.5 -9.5q-31 0 -57 1q-22 0 -41.5 0.5t-24.5 0.5q-4 0 -10.5 3.5t-6.5 19.5v688
q-2 8 -8 8q-12 0 -47.5 -26.5t-77.5 -82.5q-2 -3 -6 -6q-8 -6 -15 -6q-5 0 -10 5t-9 11.5t-6.5 13t-2.5 10.5q0 9 5 15q9 11 25.5 30t39.5 41.5t50.5 45.5t59 41.5t65.5 30.5t69 12q5 0 10.5 -2.5t5.5 -13.5q-1 -44 -2 -96q-1 -45 -1 -103v-124q37 64 78.5 126t87 111
t93.5 78.5t97 29.5q13 0 26 -2t26 -7t24 -21t19 -36t12.5 -41.5t4.5 -38.5q0 -11 -4 -20t-16 -9q-13 0 -20.5 5.5t-17 12.5t-24.5 12.5t-42 5.5q-42 0 -84 -24t-82.5 -64.5t-79 -93t-74.5 -110.5q23 6 46.5 11t36.5 5q52 0 87 -22.5t59 -56.5t40 -74t29.5 -74t28.5 -56.5
t37 -22.5q13 0 26.5 9t26 23t24 31.5t22.5 34.5q2 2 5 2q7 0 11.5 -14t4.5 -26z" />
    <glyph glyph-name="uniF8FF" unicode="&#xf8ff;" horiz-adv-x="799" 
d="M435 699q-9 1 -18 1.5t-18 0.5q-7 0 -17.5 -0.5t-17.5 -1.5l-113 108h74l74 -77l75 77h74zM799 258q0 -83 -31.5 -155.5t-85.5 -126.5t-127 -85.5t-156 -31.5t-155.5 31.5t-126.5 85.5t-85.5 126.5t-31.5 155.5t31.5 155.5t85.5 126.5t126.5 85.5t155.5 31.5t156 -31.5
t127 -85.5t85.5 -126.5t31.5 -155.5zM742 258q0 71 -27 133t-73.5 108.5t-109 73.5t-133.5 27t-133 -27t-108.5 -73.5t-73.5 -108.5t-27 -133t27 -133t73.5 -108.5t108.5 -73.5t133 -27t133.5 27t109 73.5t73.5 108.5t27 133zM579 131q0 -35 -16.5 -61t-43.5 -42.5
t-62 -24.5t-73 -8q-46 0 -87.5 16t-76.5 33l12 60q45 -28 86 -40t75 -12q51 0 82.5 21t31.5 53q0 26 -20.5 46t-51 37.5t-66.5 35t-66.5 38t-51 46.5t-20.5 61q0 38 16 63t40 40t53.5 21.5t56.5 6.5q26 0 49 -6.5t42.5 -15t35 -17.5t26.5 -15l-13 -55q-32 28 -67.5 40.5
t-69.5 12.5q-45 0 -72.5 -19.5t-27.5 -50.5q0 -27 20.5 -45t51.5 -33t67.5 -30t67.5 -35.5t51.5 -49.5t20.5 -71z" />
    <glyph glyph-name="uniFB01" unicode="&#xfb01;" horiz-adv-x="602" 
d="M525 668q0 -33 -23.5 -56t-55.5 -23q-33 0 -56 23t-23 56q0 32 23 55.5t56 23.5q32 0 55.5 -23.5t23.5 -55.5zM638 189q0 -9 -2 -12q-38 -52 -74 -92q-15 -17 -31.5 -33.5t-32.5 -29.5t-31 -21t-27 -8q-23 0 -38.5 13t-25.5 35t-15.5 51t-6.5 61q-14 -18 -33.5 -34.5
t-41.5 -30t-45 -21.5t-43 -8q-23 0 -38 11q-2 0 -3.5 -2t-1.5 -11q0 -2 2 -19.5t4.5 -43.5t5.5 -57t5.5 -60t4 -51t1.5 -30q0 -14 -4 -17.5t-11 -4.5q-28 0 -51 1q-20 0 -37 0.5t-22 0.5t-13.5 5t-8.5 22q-2 124 -6 295.5t-4 378.5v97.5t1 100.5q0 20 12 43.5t30.5 46
t41.5 43.5t45.5 37.5t42 26t31.5 9.5q21 0 38 -16.5t29 -42.5t18.5 -57.5t6.5 -62.5q0 -50 -10 -107t-29 -115t-48 -114t-66 -102l-6 -10q-2 -5 -4 -9.5t-2 -8.5q1 -19 4 -36.5t12 -31t24.5 -21.5t41.5 -8q15 0 34 8t37 20.5t33 28t23 31.5q0 28 0.5 57.5t1 56t1 47.5
t0.5 32t2.5 18t5.5 11q4 4 8 6q11 5 27.5 9t32 7t28 4.5t15.5 1.5q11 0 15 -6t4 -14v-28.5t-0.5 -48t-1 -78t-0.5 -117.5q0 -17 3.5 -32.5t23.5 -16.5q13 0 26 7.5t25 20.5t23.5 29.5t22.5 33.5q2 2 5 2q7 0 11.5 -14t4.5 -26zM238 657q0 52 -12 85t-34 33
q-17 0 -27.5 -15.5t-16.5 -40.5t-8.5 -55t-3 -59.5t-0.5 -54.5v-39q0 -17 0.5 -44.5t1.5 -53.5t2 -45l1 -19q2 -2 3 -2q2 0 4 3q1 1 1 3q23 35 39.5 74.5t27.5 79.5t16.5 78.5t5.5 71.5z" />
    <glyph glyph-name="uniFB02" unicode="&#xfb02;" horiz-adv-x="645" 
d="M681 189q0 -9 -2 -12q-38 -52 -74 -92q-15 -17 -31.5 -33.5t-32.5 -29.5t-31 -21t-27 -8q-25 0 -46.5 11.5t-38.5 33t-28 51t-14 65.5q-14 -18 -33.5 -35t-42 -30.5t-46 -21.5t-43.5 -8q-23 0 -38 11q-2 0 -3.5 -2t-1.5 -11q0 -2 2 -19.5t4.5 -43.5t5.5 -57t5.5 -60
t4 -51t1.5 -30q0 -14 -4 -17.5t-11 -4.5q-28 0 -51 1q-20 0 -37 0.5t-22 0.5t-13.5 5t-8.5 22q-2 124 -6 295.5t-4 378.5v97.5t1 100.5q0 20 12 43.5t30.5 46t41.5 43.5t45.5 37.5t42 26t31.5 9.5q21 0 38 -16.5t29 -42.5t18.5 -57.5t6.5 -62.5q0 -50 -10 -107t-29 -115
t-48 -114t-66 -102l-6 -10q-2 -5 -4 -9.5t-2 -8.5q1 -19 4 -36.5t12 -31t24.5 -21.5t41.5 -8q15 0 34 8t37 20.5t33 28t23 31.5v166v78.5t0.5 76.5t1 69.5t0.5 57.5q1 30 26 66t59 67t68 52t52 21q21 0 35.5 -18t24 -43.5t14 -53t4.5 -46.5q0 -30 -3.5 -70.5t-17.5 -92
t-43.5 -114.5t-81.5 -138q0 -58 3 -95.5t9 -59t15 -30t21 -8.5q13 0 29.5 11.5t32.5 29t31 37.5t26 37q2 2 5 2q7 0 11.5 -14t4.5 -26zM558 676q0 49 -14.5 75.5t-28.5 26.5t-21 -14.5t-11 -32.5t-4.5 -34t-0.5 -19v-162q0 -55 1 -118q0 -3 1 -4q0 -1 1 -1t3 2q1 1 2 3
q12 15 24.5 51.5t23 79t17.5 83.5t7 64zM238 657q0 52 -12 85t-34 33q-17 0 -27.5 -15.5t-16.5 -40.5t-8.5 -55t-3 -59.5t-0.5 -54.5v-39q0 -17 0.5 -44.5t1.5 -53.5t2 -45l1 -19q2 -2 3 -2q2 0 4 3q1 1 1 3q23 35 39.5 74.5t27.5 79.5t16.5 78.5t5.5 71.5z" />
    <glyph glyph-name="glyph225" horiz-adv-x="538" 
d="M423 793q-1 -7 -21.5 -28t-50.5 -48t-64.5 -57t-64.5 -55t-50.5 -41t-21.5 -16q-5 0 -8.5 2t-3.5 9q0 4 5 16.5t13.5 30t19.5 38.5t23 42q27 50 62 111q5 6 10.5 9t17.5 4.5t32.5 2t55.5 0.5q21 0 33.5 -3t12.5 -17zM574 189q0 -9 -2 -12q-29 -43 -59.5 -61t-60.5 -18
q-16 0 -31 3q-29 -48 -77 -80t-117 -32q-54 0 -94 20t-66 53t-38.5 75t-12.5 87q0 53 15.5 102.5t48.5 87.5t86 60.5t128 22.5q34 0 62 -9.5t47.5 -24.5t30 -32t10.5 -32q0 -16 -12.5 -26.5t-39.5 -10.5q-18 0 -28 10t-20 22.5t-24.5 22.5t-39.5 10q-24 0 -47 -12
t-40.5 -33.5t-28 -50.5t-10.5 -63q0 -30 8.5 -59t25.5 -52.5t42.5 -37.5t60.5 -14q20 0 36.5 7t28.5 19q-27 19 -40.5 51.5t-13.5 64.5q0 19 4.5 36.5t14 31t23.5 21.5t33 8q39 0 60 -33t21 -82q0 -40 -15 -83h8q20 0 39.5 10.5t37.5 33.5q7 9 13.5 18t11.5 19q2 2 5 2
q7 0 11.5 -14t4.5 -26z" />
    <glyph glyph-name="glyph226" horiz-adv-x="538" 
d="M574 189q0 -9 -2 -12q-29 -43 -59.5 -61t-60.5 -18q-16 0 -31 3q-29 -48 -77 -80t-117 -32q-54 0 -94 20t-66 53t-38.5 75t-12.5 87q0 53 15.5 102.5t48.5 87.5t86 60.5t128 22.5q34 0 62 -9.5t47.5 -24.5t30 -32t10.5 -32q0 -16 -12.5 -26.5t-39.5 -10.5q-18 0 -28 10
t-20 22.5t-24.5 22.5t-39.5 10q-24 0 -47 -12t-40.5 -33.5t-28 -50.5t-10.5 -63q0 -30 8.5 -59t25.5 -52.5t42.5 -37.5t60.5 -14q20 0 36.5 7t28.5 19q-27 19 -40.5 51.5t-13.5 64.5q0 19 4.5 36.5t14 31t23.5 21.5t33 8q39 0 60 -33t21 -82q0 -40 -15 -83h8q20 0 39.5 10.5
t37.5 33.5q7 9 13.5 18t11.5 19q2 2 5 2q7 0 11.5 -14t4.5 -26z" />
    <glyph glyph-name="glyph227" horiz-adv-x="585" 
d="M537 523q0 -77 -12.5 -151.5t-29 -138t-33 -111.5t-25.5 -72q-11 -27 -22 -49t-25.5 -37t-34 -24t-46.5 -10q-16 -1 -27 -1.5t-20 -1t-18.5 -0.5h-22.5q-15 0 -25.5 13t-10.5 28q9 8 20.5 28.5t30.5 44.5q34 44 61.5 104.5t46 128.5t28.5 139t10 135q0 51 -6.5 94.5
t-20 76t-34.5 51t-50 18.5q-36 0 -61.5 -18t-42.5 -47.5t-25 -66.5t-8 -76q0 -90 35.5 -146t109.5 -56q13 0 17.5 1.5t9.5 1.5q12 0 12 -16q0 -9 -6 -21.5t-19 -23.5t-33.5 -18.5t-50.5 -7.5q-56 0 -99 21.5t-72 58t-43.5 84t-14.5 99.5q0 65 27 120t71 94.5t99 62t111 22.5
q48 0 93 -18.5t79.5 -58.5t55.5 -103t21 -153z" />
    <glyph glyph-name="glyph228" horiz-adv-x="474" 
d="M510 189q0 -9 -2 -12q-22 -32 -47 -65t-50.5 -60t-51 -44t-48.5 -17q-21 0 -32.5 19t-19 48t-14 62.5t-16.5 62.5t-26 48t-43 19q-11 0 -21 -3q0 -38 0.5 -96t0.5 -128q0 -7 -2 -12q-4 -11 -12 -11h-66q-15 0 -28 1q-4 -1 -8 2q-3 2 -6 6t-4 12q1 44 1 88.5v90.5v189.5
t-0.5 175.5t-0.5 146.5v101.5q0 14 22 20q6 1 20 3.5t29.5 5.5t29.5 4.5t19 1.5q19 0 19 -17q0 -4 -1 -25t-2 -53.5t-2 -73.5t-2.5 -85t-2.5 -87.5t-2 -81.5q11 21 34.5 42.5t53 39t61.5 28.5t60 11q33 0 54.5 -18.5t21.5 -64.5q0 -18 -10 -41t-29.5 -46.5t-48 -47
t-65.5 -42.5q22 -11 35.5 -25.5t21.5 -30.5t13 -32t12 -28t17 -20t27 -8q27 0 47.5 25.5t42.5 59.5q2 2 5 2q7 0 11.5 -14t4.5 -26zM305 406q0 14 -11.5 22t-34.5 8q-12 0 -28 -7.5t-32.5 -19.5t-32 -27t-27.5 -31q-1 -19 -1 -31.5v-16.5q41 5 72 17t52 26.5t32 30.5t11 29z
" />
    <glyph glyph-name="glyph229" horiz-adv-x="293" 
d="M231 668q0 -33 -23.5 -56t-55.5 -23q-33 0 -56 23t-23 56q0 32 23 55.5t56 23.5q32 0 55.5 -23.5t23.5 -55.5zM329 189q0 -9 -2 -12q-16 -22 -34 -44q-15 -20 -35 -42.5t-40 -42.5v-5q0 -81 -26 -140t-65.5 -97.5t-87.5 -57t-92 -18.5q-27 0 -51 7t-41.5 20.5t-28 33
t-10.5 45.5q0 10 3 22.5t9 23.5t14.5 18.5t20.5 7.5q8 0 17.5 -6t23.5 -21q13 -14 29 -26t31 -20t27 -12.5t17 -4.5q27 0 48.5 24.5t24.5 80.5v28t-0.5 65t-0.5 91t-0.5 107.5t-1 114.5t-1.5 111q1 8 5 15q4 6 10.5 11t20.5 5t31 -1t31 -3q17 -2 34 -3q3 0 6 -3q2 -2 4 -6.5
t2 -13.5v-50.5t-0.5 -85t-1 -98.5t-0.5 -90q26 28 51 59t38 51q2 2 5 2q7 0 11.5 -14t4.5 -26z" />
    <glyph glyph-name="glyph230" horiz-adv-x="539" 
d="M575 189q0 -9 -2 -12q-22 -32 -48.5 -65.5t-54 -60.5t-54 -44.5t-49.5 -17.5q-16 0 -29.5 10t-23.5 33t-15.5 60t-5.5 91q0 25 -1 54.5t-3.5 55.5t-7.5 43.5t-13 17.5q-17 0 -36.5 -18t-36 -43.5t-27 -52.5t-10.5 -45q0 -6 0.5 -15t1 -28.5t2.5 -53.5t5 -89q0 -7 -2 -12
q-4 -11 -12 -11h-76q-19 0 -38 1q-5 -1 -9 2q-3 2 -6 6t-3 12q-2 32 -4 69q-2 31 -2.5 71t-0.5 82q0 22 1 63.5t2.5 91.5t3.5 102.5t3.5 95.5t3 71.5t1.5 30.5q0 20 12 43.5t30.5 46t41.5 43.5t45.5 37.5t42 26t31.5 9.5q49 0 70.5 -39t21.5 -102q0 -39 -8 -85t-22.5 -94.5
t-35.5 -97t-47 -93.5q21 19 43.5 38t45 34t43.5 24t39 9q25 0 40.5 -21.5t15.5 -74.5q0 -13 -0.5 -44t-0.5 -63q-1 -38 -1 -81q0 -17 7 -32t27 -16q27 -1 44.5 20t39.5 55q2 2 5 2q7 0 11.5 -14t4.5 -26zM243 698q0 38 -8.5 62t-28.5 24q-17 0 -27.5 -17t-16.5 -44t-8.5 -60
t-3 -64.5t-0.5 -58v-40.5v-32.5t0.5 -41t1 -42.5t1.5 -36q19 35 35.5 80.5t28.5 93t19 93.5t7 83z" />
    <glyph glyph-name="glyph231" horiz-adv-x="548" 
d="M584 189q0 -9 -2 -12q-17 -22 -35 -45q-16 -20 -35.5 -43t-40.5 -43v-3q0 -81 -26 -140t-65.5 -97.5t-87.5 -57t-92 -18.5q-27 0 -51 7t-41.5 20.5t-28 33t-10.5 45.5q0 10 3 22.5t9 23.5t14.5 18.5t20.5 7.5q8 0 17.5 -6t23.5 -21q13 -14 29 -26t31 -20t27 -12.5
t17 -4.5q27 0 49 24.5t24 80.5q0 11 -0.5 38.5t-2.5 56.5q-2 33 -4 73q-3 -2 -21.5 -18.5t-44.5 -35.5t-56 -34t-55 -15q-35 0 -61 17t-43.5 45.5t-26.5 65.5t-9 77q0 50 14 100t42.5 90.5t71 65.5t100.5 25q38 0 88 -12t124 -36q3 -2 6 -6q2 -4 4.5 -9.5t2.5 -14.5
q0 -18 0.5 -52t1.5 -74t2 -81.5t2 -75.5q14 14 28 29.5t26.5 31t23 29.5t16.5 24q2 2 5 2q7 0 11.5 -14t4.5 -26zM315 382q-2 9 -8 14.5t-12.5 8t-13.5 3t-11 0.5q-31 0 -52.5 -14t-35 -37t-19.5 -52.5t-6 -59.5t5 -58t13.5 -49.5t20 -35t25.5 -13.5q18 0 35.5 8.5t31.5 22
t23 28.5t11 29z" />
    <glyph glyph-name="glyph232" horiz-adv-x="582" 
d="M542 388q0 -20 -1 -43.5t-4 -44t-7.5 -36t-11.5 -20.5q-32 -23 -69.5 -37.5t-79.5 -22.5q-5 -50 -12 -97t-18 -88q-4 -14 -29.5 -24.5t-51.5 -10.5q-17 0 -30 6.5t-13 23.5q0 7 4 12q1 2 5 16t10 36.5t13.5 51.5t13.5 61q-51 -3 -102 -3h-48q-20 0 -40.5 0.5t-34.5 0.5
q-23 0 -31.5 31.5t-8.5 83.5q0 51 6.5 116t15.5 130t19 124t18 99q3 19 18 33.5t36 25.5t44.5 18t45 11.5t38 6.5t22.5 2q15 0 24.5 -9.5t9.5 -20.5q0 -7 -7 -19q-23 -41 -44 -89t-39 -97.5t-32.5 -98.5t-25 -90.5t-16 -74t-5.5 -49.5q0 -11 3 -14t16 -3q35 0 69 5.5
t66 14.5q1 5 1 10v10q0 17 -1 32.5t-4 29.5q-1 2 -2 5t-1 11q0 14 10.5 26.5t25 21.5t29 14t22.5 5q5 0 13 -4t8 -19v-51t-2 -56q47 20 82.5 39.5t58.5 28.5q6 0 15 -3t9 -17z" />
    <glyph glyph-name="glyph233" horiz-adv-x="543" 
d="M498 284q0 -56 -22 -111.5t-65 -100.5t-107 -73t-149 -28q-32 0 -59.5 7.5t-47.5 23.5t-32 40t-12 57q0 12 3.5 27.5t10.5 28.5t18 22t25 9q10 0 21 -7.5t28 -25.5q32 -35 67.5 -52.5t67.5 -17.5q28 0 50 11t37.5 29.5t23.5 43t8 51.5q0 34 -11.5 66t-31 56.5t-45.5 39.5
t-56 15q-27 0 -48 -11.5t-36 -26t-25 -26t-17 -11.5q-15 8 -26 16q-10 7 -17.5 15t-7.5 15q0 4 0.5 9t1.5 18t3.5 37.5t6 68t9 109t12.5 159.5q1 14 5 25q4 10 12.5 18t23.5 8t39.5 -2t52 -5t56.5 -5t54 -2q24 0 50 2.5t48.5 5t38.5 5t19 2.5q6 0 12.5 -3.5t5.5 -16.5
q0 -12 -3 -32t-7 -40.5t-9 -37.5t-11 -21q-9 -7 -23.5 -11t-29.5 -4q-8 0 -26 2t-42 5t-50.5 7t-51.5 9t-45 10.5t-30 10.5q-5 0 -9 -3q-8 -6 -8 -17q0 -8 -2 -36t-4 -59q-3 -36 -6 -80q0 -8 5 -8q32 9 62 14t59 5q60 0 104 -19t73.5 -50.5t44 -73t14.5 -86.5z" />
    <glyph glyph-name="glyph234" horiz-adv-x="593" 
d="M549 201q0 -58 -27 -101.5t-70.5 -73t-99 -44t-111.5 -14.5q-50 0 -97 12t-83.5 36t-58.5 60.5t-22 85.5q0 33 12.5 68t35 70t53.5 69.5t67 67.5q-46 44 -73.5 91t-27.5 108q0 57 22 98.5t58 68.5t82.5 39.5t96.5 12.5q28 0 61.5 -7t62.5 -19t48.5 -27.5t19.5 -32.5
q0 -7 -5 -12t-14 -16t-19 -22q-11 -13 -24 -28q-2 -2 -6 -4q-6 -3 -14 -3q-10 0 -18 8q-7 7 -16.5 25.5t-23.5 37.5t-33.5 33.5t-44.5 14.5q-21 0 -41.5 -6.5t-36.5 -21.5t-26 -40.5t-10 -62.5q0 -33 29 -68.5t73 -73.5q65 43 129 72t116 38q14 -2 18.5 -9t4.5 -16l-1 -11
q-1 -6 -1.5 -20t-4 -29t-12.5 -27.5t-27 -15.5q-17 -3 -59 -3q-20 0 -43 -10t-49 -28q38 -31 75.5 -63.5t67.5 -66.5t48.5 -69t18.5 -71zM406 171q0 24 -15.5 47.5t-40.5 48t-57 49.5t-65 52q-45 -53 -74.5 -111.5t-29.5 -108.5q0 -24 13 -43t34 -33t47.5 -21.5t53.5 -7.5
q25 0 49.5 7t43 22.5t30 40t11.5 58.5z" />
    <glyph glyph-name="glyph235" horiz-adv-x="660" 
d="M743 550q0 -17 -15 -34t-39 -17q-38 0 -87 -17v-20q0 -72 -17.5 -135t-47 -116t-69 -95t-83 -71.5t-89.5 -45t-89 -15.5q-40 0 -75 14t-61.5 44t-41.5 76.5t-15 111.5q0 57 15.5 114.5t47 103.5t79 74.5t111.5 28.5q44 0 69.5 -26.5t25.5 -71.5q0 -11 -3 -21
q43 26 87.5 51.5t89.5 45.5q-12 51 -36 96.5t-60 80t-83.5 55t-105.5 20.5q-43 0 -69.5 -25.5t-42.5 -56.5q-18 -36 -28 -81q0 -5 -7.5 -6.5t-18.5 -1.5q-15 0 -33.5 3t-35.5 8.5t-28.5 12.5t-11.5 16q0 47 21.5 83.5t57.5 62t83.5 39t99.5 13.5q79 0 140.5 -23.5t105.5 -64
t71 -94t38 -114.5q33 13 62.5 20t54.5 7q17 0 25 -8.5t8 -20.5zM548 429v15.5t-1 15.5q-43 -19 -88.5 -43.5t-89 -50.5t-82.5 -51.5t-70 -47.5q-14 -11 -29 -20.5t-31 -19.5q0 -23 11.5 -42t31.5 -32.5t46.5 -21t56.5 -7.5q42 0 85.5 16.5t79 52.5t58 94t22.5 142zM265 441
q0 23 -10.5 28t-14.5 5q-23 0 -40.5 -13.5t-29.5 -36t-18 -52t-6 -60.5v-15t1 -14q16 9 36.5 28t38.5 42t30.5 46.5t12.5 41.5z" />
    <glyph glyph-name="glyph236" horiz-adv-x="790" 
d="M662 1187q0 -2 -0.5 -2.5t-0.5 -1.5v-2q-25 -16 -47.5 -42.5t-43 -56.5t-38 -60.5t-32.5 -55.5l-5.5 -10t-13.5 -21.5t-17.5 -21t-16.5 -9.5q-11 0 -21 9.5t-18 20.5q-10 13 -18 31q-15 25 -32 56t-37 61t-42.5 56.5t-47.5 42.5q-1 1 -1 2v4q0 4 2.5 8t13.5 4
q13 0 37 -11t52 -30t57.5 -44.5t53.5 -54.5q24 29 53.5 54.5t58 44.5t52 30t36.5 11q11 0 13.5 -4t2.5 -8zM826 189q0 -9 -2 -12q-37 -51 -68 -88t-60.5 -60.5t-57.5 -34.5t-59 -11q-51 0 -114.5 28t-153.5 77q-21 -21 -48 -41t-57 -36t-62.5 -26t-65.5 -10
q-54 0 -80.5 21.5t-26.5 53.5q0 24 16 50.5t48.5 49.5t82 40.5t116.5 23.5q4 7 12 18q17 24 44 63t58.5 86t63 98.5t57.5 100.5t42 91t16 71q0 11 -12 16t-25 5q-70 0 -137 -19.5t-124 -51.5q-11 -6 -26.5 -15.5t-30 -21t-24.5 -22.5t-10 -20q0 -7 5 -14l65 -85q3 -6 3 -11
q0 -12 -11.5 -22.5t-23.5 -10.5q-8 0 -16 8q-51 64 -81 101.5t-45.5 57.5t-20 29t-4.5 16q0 11 6.5 23t25.5 25q21 15 59 35.5t89 39.5t113 32t130 13q80 0 136 -7t90.5 -18t50 -24t15.5 -26q0 -16 -15.5 -53.5t-41.5 -89t-60.5 -112t-72 -121t-76 -117t-73.5 -100.5
q46 -7 86 -17.5t75 -21t65.5 -18t57.5 -7.5q22 0 41.5 10.5t37 26.5t32 35t25.5 37q2 2 5 2q7 0 11.5 -14t4.5 -26z" />
    <glyph glyph-name="glyph237" horiz-adv-x="790" 
d="M826 189q0 -9 -2 -12q-37 -51 -68 -88t-60.5 -60.5t-57.5 -34.5t-59 -11q-51 0 -114.5 28t-153.5 77q-21 -21 -48 -41t-57 -36t-62.5 -26t-65.5 -10q-54 0 -80.5 21.5t-26.5 53.5q0 24 16 50.5t48.5 49.5t82 40.5t116.5 23.5q4 7 12 18q17 24 44 63t58.5 86t63 98.5
t57.5 100.5t42 91t16 71q0 11 -12 16t-25 5q-70 0 -137 -19.5t-124 -51.5q-11 -6 -26.5 -15.5t-30 -21t-24.5 -22.5t-10 -20q0 -7 5 -14l65 -85q3 -6 3 -11q0 -12 -11.5 -22.5t-23.5 -10.5q-8 0 -16 8q-51 64 -81 101.5t-45.5 57.5t-20 29t-4.5 16q0 11 6.5 23t25.5 25
q21 15 59 35.5t89 39.5t113 32t130 13q80 0 136 -7t90.5 -18t50 -24t15.5 -26q0 -16 -15.5 -53.5t-41.5 -89t-60.5 -112t-72 -121t-76 -117t-73.5 -100.5q46 -7 86 -17.5t75 -21t65.5 -18t57.5 -7.5q22 0 41.5 10.5t37 26.5t32 35t25.5 37q2 2 5 2q7 0 11.5 -14t4.5 -26z
" />
    <glyph glyph-name="glyph238" horiz-adv-x="766" 
d="M622 1006q0 -33 -23.5 -56t-55.5 -23q-33 0 -56 23t-23 56q0 32 23 55.5t56 23.5q32 0 55.5 -23.5t23.5 -55.5zM412 1006q0 -33 -23.5 -56t-55.5 -23q-33 0 -56 23t-23 56q0 32 23 55.5t56 23.5q32 0 55.5 -23.5t23.5 -55.5zM728 774q0 -8 -3.5 -50t-7 -102.5t-7 -132.5
t-3.5 -139q0 -56 -0.5 -90.5t-0.5 -60t-0.5 -48t-0.5 -53.5q0 -54 -16.5 -108.5t-53 -98t-96 -70.5t-146.5 -27q-3 0 -22 1.5t-45 6t-56 11.5t-55 18.5t-41.5 27.5t-16.5 38q0 8 3.5 22t12 27t21 22.5t30.5 9.5q10 0 26.5 -8t35 -20.5t39.5 -27t40.5 -27t36.5 -20.5t30 -8
q26 0 47 18.5t36 47t23.5 63.5t8.5 67l2 197q-21 -34 -47 -70t-56.5 -65t-65.5 -48t-75 -19t-67.5 15t-45 39.5t-27.5 56.5t-14.5 65.5t-5.5 66.5t-1 60q0 31 1.5 71.5t3 85.5t3.5 91t4 87q-1 1 -3 2q-4 2 -8 2q-17 0 -38 -15.5t-43 -34t-42 -34.5t-34 -16q-9 2 -15 6
q-5 4 -9.5 12t-4.5 23q0 7 4.5 17.5t20.5 22.5q11 9 31 23.5t44.5 31.5t52.5 34t54.5 31t50.5 23t41 9q29 0 45.5 -11t16.5 -34q0 -7 -1 -34.5t-2 -65.5t-2.5 -83.5t-2.5 -88.5t-2 -80.5t-1 -59.5q0 -105 20 -148t52 -43q19 0 40.5 13t43.5 34t43.5 49t41.5 58
q2 72 4.5 139.5t5 123.5t5.5 96.5t6 57.5q1 10 6 20q5 8 14 16t26 13q20 5 39.5 8.5t33.5 3.5q21 0 29.5 -13t8.5 -30z" />
    <glyph glyph-name="glyph239" horiz-adv-x="766" 
d="M654 1161q-1 -7 -21.5 -28t-50.5 -48t-64.5 -57t-64.5 -55t-50.5 -41t-21.5 -16q-5 0 -8.5 2t-3.5 9q0 4 5 16.5t13.5 30t19.5 38.5t23 42q27 50 62 111q5 6 10.5 9t17.5 4.5t32.5 2t55.5 0.5q21 0 33.5 -3t12.5 -17zM728 774q0 -8 -3.5 -50t-7 -102.5t-7 -132.5
t-3.5 -139q0 -56 -0.5 -90.5t-0.5 -60t-0.5 -48t-0.5 -53.5q0 -54 -16.5 -108.5t-53 -98t-96 -70.5t-146.5 -27q-3 0 -22 1.5t-45 6t-56 11.5t-55 18.5t-41.5 27.5t-16.5 38q0 8 3.5 22t12 27t21 22.5t30.5 9.5q10 0 26.5 -8t35 -20.5t39.5 -27t40.5 -27t36.5 -20.5t30 -8
q26 0 47 18.5t36 47t23.5 63.5t8.5 67l2 197q-21 -34 -47 -70t-56.5 -65t-65.5 -48t-75 -19t-67.5 15t-45 39.5t-27.5 56.5t-14.5 65.5t-5.5 66.5t-1 60q0 31 1.5 71.5t3 85.5t3.5 91t4 87q-1 1 -3 2q-4 2 -8 2q-17 0 -38 -15.5t-43 -34t-42 -34.5t-34 -16q-9 2 -15 6
q-5 4 -9.5 12t-4.5 23q0 7 4.5 17.5t20.5 22.5q11 9 31 23.5t44.5 31.5t52.5 34t54.5 31t50.5 23t41 9q29 0 45.5 -11t16.5 -34q0 -7 -1 -34.5t-2 -65.5t-2.5 -83.5t-2.5 -88.5t-2 -80.5t-1 -59.5q0 -105 20 -148t52 -43q19 0 40.5 13t43.5 34t43.5 49t41.5 58
q2 72 4.5 139.5t5 123.5t5.5 96.5t6 57.5q1 10 6 20q5 8 14 16t26 13q20 5 39.5 8.5t33.5 3.5q21 0 29.5 -13t8.5 -30z" />
    <glyph glyph-name="glyph240" horiz-adv-x="766" 
d="M728 774q0 -8 -3.5 -50t-7 -102.5t-7 -132.5t-3.5 -139q0 -56 -0.5 -90.5t-0.5 -60t-0.5 -48t-0.5 -53.5q0 -54 -16.5 -108.5t-53 -98t-96 -70.5t-146.5 -27q-3 0 -22 1.5t-45 6t-56 11.5t-55 18.5t-41.5 27.5t-16.5 38q0 8 3.5 22t12 27t21 22.5t30.5 9.5q10 0 26.5 -8
t35 -20.5t39.5 -27t40.5 -27t36.5 -20.5t30 -8q26 0 47 18.5t36 47t23.5 63.5t8.5 67l2 197q-21 -34 -47 -70t-56.5 -65t-65.5 -48t-75 -19t-67.5 15t-45 39.5t-27.5 56.5t-14.5 65.5t-5.5 66.5t-1 60q0 31 1.5 71.5t3 85.5t3.5 91t4 87q-1 1 -3 2q-4 2 -8 2
q-17 0 -38 -15.5t-43 -34t-42 -34.5t-34 -16q-9 2 -15 6q-5 4 -9.5 12t-4.5 23q0 7 4.5 17.5t20.5 22.5q11 9 31 23.5t44.5 31.5t52.5 34t54.5 31t50.5 23t41 9q29 0 45.5 -11t16.5 -34q0 -7 -1 -34.5t-2 -65.5t-2.5 -83.5t-2.5 -88.5t-2 -80.5t-1 -59.5q0 -105 20 -148
t52 -43q19 0 40.5 13t43.5 34t43.5 49t41.5 58q2 72 4.5 139.5t5 123.5t5.5 96.5t6 57.5q1 10 6 20q5 8 14 16t26 13q20 5 39.5 8.5t33.5 3.5q21 0 29.5 -13t8.5 -30z" />
    <glyph glyph-name="glyph241" horiz-adv-x="877" 
d="M913 189q0 -9 -2 -12q-22 -32 -48.5 -67t-53.5 -64t-53.5 -48t-49.5 -19q-35 0 -69.5 28.5t-69 75t-69 106.5t-67.5 124q-58 -88 -114 -175.5t-107.5 -157.5t-99 -113.5t-87.5 -43.5q-35 0 -65.5 8.5t-53 23t-35 34.5t-12.5 43q0 12 3.5 27t10.5 27.5t17.5 21.5t24.5 9
q10 0 22 -6.5t26 -25.5q29 -40 66 -40q33 0 71 31t79 83t85 120t91 142q10 16 19.5 32t20.5 32q-31 59 -61 113.5t-58.5 96.5t-56 67t-52.5 25q-17 0 -37.5 -14t-41 -30.5t-40 -31t-33.5 -14.5q-9 2 -15 6q-5 4 -9.5 12t-4.5 23q0 7 4.5 17.5t20.5 22.5q11 9 31 23.5
t44.5 31.5t52.5 34t54.5 31t50.5 23t41 9q22 0 46.5 -24.5t51 -65.5t54.5 -94t57 -111q43 61 86.5 115.5t87.5 95.5t88 64.5t88 23.5q13 0 20 -10t7 -26q0 -24 -18.5 -54.5t-60.5 -51.5q-32 -9 -64.5 -30.5t-65 -52.5t-65 -69.5t-64.5 -81.5q31 -61 64 -118t67 -101
t69 -70.5t71 -26.5q27 0 47.5 25.5t42.5 59.5q2 2 5 2q7 0 11.5 -14t4.5 -26z" />
    <glyph glyph-name="glyph242" horiz-adv-x="799" 
d="M1109 916q0 -21 -22 -21q-18 0 -28.5 4.5t-26.5 4.5q-53 0 -96.5 -46t-79 -121t-63 -171t-48.5 -196q-49 -235 -76 -534q-1 -8 -10.5 -14t-24.5 -10.5t-33 -7t-35 -2.5q-23 0 -39 5t-18 16q-1 33 -3.5 99t-7 145.5t-10.5 162.5t-14 151.5t-17.5 112t-20.5 43.5
q-4 0 -13 -18q-3 -6 -11.5 -48.5l-21 -105t-26.5 -136t-26.5 -141.5t-23 -122.5t-14.5 -77.5q-8 -38 -29 -59.5t-44 -31.5t-42.5 -12t-23.5 -2q-11 0 -24 6t-13 28q1 32 1 64.5v67.5q0 78 -4 163.5t-10.5 168.5t-15.5 158.5t-19.5 132.5t-22 91t-22.5 34q-17 0 -38 -15.5
t-43 -34t-42 -34.5t-34 -16q-9 2 -15 6q-5 4 -9.5 12t-4.5 23q0 7 4.5 17.5t20.5 22.5q11 9 31 23.5t44.5 31.5t52.5 34t54.5 31t50.5 23t41 9q22 0 39.5 -29.5t30 -79t22 -113.5t15.5 -132.5t9.5 -137t5 -126t2 -99.5t0.5 -58v-12q4 11 12 51t19 98.5t25 130t30 144.5
t33.5 141.5t36.5 121.5t38 85.5t39 32.5q10 0 21 -35t22 -92t21 -130t20 -149t18.5 -149t16 -130t13 -92.5t9.5 -35.5q4 36 11.5 98.5t18.5 140t26.5 164t36.5 171.5t47 163t59 137.5t73 94.5t87 35q10 0 22 -5q10 -5 25 -20t28.5 -33t23 -36t9.5 -29z" />
    <glyph glyph-name="glyph243" horiz-adv-x="490" 
d="M824 910q0 -21 -22 -21q-18 0 -34.5 1.5t-32.5 1.5q-34 0 -64.5 -21t-58 -58.5t-52 -88t-46 -110t-40.5 -125.5t-35 -133q-56 -236 -94 -536q-1 -8 -12.5 -14t-28.5 -10.5t-36.5 -7t-36.5 -2.5q-23 0 -39 5t-18 16q1 32 1 64.5v67.5q0 89 -6 180t-16.5 175.5t-25 158
t-30.5 127.5t-33 85.5t-33 31.5q-17 0 -38 -15.5t-43 -34t-42 -34.5t-34 -16q-9 2 -15 6q-5 4 -9.5 12t-4.5 23q0 7 4.5 17.5t20.5 22.5q11 9 31 23.5t44.5 31.5t52.5 34t54.5 31t50.5 23t41 9q25 0 45.5 -32t37 -84.5t29.5 -120t22 -137.5q22 -165 34 -374l13 6q5 36 14 96
t23 133t32 154.5t41.5 161t52.5 152t64 128t76 88t88 32.5q10 0 22 -5q10 -5 25 -20t28.5 -33t23 -36t9.5 -29z" />
    <glyph glyph-name="glyph244" horiz-adv-x="834" 
d="M534 879q0 -7 -3.5 -9t-8.5 -2q-2 0 -22 16t-50 41t-65 55t-64.5 57t-50 48t-21.5 28q0 14 12.5 17t33.5 3q35 0 55.5 -0.5t32.5 -2t17.5 -4.5t10.5 -9q34 -61 61 -111q12 -21 23 -42t19.5 -38.5t14 -30t5.5 -16.5zM864 17q0 -18 -15.5 -51t-40 -65t-55.5 -56t-62 -24
q-27 0 -48 20t-36 55t-25.5 82.5t-16.5 102.5q-23 -34 -53 -72.5t-65.5 -71.5t-76 -55t-85.5 -22q-40 0 -68 15t-47 39.5t-30 56.5t-17 65.5t-7.5 66.5t-1.5 60q0 20 0.5 60t1.5 90.5t2.5 106t2.5 108t2.5 97t2.5 71.5q-1 1 -3 2q-4 2 -8 2q-17 0 -38 -15.5t-43 -34
t-42 -34.5t-34 -16q-9 2 -15 6q-5 4 -9.5 12t-4.5 23q0 7 4.5 17.5t20.5 22.5q11 9 31 23.5t44.5 31.5t52.5 34t54.5 31t50.5 23t41 9q29 0 45.5 -11t16.5 -34q0 -7 -1 -49t-2 -102.5t-2.5 -131t-2.5 -136t-2 -117.5t-1 -74q0 -107 24 -151t61 -44q22 0 48 13.5t51.5 36
t50 52t45.5 60.5q-4 49 -5 100t-1 102q0 80 2.5 153.5t6.5 130.5q4 67 9 125q1 10 6 20q5 8 14 16t26 13q20 5 39.5 8.5t33.5 3.5q21 0 29.5 -13t8.5 -30q0 -8 -3.5 -48t-7.5 -98.5t-7.5 -128.5t-3.5 -137q0 -76 3.5 -146t11 -123.5t20.5 -85.5t32 -32q25 0 58 58q1 3 4 6
l4.5 4.5t6.5 2.5q10 0 14 -10t4 -19z" />
    <glyph glyph-name="glyph245" horiz-adv-x="834" 
d="M611 1003q0 -33 -23.5 -56t-55.5 -23q-33 0 -56 23t-23 56q0 32 23 55.5t56 23.5q32 0 55.5 -23.5t23.5 -55.5zM401 1003q0 -33 -23.5 -56t-55.5 -23q-33 0 -56 23t-23 56q0 32 23 55.5t56 23.5q32 0 55.5 -23.5t23.5 -55.5zM864 17q0 -18 -15.5 -51t-40 -65t-55.5 -56
t-62 -24q-27 0 -48 20t-36 55t-25.5 82.5t-16.5 102.5q-23 -34 -53 -72.5t-65.5 -71.5t-76 -55t-85.5 -22q-40 0 -68 15t-47 39.5t-30 56.5t-17 65.5t-7.5 66.5t-1.5 60q0 20 0.5 60t1.5 90.5t2.5 106t2.5 108t2.5 97t2.5 71.5q-1 1 -3 2q-4 2 -8 2q-17 0 -38 -15.5t-43 -34
t-42 -34.5t-34 -16q-9 2 -15 6q-5 4 -9.5 12t-4.5 23q0 7 4.5 17.5t20.5 22.5q11 9 31 23.5t44.5 31.5t52.5 34t54.5 31t50.5 23t41 9q29 0 45.5 -11t16.5 -34q0 -7 -1 -49t-2 -102.5t-2.5 -131t-2.5 -136t-2 -117.5t-1 -74q0 -107 24 -151t61 -44q22 0 48 13.5t51.5 36
t50 52t45.5 60.5q-4 49 -5 100t-1 102q0 80 2.5 153.5t6.5 130.5q4 67 9 125q1 10 6 20q5 8 14 16t26 13q20 5 39.5 8.5t33.5 3.5q21 0 29.5 -13t8.5 -30q0 -8 -3.5 -48t-7.5 -98.5t-7.5 -128.5t-3.5 -137q0 -76 3.5 -146t11 -123.5t20.5 -85.5t32 -32q25 0 58 58q1 3 4 6
l4.5 4.5t6.5 2.5q10 0 14 -10t4 -19z" />
    <glyph glyph-name="glyph246" horiz-adv-x="834" 
d="M643 927q0 -4 -2.5 -8t-13.5 -4q-13 0 -37 11t-52 30t-57.5 44.5t-53.5 54.5q-24 -29 -53.5 -54.5t-58 -44.5t-52 -30t-36.5 -11q-11 0 -13.5 4t-2.5 8v4q0 1 1 2q25 16 47.5 42t43 56t38 61t32.5 56l5.5 10t13.5 21.5t17.5 21t16.5 9.5q11 0 21 -10t18 -21
q10 -13 18 -30q15 -25 32 -56t37 -61t42 -56.5t48 -42.5v-2q0 -1 0.5 -2t0.5 -2zM864 17q0 -18 -15.5 -51t-40 -65t-55.5 -56t-62 -24q-27 0 -48 20t-36 55t-25.5 82.5t-16.5 102.5q-23 -34 -53 -72.5t-65.5 -71.5t-76 -55t-85.5 -22q-40 0 -68 15t-47 39.5t-30 56.5
t-17 65.5t-7.5 66.5t-1.5 60q0 20 0.5 60t1.5 90.5t2.5 106t2.5 108t2.5 97t2.5 71.5q-1 1 -3 2q-4 2 -8 2q-17 0 -38 -15.5t-43 -34t-42 -34.5t-34 -16q-9 2 -15 6q-5 4 -9.5 12t-4.5 23q0 7 4.5 17.5t20.5 22.5q11 9 31 23.5t44.5 31.5t52.5 34t54.5 31t50.5 23t41 9
q29 0 45.5 -11t16.5 -34q0 -7 -1 -49t-2 -102.5t-2.5 -131t-2.5 -136t-2 -117.5t-1 -74q0 -107 24 -151t61 -44q22 0 48 13.5t51.5 36t50 52t45.5 60.5q-4 49 -5 100t-1 102q0 80 2.5 153.5t6.5 130.5q4 67 9 125q1 10 6 20q5 8 14 16t26 13q20 5 39.5 8.5t33.5 3.5
q21 0 29.5 -13t8.5 -30q0 -8 -3.5 -48t-7.5 -98.5t-7.5 -128.5t-3.5 -137q0 -76 3.5 -146t11 -123.5t20.5 -85.5t32 -32q25 0 58 58q1 3 4 6l4.5 4.5t6.5 2.5q10 0 14 -10t4 -19z" />
    <glyph glyph-name="glyph247" horiz-adv-x="834" 
d="M678 1140q-1 -7 -21.5 -28t-50 -48t-64.5 -57t-65 -55t-50.5 -41t-21.5 -16q-5 0 -8.5 2t-3.5 9q0 4 5 16.5t13.5 30t19.5 38.5t23 42q27 50 62 111q5 6 10.5 9t17.5 4.5t32.5 2t55.5 0.5q21 0 33.5 -3t12.5 -17zM864 17q0 -18 -15.5 -51t-40 -65t-55.5 -56t-62 -24
q-27 0 -48 20t-36 55t-25.5 82.5t-16.5 102.5q-23 -34 -53 -72.5t-65.5 -71.5t-76 -55t-85.5 -22q-40 0 -68 15t-47 39.5t-30 56.5t-17 65.5t-7.5 66.5t-1.5 60q0 20 0.5 60t1.5 90.5t2.5 106t2.5 108t2.5 97t2.5 71.5q-1 1 -3 2q-4 2 -8 2q-17 0 -38 -15.5t-43 -34
t-42 -34.5t-34 -16q-9 2 -15 6q-5 4 -9.5 12t-4.5 23q0 7 4.5 17.5t20.5 22.5q11 9 31 23.5t44.5 31.5t52.5 34t54.5 31t50.5 23t41 9q29 0 45.5 -11t16.5 -34q0 -7 -1 -49t-2 -102.5t-2.5 -131t-2.5 -136t-2 -117.5t-1 -74q0 -107 24 -151t61 -44q22 0 48 13.5t51.5 36
t50 52t45.5 60.5q-4 49 -5 100t-1 102q0 80 2.5 153.5t6.5 130.5q4 67 9 125q1 10 6 20q5 8 14 16t26 13q20 5 39.5 8.5t33.5 3.5q21 0 29.5 -13t8.5 -30q0 -8 -3.5 -48t-7.5 -98.5t-7.5 -128.5t-3.5 -137q0 -76 3.5 -146t11 -123.5t20.5 -85.5t32 -32q25 0 58 58q1 3 4 6
l4.5 4.5t6.5 2.5q10 0 14 -10t4 -19z" />
    <glyph glyph-name="glyph248" horiz-adv-x="834" 
d="M864 17q0 -18 -15.5 -51t-40 -65t-55.5 -56t-62 -24q-27 0 -48 20t-36 55t-25.5 82.5t-16.5 102.5q-23 -34 -53 -72.5t-65.5 -71.5t-76 -55t-85.5 -22q-40 0 -68 15t-47 39.5t-30 56.5t-17 65.5t-7.5 66.5t-1.5 60q0 20 0.5 60t1.5 90.5t2.5 106t2.5 108t2.5 97t2.5 71.5
q-1 1 -3 2q-4 2 -8 2q-17 0 -38 -15.5t-43 -34t-42 -34.5t-34 -16q-9 2 -15 6q-5 4 -9.5 12t-4.5 23q0 7 4.5 17.5t20.5 22.5q11 9 31 23.5t44.5 31.5t52.5 34t54.5 31t50.5 23t41 9q29 0 45.5 -11t16.5 -34q0 -7 -1 -49t-2 -102.5t-2.5 -131t-2.5 -136t-2 -117.5t-1 -74
q0 -107 24 -151t61 -44q22 0 48 13.5t51.5 36t50 52t45.5 60.5q-4 49 -5 100t-1 102q0 80 2.5 153.5t6.5 130.5q4 67 9 125q1 10 6 20q5 8 14 16t26 13q20 5 39.5 8.5t33.5 3.5q21 0 29.5 -13t8.5 -30q0 -8 -3.5 -48t-7.5 -98.5t-7.5 -128.5t-3.5 -137q0 -76 3.5 -146
t11 -123.5t20.5 -85.5t32 -32q25 0 58 58q1 3 4 6l4.5 4.5t6.5 2.5q10 0 14 -10t4 -19z" />
    <glyph glyph-name="glyph249" horiz-adv-x="1204" 
d="M1240 189q0 -9 -2 -12q-22 -32 -48.5 -65.5t-54 -60.5t-54 -44.5t-49.5 -17.5q-16 0 -29.5 10t-23.5 33t-15.5 60t-5.5 91q0 25 -1 54.5t-3.5 55.5t-7.5 43.5t-13 17.5q-17 0 -36.5 -18t-36 -43.5t-27 -52.5t-10.5 -45q0 -6 0.5 -15t1 -28.5t2.5 -53.5t5 -89q0 -7 -2 -12
q-4 -11 -12 -11h-76q-19 0 -38 1q-5 -1 -9 2q-3 2 -6 6t-3 12q-2 32 -4 69q-2 31 -2.5 71t-0.5 82q0 22 0.5 60.5t1.5 83.5t1.5 91.5t1.5 85t1.5 63.5t0.5 27q-28 0 -52 2t-42 5q-21 4 -38 8q-2 -19 -4 -41q-2 -19 -3 -44.5t-1 -55.5q0 -7 1 -17.5t3 -35.5t4 -71t5 -124
q2 -54 -14 -108.5t-52.5 -98t-96.5 -71t-147 -27.5q-3 0 -22 1.5t-45 6t-56 11.5t-55 18.5t-41.5 27.5t-16.5 38q0 8 3.5 22t12 27t21 22.5t30.5 9.5q10 0 26.5 -8t35 -20.5t39.5 -27t40.5 -27t36.5 -20.5t30 -8q26 0 47 18.5t36 47t23.5 63.5t8.5 67q0 33 -1.5 72.5t-3 74
t-3 58t-1.5 25.5q0 54 5.5 92.5t13.5 64.5q8 30 19 50q0 6 -10 6q-99 0 -167 -15.5t-110 -39.5t-61 -52t-19 -53q0 -29 20.5 -48t55.5 -19q29 0 51 -1t37 -7t22.5 -19t7.5 -36q0 -9 -2.5 -20t-10 -21t-20.5 -16.5t-34 -6.5q-48 0 -84 16.5t-60.5 44t-37 64t-12.5 75.5
q0 49 20 99.5t61 91t103 66t146 25.5q70 0 125 -7.5t100 -18.5t82 -23t72 -22q29 17 52 24t40 7q29 0 42.5 -15.5t13.5 -35.5q0 -15 -7 -29.5t-21 -24.5q-1 -24 -2 -55.5t-2 -64.5t-1.5 -66t-1 -60.5t-1 -46.5t-0.5 -26q0 -12 1 -15q10 21 35 48.5t56.5 52t66 42t62.5 17.5
t45.5 -21.5t17.5 -72.5q0 -13 -0.5 -44t-0.5 -63q-1 -38 -1 -81q0 -17 7 -32t27 -16q27 -1 44.5 20t39.5 55q2 2 5 2q7 0 11.5 -14t4.5 -26z" />
    <glyph glyph-name="glyph250" horiz-adv-x="633" 
d="M715 770q0 -15 -9 -32t-25.5 -31.5t-40.5 -25t-54 -13.5q-6 0 -17 -2t-15 -11q-2 -19 -4 -41q-2 -19 -3 -44.5t-1 -55.5q0 -7 1 -44t3 -94t4 -129.5t5 -150.5q2 -54 -14 -108.5t-52.5 -98t-96.5 -71t-147 -27.5q-3 0 -22 1.5t-45 6t-56 11.5t-55 18.5t-41.5 27.5
t-16.5 38q0 8 3.5 22t12 27t21 22.5t30.5 9.5q10 0 26.5 -8t35 -20.5t39.5 -27t40.5 -27t36.5 -20.5t30 -8q26 0 47 18.5t36 47t23.5 63.5t8.5 67q0 22 -0.5 60t-1.5 82t-2.5 89.5t-2.5 82.5t-1.5 61t-0.5 25q0 54 5.5 92.5t13.5 64.5q8 30 19 50q0 6 -10 6
q-99 0 -167 -15.5t-110 -39.5t-61 -52t-19 -53q0 -29 20.5 -48t55.5 -19q29 0 51 -1t37 -7t22.5 -19t7.5 -36q0 -9 -2.5 -20t-10 -21t-20.5 -16.5t-34 -6.5q-48 0 -84 16.5t-60.5 44t-37 64t-12.5 75.5q0 49 20 99.5t61 91t103 66t146 25.5q14 0 40 -1.5t56.5 -4.5t61 -8.5
t54.5 -14.5q13 12 30 23q14 8 34 15.5t45 7.5q35 0 50.5 -14t15.5 -34z" />
    <glyph glyph-name="glyph251" horiz-adv-x="733" 
d="M594 1259q0 -2 -0.5 -2.5t-0.5 -1.5v-2q-25 -16 -47.5 -42.5t-43 -56.5t-38 -60.5t-32.5 -55.5l-5.5 -10t-13.5 -21.5t-17.5 -21t-16.5 -9.5q-11 0 -21 9.5t-18 20.5q-10 13 -18 31q-15 25 -32 56t-37 61t-42.5 56.5t-47.5 42.5q-1 1 -1 2v4q0 4 2.5 8t13.5 4
q13 0 37 -11t52 -30t57.5 -44.5t53.5 -54.5q24 29 53.5 54.5t58 44.5t52 30t36.5 11q11 0 13.5 -4t2.5 -8zM669 195q0 -44 -30 -89t-81 -81t-118 -58.5t-141 -22.5q-72 0 -145.5 25t-142.5 84q-3 3 -5 7q-5 7 -5 19q0 16 10.5 31t25.5 26.5t33 18.5t33 7q1 0 13.5 -6.5
t28.5 -24.5q5 -14 29.5 -29.5t59.5 -29t75.5 -22.5t78.5 -9q25 0 46.5 4.5t37.5 15.5t25.5 28t9.5 43q0 40 -34 76t-84.5 72t-110 74t-110 81.5t-84.5 95t-34 113.5t30 108t78 76.5t108 45.5t121 15q53 0 102 -11t87 -33t60.5 -54.5t22.5 -74.5q0 -6 -3.5 -13.5t-15.5 -15.5
l-230 -137q-2 -2 -5 -3q-5 -3 -11 -3t-19.5 9.5t-13.5 27.5q0 8 7 15q9 8 17.5 13.5t22.5 13.5t36 21t57 35l3 3l2 4t1 6q0 28 -16.5 54t-42.5 45t-58.5 30.5t-64.5 11.5q-26 0 -49 -8t-41 -26t-28.5 -46.5t-10.5 -68.5q0 -45 35 -85t87.5 -78t114 -75t114 -76t87.5 -82
t35 -93z" />
    </font>
</defs>
</svg>
